<svg width="360" height="344" viewBox="0 0 360 344" fill="none" xmlns="http://www.w3.org/2000/svg">
<mask id="mask0_5971_7018" style="mask-type:luminance" maskUnits="userSpaceOnUse" x="107" y="55" width="126" height="111">
<path d="M107.387 165.559L232.068 165.559V55.5377L107.387 55.5377L107.387 165.559Z" fill="white"/>
</mask>
<g mask="url(#mask0_5971_7018)">
<path d="M196.019 236.753C185.574 235.204 175.447 231.66 165.923 226.221C161.355 223.612 156.953 220.568 152.835 217.175C148.757 213.816 144.927 210.085 141.443 206.086C137.959 202.087 134.797 197.784 132.041 193.297C129.257 188.764 126.867 184.002 124.933 179.146C120.899 169.014 118.855 158.575 118.855 148.117C118.855 137.681 120.893 127.839 124.908 118.862C126.845 114.531 129.245 110.432 132.041 106.673C134.812 102.945 137.993 99.5241 141.502 96.4964C145.058 93.4281 148.976 90.7442 153.147 88.5195C157.353 86.2761 161.852 84.4826 166.517 83.1859C176.191 80.4957 186.455 79.9302 197.025 81.4956C207.47 83.0453 217.597 86.5886 227.12 92.0284C231.688 94.6373 236.091 97.6806 240.209 101.074C244.286 104.433 248.117 108.163 251.601 112.163C255.085 116.162 258.247 120.465 261.003 124.951C263.787 129.485 266.177 134.247 268.111 139.102C272.145 149.235 274.188 159.674 274.188 170.132C274.188 180.568 272.151 190.41 268.136 199.387C266.199 203.718 263.799 207.817 261.003 211.576C258.231 215.303 255.05 218.725 251.542 221.752C247.986 224.821 244.068 227.505 239.897 229.729C235.691 231.973 231.192 233.766 226.527 235.063C220.409 236.763 214.054 237.616 207.533 237.616C203.746 237.616 199.903 237.328 196.019 236.753ZM168.351 89.7881C164.167 90.9504 160.137 92.5595 156.372 94.5655C152.647 96.5527 149.151 98.9461 145.976 101.683C142.849 104.383 140.009 107.435 137.54 110.76C135.044 114.119 132.897 117.787 131.163 121.661C127.545 129.751 125.708 138.649 125.708 148.117C125.708 187.423 157.7 224.143 197.022 229.973C206.639 231.398 215.947 230.889 224.689 228.461C228.873 227.299 232.904 225.689 236.669 223.683C240.393 221.696 243.89 219.303 247.064 216.566C250.192 213.866 253.032 210.814 255.5 207.489C257.997 204.13 260.143 200.462 261.878 196.588C265.496 188.498 267.333 179.599 267.333 170.132C267.333 130.826 235.341 94.1062 196.019 88.2758C192.469 87.7509 188.967 87.4884 185.514 87.4884C179.612 87.4884 173.869 88.2571 168.351 89.7912V89.7881Z" fill="url(#paint0_linear_5971_7018)"/>
<path d="M192.351 236.451C181.906 234.901 171.779 231.358 162.255 225.918C157.687 223.309 153.285 220.266 149.167 216.872C145.089 213.513 141.259 209.783 137.775 205.783C134.291 201.784 131.129 197.481 128.373 192.995C125.589 188.461 123.199 183.699 121.265 178.844C117.231 168.711 115.188 158.272 115.188 147.814C115.188 137.378 117.225 127.536 121.24 118.559C123.177 114.228 125.577 110.129 128.373 106.37C131.144 102.643 134.325 99.2214 137.834 96.1937C141.39 93.1254 145.308 90.4414 149.479 88.2168C153.685 85.9734 158.184 84.1799 162.849 82.8832C172.523 80.193 182.787 79.6275 193.357 81.1928C203.802 82.7426 213.929 86.2858 223.452 91.7256C228.02 94.3346 232.423 97.3779 236.541 100.771C240.619 104.13 244.449 107.861 247.933 111.86C251.417 115.859 254.579 120.162 257.335 124.649C260.119 129.182 262.509 133.944 264.443 138.8C268.477 148.933 270.52 159.372 270.52 169.829C270.52 180.265 268.483 190.108 264.468 199.084C262.531 203.415 260.131 207.514 257.335 211.273C254.563 215.001 251.382 218.422 247.874 221.45C244.318 224.518 240.4 227.202 236.229 229.427C232.023 231.67 227.524 233.464 222.859 234.76C216.741 236.46 210.386 237.313 203.865 237.313C200.078 237.313 196.235 237.025 192.351 236.451ZM164.683 89.4853C160.499 90.6477 156.469 92.2568 152.704 94.2627C148.979 96.2499 145.483 98.6433 142.308 101.38C139.181 104.08 136.341 107.133 133.872 110.457C131.376 113.816 129.229 117.484 127.495 121.359C123.877 129.448 122.04 138.347 122.04 147.814C122.04 187.121 154.032 223.84 193.354 229.67C202.971 231.095 212.279 230.586 221.021 228.158C225.205 226.996 229.236 225.387 233.001 223.381C236.725 221.393 240.222 219 243.396 216.263C246.524 213.563 249.364 210.511 251.832 207.186C254.329 203.827 256.475 200.159 258.21 196.285C261.828 188.195 263.665 179.297 263.665 169.829C263.665 130.523 231.673 93.8034 192.351 87.9731C188.801 87.4481 185.299 87.1857 181.846 87.1857C175.944 87.1857 170.201 87.9543 164.683 89.4885V89.4853Z" fill="url(#paint1_linear_5971_7018)"/>
</g>
<path d="M238.583 17.9102L244.129 17.9164V28.0086L238.583 29.1116V17.9102Z" fill="url(#paint2_linear_5971_7018)"/>
<path d="M259.915 11.9375L265.464 13.1373V22.0391L259.915 23.1421V11.9375Z" fill="url(#paint3_linear_5971_7018)"/>
<path d="M281.25 5.9707L286.796 7.1674V16.0692L281.25 17.1753V5.9707Z" fill="url(#paint4_linear_5971_7018)"/>
<path d="M291.913 2.97767V13.073L281.249 16.0726V5.97097L270.582 8.94552V19.069L259.915 22.0685V11.9388L249.25 14.9165V25.065L238.583 28.0645V17.9098L229.182 20.6312V156.845L302.58 146.965V12.6168V10.0735V0L291.913 2.97767Z" fill="url(#paint5_linear_5971_7018)"/>
<path d="M359.376 18.7227L354.452 20.2724V27.4432L359.376 28.668V18.7227Z" fill="url(#paint6_linear_5971_7018)"/>
<path d="M340.444 12.4824L335.52 14.0291V21.1999L340.444 22.4247V12.4824Z" fill="url(#paint7_linear_5971_7018)"/>
<path d="M321.51 6.24219L316.586 7.78883V14.9596L321.51 16.1844V6.24219Z" fill="url(#paint8_linear_5971_7018)"/>
<path d="M312.046 3.11203V12.0732L321.511 15.2071V6.2428L330.978 9.35483V18.3378L340.445 21.4717V12.4825L349.909 15.5945V24.6025L359.377 27.7364V18.7222L368.844 21.8342V30.8672V33.0325V155.995L302.579 147.156V11.1983V8.94239V0L312.046 3.11203Z" fill="url(#paint9_linear_5971_7018)"/>
<path d="M287.808 26.3252V28.628L283.706 29.6966V27.4094L279.603 28.4937V30.7652L275.501 31.8338V29.581L271.398 30.6652V32.9024L267.296 33.9709V31.7494L263.193 32.8336V35.0395L259.091 36.1081V33.921L254.988 35.0052V37.1767L250.886 38.2453V36.0894L246.783 37.1736V39.3108L242.681 40.3794V38.2578L238.578 39.342V98.5487C238.578 99.8235 239.244 100.945 240.334 101.508L263.059 113.209C264.368 113.884 266.036 113.621 267.23 112.556L290.542 91.731C291.405 90.9592 291.908 89.8687 291.908 88.7627V25.2441L287.805 26.3284L287.808 26.3252Z" fill="url(#paint10_linear_5971_7018)"/>
<path d="M280.199 58.818L273.772 53.6406L265.383 63.661L264.671 64.514L261.93 67.7854L260.527 69.4601L249.251 82.9268L251.991 85.1327L253.044 83.8767L256.9 86.9825L259.64 83.7111L255.784 80.6053L256.837 79.3492L260.693 82.455L263.433 79.1836L259.578 76.0779L263.271 71.666L264.674 69.9913L267.751 66.3137L268.464 65.4607L272.154 68.4321C274.375 70.2225 277.981 69.5226 280.203 66.8668C282.424 64.2109 282.424 60.6083 280.203 58.818H280.199ZM277.515 64.7046C276.759 65.6076 275.531 65.845 274.775 65.2358L271.116 62.2862L272.388 60.7677L273.857 59.0148L277.515 61.9644C278.272 62.5737 278.272 63.7985 277.515 64.7046Z" fill="url(#paint11_linear_5971_7018)"/>
<path d="M257.19 71.3412L259.014 69.1634L263.617 63.6643L255.568 57.1777L249.141 64.8547C246.919 67.5105 246.919 71.1131 249.141 72.9035C251.362 74.6938 254.968 73.9939 257.19 71.3381V71.3412ZM251.825 66.9606L255.484 62.5894L257.583 64.2798L258.224 64.7953L254.565 69.1665C253.809 70.0695 252.581 70.307 251.825 69.6977C251.069 69.0884 251.069 67.8636 251.825 66.9575V66.9606Z" fill="url(#paint12_linear_5971_7018)"/>
<path d="M265.721 70.8358L268.461 67.5645L280.087 76.9318L277.35 80.2032L276.297 79.3564L272.442 83.962L269.701 81.756L273.557 77.1505L272.507 76.3006L268.648 80.9093L265.911 78.7034L269.767 74.0947L265.721 70.8358Z" fill="url(#paint13_linear_5971_7018)"/>
<mask id="mask1_5971_7018" style="mask-type:luminance" maskUnits="userSpaceOnUse" x="261" y="92" width="202" height="124">
<path d="M462.187 92.2812H261.68V215.147H462.187V92.2812Z" fill="white"/>
</mask>
<g mask="url(#mask1_5971_7018)">
<path d="M301.136 385.091C290.651 385.091 280.43 383.719 270.591 380.985C263.089 378.901 255.856 376.014 249.091 372.405C242.383 368.828 236.081 364.513 230.363 359.579C224.723 354.714 219.602 349.206 215.146 343.213C210.65 337.167 206.791 330.571 203.676 323.61C197.218 309.178 193.943 293.349 193.943 276.564C193.943 259.779 197.23 242.956 203.717 226.662C206.826 218.851 210.672 211.195 215.15 203.903C219.58 196.688 224.667 189.771 230.269 183.337C235.871 176.904 242.036 170.905 248.591 165.506C255.215 160.05 262.296 155.154 269.641 150.958C284.958 142.209 301.24 136.51 318.037 134.02C335.038 131.498 351.544 132.414 367.098 136.738C374.6 138.822 381.834 141.709 388.598 145.318C395.307 148.896 401.609 153.21 407.327 158.144C412.966 163.009 418.088 168.518 422.543 174.51C427.039 180.556 430.898 187.152 434.013 194.114C440.472 208.546 443.746 224.375 443.746 241.16C443.746 257.945 440.459 274.767 433.973 291.061C430.864 298.873 427.017 306.528 422.54 313.821C418.109 321.035 413.023 327.953 407.42 334.386C401.818 340.82 395.653 346.819 389.098 352.218C382.474 357.673 375.394 362.569 368.048 366.766C352.732 375.514 336.45 381.213 319.652 383.704C313.407 384.629 307.226 385.091 301.136 385.091ZM336.544 143.659C330.994 143.659 325.358 144.081 319.652 144.927C256.415 154.304 204.967 213.358 204.967 276.567C204.967 291.79 207.919 306.103 213.74 319.107C216.527 325.338 219.977 331.234 223.995 336.636C227.969 341.982 232.534 346.891 237.565 351.231C242.667 355.633 248.291 359.482 254.281 362.679C260.336 365.906 266.817 368.494 273.544 370.362C287.601 374.271 302.571 375.089 318.034 372.796C381.271 363.419 432.717 304.366 432.717 241.157C432.717 225.934 429.764 211.62 423.943 198.616C421.156 192.386 417.706 186.49 413.688 181.088C409.714 175.741 405.149 170.833 400.118 166.493C395.016 162.09 389.392 158.241 383.402 155.045C377.347 151.817 370.867 149.23 364.139 147.361C355.269 144.896 346.033 143.659 336.541 143.659H336.544Z" fill="url(#paint14_linear_5971_7018)"/>
<path d="M314.175 386.808C303.689 386.808 293.468 385.436 283.629 382.702C276.127 380.618 268.894 377.731 262.129 374.122C255.421 370.545 249.119 366.23 243.401 361.296C237.761 356.431 232.64 350.923 228.184 344.93C223.688 338.884 219.83 332.288 216.714 325.326C210.256 310.894 206.981 295.065 206.981 278.281C206.981 261.496 210.268 244.673 216.755 228.379C219.864 220.567 223.71 212.912 228.188 205.62C232.618 198.405 237.705 191.487 243.307 185.054C248.909 178.621 255.074 172.621 261.629 167.222C268.253 161.767 275.334 156.871 282.679 152.675C297.996 143.926 314.278 138.227 331.075 135.736C348.076 133.215 364.583 134.13 380.136 138.455C387.638 140.539 394.872 143.426 401.636 147.035C408.345 150.612 414.647 154.927 420.365 159.861C426.005 164.726 431.126 170.234 435.581 176.227C440.077 182.273 443.936 188.869 447.051 195.83C453.51 210.263 456.784 226.092 456.784 242.876C456.784 259.661 453.497 276.484 447.011 292.778C443.902 300.59 440.056 308.245 435.578 315.537C431.147 322.752 426.061 329.67 420.458 336.103C414.856 342.536 408.692 348.535 402.136 353.935C395.512 359.39 388.432 364.286 381.086 368.482C365.77 377.231 349.488 382.93 332.691 385.421C326.445 386.345 320.264 386.808 314.175 386.808ZM349.582 145.376C344.033 145.376 338.396 145.797 332.691 146.644C269.453 156.021 218.005 215.074 218.005 278.284C218.005 293.506 220.957 307.82 226.778 320.824C229.566 327.054 233.015 332.95 237.033 338.353C241.008 343.699 245.572 348.607 250.603 352.947C255.705 357.35 261.329 361.199 267.319 364.396C273.375 367.623 279.855 370.21 286.582 372.079C300.639 375.988 315.609 376.806 331.072 374.513C394.309 365.136 445.755 306.083 445.755 242.873C445.755 227.651 442.802 213.337 436.981 200.333C434.194 194.103 430.744 188.207 426.726 182.804C422.752 177.458 418.187 172.55 413.156 168.21C408.054 163.807 402.43 159.958 396.44 156.761C390.385 153.534 383.905 150.947 377.178 149.078C368.307 146.613 359.071 145.376 349.579 145.376H349.582Z" fill="url(#paint15_linear_5971_7018)"/>
</g>
<path d="M275.443 165.923L312.141 168.188L308.845 162.461L290.954 159.846L275.443 165.923Z" fill="black"/>
<path d="M87.9887 155.457L62.6113 159.141V213.795L87.9887 213.239V155.457Z" fill="url(#paint16_linear_5971_7018)"/>
<path d="M93.6201 139.23L96.5509 139.518V144.848L93.6201 145.151V139.23Z" fill="url(#paint17_linear_5971_7018)"/>
<path d="M104.888 137.162L107.819 137.446V142.777L104.888 143.08V137.162Z" fill="url(#paint18_linear_5971_7018)"/>
<path d="M116.159 135.088L119.09 135.372V140.706L116.159 141.006V135.088Z" fill="url(#paint19_linear_5971_7018)"/>
<path d="M138.682 134.863L135.751 135.148V140.481L138.682 140.781V134.863Z" fill="url(#paint20_linear_5971_7018)"/>
<path d="M138.693 134.849V140.17L133.059 139.254V133.924L127.426 133.018V138.339V139.682V236.933L144.329 233.065V142.544V141.085V135.755L138.693 134.849Z" fill="url(#paint21_linear_5971_7018)"/>
<path d="M121.792 134.049V139.382L116.158 140.426V135.089L110.525 136.12V141.466L104.888 142.51V137.161L99.2543 138.192V143.553L93.6208 144.594V139.229L87.9873 140.26V145.638V146.925V239.93L127.425 230.737V139.682V138.339V133.018L121.792 134.049Z" fill="url(#paint22_linear_5971_7018)"/>
<mask id="mask2_5971_7018" style="mask-type:luminance" maskUnits="userSpaceOnUse" x="35" y="191" width="52" height="95">
<path d="M35.8866 285.416H86.5508L86.5508 191.115H35.8866L35.8866 285.416Z" fill="white"/>
</mask>
<g mask="url(#mask2_5971_7018)">
<path d="M49.2044 341.42C40.2527 340.092 31.5727 337.055 23.4083 332.39C19.4933 330.153 15.7189 327.544 12.1882 324.638C8.69495 321.761 5.40795 318.561 2.42402 315.134C-0.563023 311.706 -3.27199 308.016 -5.63413 304.173C-8.02127 300.286 -10.071 296.205 -11.727 292.043C-15.1827 283.36 -16.9355 274.412 -16.9355 265.447C-16.9355 256.502 -15.1889 248.066 -11.7457 240.373C-10.0866 236.661 -8.02752 233.146 -5.63101 229.925C-3.25636 226.731 -0.528654 223.794 2.47714 221.201C5.52668 218.57 8.88555 216.27 12.46 214.365C16.0657 212.443 19.9214 210.903 23.9176 209.793C32.207 207.487 41.0057 207 50.0668 208.344C59.0186 209.671 67.6985 212.709 75.8629 217.373C79.7779 219.611 83.5524 222.22 87.0831 225.125C90.5763 228.003 93.8633 231.203 96.8472 234.63C99.8343 238.058 102.543 241.748 104.905 245.591C107.293 249.478 109.342 253.559 110.998 257.72C114.454 266.404 116.207 275.352 116.207 284.316C116.207 293.262 114.46 301.698 111.017 309.391C109.358 313.103 107.299 316.618 104.902 319.839C102.528 323.032 99.7999 325.969 96.7941 328.563C93.7446 331.194 90.3857 333.493 86.8112 335.399C83.2056 337.321 79.3499 338.861 75.3536 339.971C70.1075 341.43 64.6615 342.158 59.0717 342.158C55.8253 342.158 52.5321 341.911 49.2044 341.417V341.42ZM25.4893 215.452C21.9023 216.449 18.4497 217.826 15.2221 219.548C12.0288 221.251 9.0324 223.304 6.31094 225.65C3.63009 227.962 1.19608 230.581 -0.922346 233.43C-3.06265 236.311 -4.90299 239.454 -6.38714 242.773C-9.4898 249.706 -11.0614 257.333 -11.0614 265.447C-11.0614 299.136 16.3594 330.613 50.0637 335.609C58.3062 336.83 66.2831 336.393 73.7789 334.312C77.3658 333.315 80.8184 331.937 84.046 330.216C87.2393 328.513 90.2357 326.46 92.9572 324.114C95.638 321.801 98.0721 319.183 100.19 316.333C102.331 313.453 104.171 310.309 105.655 306.991C108.758 300.058 110.33 292.431 110.33 284.316C110.33 250.628 82.9087 219.151 49.2044 214.155C46.1643 213.705 43.1585 213.48 40.1996 213.48C35.1409 213.48 30.2167 214.14 25.4893 215.455V215.452Z" fill="url(#paint23_linear_5971_7018)"/>
<path d="M46.3138 345.51C37.362 344.182 28.6821 341.145 20.5177 336.48C16.6027 334.243 12.8283 331.634 9.29755 328.728C5.80433 325.851 2.51732 322.651 -0.4666 319.223C-3.45365 315.796 -6.16261 312.106 -8.52476 308.263C-10.9119 304.376 -12.9616 300.295 -14.6176 296.133C-18.0733 287.45 -19.8262 278.502 -19.8262 269.537C-19.8262 260.592 -18.0796 252.156 -14.6363 244.463C-12.9772 240.751 -10.9181 237.236 -8.52163 234.015C-6.14699 230.821 -3.41928 227.884 -0.413485 225.291C2.63605 222.66 5.99492 220.36 9.56938 218.454C13.1751 216.533 17.0308 214.992 21.027 213.883C29.3164 211.577 38.1151 211.09 47.1762 212.433C56.128 213.761 64.8079 216.798 72.9723 221.463C76.8873 223.7 80.6617 226.309 84.1925 229.215C87.6857 232.093 90.9727 235.292 93.9566 238.72C96.9437 242.148 99.6526 245.838 102.015 249.681C104.402 253.568 106.452 257.648 108.108 261.81C111.563 270.493 113.316 279.442 113.316 288.406C113.316 297.352 111.57 305.788 108.126 313.481C106.467 317.193 104.408 320.708 102.012 323.929C99.637 327.122 96.9093 330.059 93.9035 332.653C90.8539 335.284 87.4951 337.583 83.9206 339.489C80.3149 341.411 76.4593 342.951 72.463 344.06C67.2169 345.519 61.7709 346.247 56.1811 346.247C52.9347 346.247 49.6414 346.001 46.3138 345.507V345.51ZM22.5987 219.542C19.0117 220.538 15.5591 221.916 12.3315 223.638C9.13819 225.341 6.14178 227.394 3.42031 229.74C0.739468 232.052 -1.69454 234.671 -3.81297 237.52C-5.95327 240.401 -7.79362 243.544 -9.27777 246.863C-12.3804 253.796 -13.9521 261.423 -13.9521 269.537C-13.9521 303.226 13.4688 334.702 47.1731 339.699C55.4156 340.92 63.3925 340.483 70.8882 338.402C74.4752 337.405 77.9278 336.027 81.1554 334.306C84.3487 332.603 87.3451 330.55 90.0666 328.203C92.7474 325.891 95.1814 323.273 97.2999 320.423C99.4402 317.542 101.28 314.399 102.765 311.081C105.867 304.148 107.439 296.521 107.439 288.406C107.439 254.718 80.0181 223.241 46.3138 218.245C43.2737 217.795 40.2679 217.57 37.3089 217.57C32.2503 217.57 27.3261 218.229 22.5987 219.545V219.542Z" fill="url(#paint24_linear_5971_7018)"/>
</g>
<path d="M171.16 155.458L183.168 153.898V226.784L171.16 225.035V155.458Z" fill="#401695"/>
<path d="M179.798 104.125C179.745 111.864 175.54 119.082 170.356 120.288C165.138 121.5 160.911 116.167 160.911 108.371C160.911 108.256 160.914 108.14 160.917 108.021L152.215 106.465L147.747 111.093V116.964L152.346 118.682V135.73L188.366 146.259V108.918L179.798 104.125Z" fill="url(#paint25_linear_5971_7018)"/>
<path d="M177.484 101.254L194.722 103.972V272.5L177.484 274.022V101.254Z" fill="url(#paint26_linear_5971_7018)"/>
<path d="M177.484 135.504L182.577 136.629V128.449L177.484 127.652V135.504Z" fill="black"/>
<path d="M169.597 102.879C169.547 110.003 165.676 116.648 160.905 117.758C156.103 118.876 152.209 113.964 152.209 106.787C152.209 106.681 152.212 106.575 152.216 106.466L144.326 108.094V264.326L177.481 274.018V101.254L169.594 102.882L169.597 102.879Z" fill="url(#paint27_linear_5971_7018)"/>
<g opacity="0.7">
<path d="M177.448 127.637L160.32 129.961C159.564 130.064 158.951 130.761 158.951 131.517V136.638C158.951 137.395 159.564 137.926 160.32 137.823L177.448 135.498V127.637Z" fill="black"/>
</g>
<path d="M159.959 147.634C155.588 148.687 152.304 152.786 152.304 157.188V200.279L169.726 198.21V155.12C169.726 149.889 165.149 146.381 159.959 147.634Z" fill="black"/>
<path d="M182.577 160.757L219.403 163.319L211.413 154.583L193.941 150.715L182.577 160.757Z" fill="black"/>
<path d="M229.181 117.74L246.403 114.834V236.078L229.181 232.919V120.243V117.74Z" fill="url(#paint28_linear_5971_7018)"/>
<path d="M229.182 64.2472L212.781 61.2539V99.5262L229.182 97.1141V64.2472Z" fill="url(#paint29_linear_5971_7018)"/>
<path d="M212.782 61.2539L182.577 69.7401V160.758L211.532 158.642L212.782 99.5262V61.2539Z" fill="url(#paint30_linear_5971_7018)"/>
<path opacity="0.7" d="M197.062 124.995L182.577 126.886V134.822L197.062 132.857C197.819 132.753 198.431 132.057 198.431 131.301V126.179C198.431 125.423 197.819 124.892 197.062 124.995Z" fill="black"/>
<path d="M105.958 238.044V230.279H118.106V238.266L105.958 238.044Z" fill="#401695"/>
<path d="M34.4042 166.102C14.6572 168.951 0 185.874 0 205.827V260.253L34.4042 264.846V166.102Z" fill="url(#paint31_linear_5971_7018)"/>
<path d="M34.4043 166.102L56.729 169.41V264.846H34.4043V166.102Z" fill="url(#paint32_linear_5971_7018)"/>
<path d="M152.313 174.805V170.702L150.867 170.574L24.873 274.771L26.2728 279.798L29.6161 279.855L152.313 174.805Z" fill="url(#paint33_linear_5971_7018)"/>
<path d="M150.8 170.574L147.207 170.69C145.082 170.909 144.098 171.537 142.854 172.636L21.8757 273.156C20.8696 273.99 20.2853 275.227 20.2728 276.533L20.251 278.917L26.2719 279.798V277.386C26.2719 275.99 26.8906 274.665 27.9592 273.768L150.8 170.574Z" fill="url(#paint34_linear_5971_7018)"/>
<path d="M160.069 173.143L152.311 173.921L29.2012 279.805L43.0584 281.573L160.069 173.143Z" fill="url(#paint35_linear_5971_7018)"/>
<path d="M293.541 171.713L275.443 173.294V188.692L293.541 195.784V171.713Z" fill="url(#paint36_linear_5971_7018)"/>
<path d="M246.401 199.784V114.834L266.62 118.005V203.97L293.538 205.72V205.045L246.401 199.784Z" fill="url(#paint37_linear_5971_7018)"/>
<path d="M293.541 171.646V192.225H326.736V173.327L293.541 171.646Z" fill="url(#paint38_linear_5971_7018)"/>
<path d="M35.0693 150.071L45.0522 148.134V132.221L35.0693 134.977V150.071Z" fill="url(#paint39_linear_5971_7018)"/>
<path d="M45.0537 148.134L56.7707 149.952V134.523L45.0537 132.221V148.134Z" fill="url(#paint40_linear_5971_7018)"/>
<path d="M375.868 142.863V115.404L358.646 118.923V127.502C358.646 136.739 366.691 143.916 375.868 142.86V142.863Z" fill="url(#paint41_linear_5971_7018)"/>
<path d="M326.736 128.732L293.541 124.154V164.342L326.736 166.489V128.732Z" fill="url(#paint42_linear_5971_7018)"/>
<path d="M315.202 162.461L317.836 162.973V167.766L315.202 167.779V162.461Z" fill="url(#paint43_linear_5971_7018)"/>
<path d="M325.329 161.588L327.963 162.1V166.893L325.329 166.906V161.588Z" fill="url(#paint44_linear_5971_7018)"/>
<path d="M335.459 160.717L338.09 161.229V166.022L335.459 166.035V160.717Z" fill="url(#paint45_linear_5971_7018)"/>
<path d="M340.52 160.277V165.07L335.459 165.514V160.717L330.394 161.149V165.954L325.329 166.398V161.589L320.267 162.02V166.838L315.202 167.282V162.461L310.141 162.892V167.723V168.882V252.469L345.585 247.667V165.835V164.626V159.846L340.52 160.277Z" fill="url(#paint46_linear_5971_7018)"/>
<path d="M355.71 161.018L353.076 161.452V166.245L355.71 166.336V161.018Z" fill="url(#paint47_linear_5971_7018)"/>
<path d="M350.646 160.427V165.22L355.711 165.814V161.017L360.772 161.599V166.404L365.837 166.998V162.189L370.899 162.773V167.591L375.964 168.185V163.364L381.029 163.945V168.776V169.935V222.627L345.584 221.589V165.835V164.626V159.846L350.646 160.427Z" fill="url(#paint48_linear_5971_7018)"/>
<path d="M275.443 127.066V165.923L293.541 164.342V124.154L275.443 127.066Z" fill="url(#paint49_linear_5971_7018)"/>
<path d="M311.221 159.447C316.778 159.087 320.898 152.855 320.424 145.526C319.95 138.197 315.061 132.547 309.504 132.906C303.947 133.265 299.827 139.498 300.301 146.827C300.774 154.156 305.664 159.806 311.221 159.447Z" fill="#191919"/>
<path d="M320.452 146.178C320.249 138.842 315.568 132.893 309.997 132.893C307.638 132.893 305.495 133.961 303.826 135.748C304.104 135.714 304.385 135.695 304.673 135.695C309.728 135.695 313.975 141.091 314.159 147.747C314.303 152.986 311.884 157.445 308.385 159.104C309.141 159.339 309.925 159.464 310.731 159.464C316.306 159.464 320.658 153.514 320.458 146.178H320.452Z" fill="url(#paint50_linear_5971_7018)"/>
<path d="M177.738 167.743L173.26 167.318L47.3701 278.38V283.285L177.735 275.658L177.738 167.743Z" fill="url(#paint51_linear_5971_7018)"/>
<path d="M157.378 221.418H144.676C130.001 221.418 118.105 233.313 118.105 247.989V295.954L157.378 302.956V221.418Z" fill="url(#paint52_linear_5971_7018)"/>
<path d="M136.724 288.766V255.827C136.724 251.662 137.89 247.807 139.958 245.354C138.962 244.604 137.877 244.123 136.724 243.964C131.003 243.32 127.426 249.594 127.426 256.805V288.051L136.724 288.766Z" fill="url(#paint53_linear_5971_7018)"/>
<path d="M146.023 290.366V262.189C146.023 254.478 143.601 248.104 139.961 245.357C137.893 247.81 136.728 251.666 136.728 255.831V288.77L146.026 290.366H146.023Z" fill="#191919"/>
<path d="M146.023 287.268L136.44 286.293L127.426 286.927V287.936L146.023 290.252V287.268Z" fill="url(#paint54_linear_5971_7018)"/>
<path d="M229.18 142.208V213.929L206.384 215.675V109.091C206.384 102.399 211.067 96.6213 217.616 95.2402L229.18 142.208Z" fill="url(#paint55_linear_5971_7018)"/>
<path d="M229.182 97.115L217.618 95.2402V143.542L229.182 142.208V97.115Z" fill="url(#paint56_linear_5971_7018)"/>
<path d="M300.275 182.48V293.679L349.949 286.808L345.331 265.599L345.581 184.852L300.275 182.48Z" fill="url(#paint57_linear_5971_7018)"/>
<path d="M275.319 314.272V330.6L360.935 343.608V301.792L340.591 299.796V277.08L321.872 275.834V193.215C313.345 193.634 306.646 200.67 306.646 209.209V317.896L275.319 314.278V314.272Z" fill="url(#paint58_linear_5971_7018)"/>
<path d="M385.521 298.056L365.927 296.307L340.59 299.928L360.934 301.925L385.521 298.056Z" fill="url(#paint59_linear_5971_7018)"/>
<path d="M275.319 314.094L303.774 309.848L306.646 310.182V318.215L275.319 314.094Z" fill="#4CAC98"/>
<path d="M365.927 296.183V274.621L340.59 277.089V299.805L365.927 296.183Z" fill="url(#paint60_linear_5971_7018)"/>
<path d="M350.491 273.116V194.794L321.87 193.213V275.441L350.491 273.116Z" fill="url(#paint61_linear_5971_7018)"/>
<path d="M257.47 178.857L293.539 182.141L279.713 289.622L257.47 292.243V178.857Z" fill="url(#paint62_linear_5971_7018)"/>
<path d="M300.278 293.678L279.712 291.029V204.354C279.712 192.775 288.72 183.192 300.278 182.477V293.675V293.678Z" fill="url(#paint63_linear_5971_7018)"/>
<path d="M209.133 208.438L182.577 208.853V248.541L209.133 235.146V208.438Z" fill="url(#paint64_linear_5971_7018)"/>
<path d="M157.376 221.418H199.395V298.075L157.376 302.956V221.418Z" fill="url(#paint65_linear_5971_7018)"/>
<path d="M209.13 208.438H233.257V264.351L209.627 266.785L209.13 235.146V208.438Z" fill="url(#paint66_linear_5971_7018)"/>
<path d="M199.396 231.234H218.783V281.411L199.396 283.07V231.234Z" fill="url(#paint67_linear_5971_7018)"/>
<path d="M233.259 180.398L257.471 178.857V292.24C243.588 290.297 233.259 278.42 233.259 264.404V180.398Z" fill="url(#paint68_linear_5971_7018)"/>
<path d="M341.393 218.918L339.115 212.569C340.468 211.641 341.365 209.948 341.365 207.985C341.365 204.939 339.203 202.392 336.537 202.296C333.872 202.202 331.71 204.592 331.71 207.642C331.71 209.604 332.607 211.36 333.96 212.385L331.685 218.559C331.385 219.374 331.969 220.246 332.838 220.274L340.209 220.537C341.065 220.568 341.684 219.721 341.393 218.915V218.918Z" fill="url(#paint69_linear_5971_7018)"/>
<path d="M336.848 220.421L334.029 212.572C335.382 211.644 336.279 209.951 336.279 207.989C336.279 206.027 335.307 204.13 333.864 203.127C332.564 204.071 331.708 205.727 331.708 207.645C331.708 209.563 332.604 211.363 333.957 212.388L331.664 218.612C331.373 219.403 331.939 220.249 332.783 220.277L336.844 220.421H336.848Z" fill="#191919"/>
<path d="M350.491 273.116L321.87 275.441V228.154L350.491 228.657V273.116Z" fill="url(#paint70_linear_5971_7018)"/>
<path d="M365.926 274.622L350.491 273.125L321.87 275.45L340.589 277.09L365.926 274.622Z" fill="url(#paint71_linear_5971_7018)"/>
<path d="M306.643 274.135L321.868 275.831V228.154H306.643V274.135Z" fill="url(#paint72_linear_5971_7018)"/>
<path d="M306.768 296.078L340.587 299.731V277.016L306.643 274.072L306.768 296.078Z" fill="url(#paint73_linear_5971_7018)"/>
<path d="M306.643 335.374L360.931 343.566V301.751L306.643 296.477V335.374Z" fill="url(#paint74_linear_5971_7018)"/>
<path d="M168.433 167.835C166.655 168.003 165.134 168.45 163.875 169.563L42.3087 275.721C41.0526 276.818 40.334 278.402 40.334 280.068V282.377L47.3673 283.289V281.049C47.3673 279.355 48.0953 277.74 49.367 276.618L173.258 167.322L168.433 167.838V167.835Z" fill="url(#paint75_linear_5971_7018)"/>
<path d="M342.069 95.9085L359.292 91.9122V64.457L342.069 69.8656V95.9085Z" fill="url(#paint76_linear_5971_7018)"/>
<path d="M359.293 91.9134L379.512 96.5721V90.8979C379.512 78.5311 371.229 67.6983 359.293 64.4551V91.9134Z" fill="url(#paint77_linear_5971_7018)"/>
<path d="M342.069 95.9103L360.02 101.144L379.511 96.5759L359.292 91.9141L342.069 95.9103Z" fill="black"/>
<path d="M275.319 330.419L306.646 335.234V318.215L275.319 314.094V330.419Z" fill="url(#paint78_linear_5971_7018)"/>
<path d="M194.346 130.384L157.605 135.371C156.849 135.474 156.236 134.943 156.236 134.186V129.065C156.236 128.309 156.849 127.612 157.605 127.509L194.346 122.523C195.102 122.419 195.715 122.951 195.715 123.707V128.828C195.715 129.584 195.102 130.281 194.346 130.384Z" fill="url(#paint79_linear_5971_7018)"/>
<path d="M194.346 122.523L157.605 127.509C156.849 127.612 156.236 128.309 156.236 129.065V130.359C156.236 131.115 156.849 131.646 157.605 131.543L194.346 126.556C195.102 126.453 195.715 125.756 195.715 125V123.707C195.715 122.951 195.102 122.419 194.346 122.523Z" fill="#EBE6DC"/>
<path d="M162.112 130.706L161.272 131.119L161.846 131.675L161.306 132.209L160.759 131.519L160.219 132.35L159.678 131.963L160.262 131.247L159.422 131.053L159.706 130.372L160.444 130.65L160.415 129.822L161.109 129.729L161.081 130.572L161.818 130.094L162.109 130.703L162.112 130.706Z" fill="#401695"/>
<path d="M166.444 130.119L165.604 130.531L166.179 131.087L165.638 131.622L165.091 130.931L164.551 131.762L164.01 131.375L164.594 130.659L163.754 130.465L164.038 129.784L164.776 130.062L164.748 129.234L165.441 129.141L165.413 129.984L166.15 129.506L166.441 130.115L166.444 130.119Z" fill="#401695"/>
<path d="M170.779 129.527L169.939 129.939L170.514 130.495L169.973 131.03L169.426 130.339L168.886 131.17L168.345 130.783L168.929 130.067L168.089 129.874L168.373 129.192L169.111 129.471L169.082 128.643L169.776 128.549L169.748 129.392L170.485 128.914L170.776 129.524L170.779 129.527Z" fill="#401695"/>
<path d="M175.113 128.941L174.273 129.353L174.847 129.909L174.307 130.444L173.76 129.753L173.22 130.584L172.679 130.197L173.263 129.481L172.423 129.288L172.707 128.607L173.445 128.885L173.416 128.057L174.11 127.963L174.082 128.807L174.819 128.328L175.11 128.938L175.113 128.941Z" fill="#401695"/>
<path d="M179.447 128.353L178.607 128.765L179.181 129.322L178.641 129.856L178.094 129.165L177.554 129.996L177.013 129.609L177.597 128.894L176.757 128.7L177.041 128.019L177.779 128.297L177.75 127.469L178.444 127.375L178.416 128.219L179.153 127.741L179.444 128.35L179.447 128.353Z" fill="#401695"/>
<path d="M183.782 127.765L182.942 128.178L183.516 128.734L182.976 129.268L182.429 128.577L181.889 129.409L181.348 129.021L181.932 128.306L181.092 128.112L181.376 127.431L182.114 127.709L182.085 126.881L182.779 126.787L182.751 127.631L183.488 127.153L183.779 127.762L183.782 127.765Z" fill="#401695"/>
<path d="M188.118 127.175L187.277 127.588L187.852 128.144L187.312 128.678L186.765 127.988L186.224 128.819L185.684 128.431L186.268 127.716L185.428 127.522L185.712 126.841L186.449 127.119L186.421 126.291L187.115 126.197L187.087 127.041L187.824 126.563L188.115 127.172L188.118 127.175Z" fill="#401695"/>
<path d="M192.45 126.587L191.609 127L192.184 127.556L191.644 128.09L191.097 127.4L190.557 128.231L190.016 127.843L190.6 127.128L189.76 126.934L190.044 126.253L190.781 126.531L190.753 125.703L191.447 125.609L191.419 126.453L192.156 125.975L192.447 126.584L192.45 126.587Z" fill="#401695"/>
<path opacity="0.7" d="M360.086 176.375L381.358 178.416V185.152L360.086 183.049C359.446 182.981 358.924 182.406 358.924 181.762V177.416C358.924 176.775 359.446 176.31 360.086 176.375Z" fill="black"/>
<path d="M115.24 180.505L111.985 171.996C111.85 171.65 111.941 171.256 112.21 170.997C113.716 169.553 114.662 167.532 114.662 165.347C114.662 161.261 111.35 158.149 107.263 158.392C103.177 158.636 99.8646 162.148 99.8646 166.235C99.8646 168.631 101.005 170.69 102.77 171.937L99.3459 181.295C98.9429 182.395 99.8021 183.548 100.971 183.479L113.819 182.707C114.915 182.642 115.634 181.529 115.24 180.501V180.505Z" fill="black"/>
<path d="M104.604 181.297L107.463 173.483C107.772 172.639 107.597 171.683 106.985 171.03C105.825 169.793 105.122 168.118 105.122 166.237C105.122 162.925 107.3 159.988 110.303 158.866C109.375 158.504 108.347 158.329 107.26 158.394C103.173 158.638 99.8607 162.15 99.8607 166.237C99.8607 168.368 100.764 170.233 102.204 171.499C102.538 171.789 102.648 172.261 102.498 172.677L99.342 181.3C98.939 182.4 99.7982 183.553 100.967 183.484L105.247 183.228C104.644 182.834 104.326 182.056 104.604 181.3V181.297Z" fill="url(#paint80_linear_5971_7018)"/>
<defs>
<linearGradient id="paint0_linear_5971_7018" x1="227.876" y1="95.6403" x2="200.918" y2="150.223" gradientUnits="userSpaceOnUse">
<stop stop-color="#3F59D9"/>
<stop offset="1" stop-color="#401695"/>
</linearGradient>
<linearGradient id="paint1_linear_5971_7018" x1="200.975" y1="86.3796" x2="192.654" y2="160.596" gradientUnits="userSpaceOnUse">
<stop offset="0.07" stop-color="#A6D9D3"/>
<stop offset="0.22" stop-color="#4CAC98"/>
<stop offset="0.37" stop-color="#478CB0"/>
<stop offset="0.65" stop-color="#3F59D9"/>
</linearGradient>
<linearGradient id="paint2_linear_5971_7018" x1="239.259" y1="9.29602" x2="239" y2="27.4671" gradientUnits="userSpaceOnUse">
<stop stop-color="#3F59D9"/>
<stop offset="1" stop-color="#401695"/>
</linearGradient>
<linearGradient id="paint3_linear_5971_7018" x1="258.599" y1="2.63617" x2="260.432" y2="22.8191" gradientUnits="userSpaceOnUse">
<stop stop-color="#3F59D9"/>
<stop offset="1" stop-color="#401695"/>
</linearGradient>
<linearGradient id="paint4_linear_5971_7018" x1="280.015" y1="-0.290512" x2="280.961" y2="13.9665" gradientUnits="userSpaceOnUse">
<stop stop-color="#3F59D9"/>
<stop offset="1" stop-color="#401695"/>
</linearGradient>
<linearGradient id="paint5_linear_5971_7018" x1="284.861" y1="6.2803" x2="209.272" y2="314.99" gradientUnits="userSpaceOnUse">
<stop offset="0.07" stop-color="#A6D9D3"/>
<stop offset="0.22" stop-color="#4CAC98"/>
<stop offset="0.37" stop-color="#478CB0"/>
<stop offset="0.65" stop-color="#3F59D9"/>
</linearGradient>
<linearGradient id="paint6_linear_5971_7018" x1="356.914" y1="3.06565" x2="356.914" y2="72.1958" gradientUnits="userSpaceOnUse">
<stop offset="0.07" stop-color="#A6D9D3"/>
<stop offset="0.22" stop-color="#4CAC98"/>
<stop offset="0.37" stop-color="#478CB0"/>
<stop offset="0.65" stop-color="#3F59D9"/>
</linearGradient>
<linearGradient id="paint7_linear_5971_7018" x1="337.982" y1="3.0651" x2="337.982" y2="72.1953" gradientUnits="userSpaceOnUse">
<stop offset="0.07" stop-color="#A6D9D3"/>
<stop offset="0.22" stop-color="#4CAC98"/>
<stop offset="0.37" stop-color="#478CB0"/>
<stop offset="0.65" stop-color="#3F59D9"/>
</linearGradient>
<linearGradient id="paint8_linear_5971_7018" x1="319.048" y1="3.06454" x2="319.048" y2="72.1947" gradientUnits="userSpaceOnUse">
<stop offset="0.07" stop-color="#A6D9D3"/>
<stop offset="0.22" stop-color="#4CAC98"/>
<stop offset="0.37" stop-color="#478CB0"/>
<stop offset="0.65" stop-color="#3F59D9"/>
</linearGradient>
<linearGradient id="paint9_linear_5971_7018" x1="346.508" y1="-11.0813" x2="254.605" y2="101.906" gradientUnits="userSpaceOnUse">
<stop stop-color="#3F59D9"/>
<stop offset="1" stop-color="#401695"/>
</linearGradient>
<linearGradient id="paint10_linear_5971_7018" x1="261.751" y1="155.283" x2="290.894" y2="26.8582" gradientUnits="userSpaceOnUse">
<stop offset="0.44"/>
<stop offset="0.94" stop-color="#401695"/>
</linearGradient>
<linearGradient id="paint11_linear_5971_7018" x1="281.284" y1="55.9778" x2="253.1" y2="84.161" gradientUnits="userSpaceOnUse">
<stop offset="0.07" stop-color="#A6D9D3"/>
<stop offset="0.22" stop-color="#4CAC98"/>
<stop offset="0.37" stop-color="#478CB0"/>
<stop offset="0.65" stop-color="#3F59D9"/>
</linearGradient>
<linearGradient id="paint12_linear_5971_7018" x1="278.761" y1="41.8957" x2="254.243" y2="66.4138" gradientUnits="userSpaceOnUse">
<stop offset="0.15" stop-color="#3F59D9"/>
<stop offset="0.54" stop-color="#4CAC98"/>
<stop offset="1" stop-color="#3F59D9"/>
</linearGradient>
<linearGradient id="paint13_linear_5971_7018" x1="291.826" y1="54.9632" x2="267.308" y2="79.4814" gradientUnits="userSpaceOnUse">
<stop offset="0.15" stop-color="#3F59D9"/>
<stop offset="0.54" stop-color="#4CAC98"/>
<stop offset="1" stop-color="#3F59D9"/>
</linearGradient>
<linearGradient id="paint14_linear_5971_7018" x1="340.071" y1="113.616" x2="323.096" y2="229.765" gradientUnits="userSpaceOnUse">
<stop offset="0.07" stop-color="#A6D9D3"/>
<stop offset="0.22" stop-color="#4CAC98"/>
<stop offset="0.37" stop-color="#478CB0"/>
<stop offset="0.65" stop-color="#3F59D9"/>
</linearGradient>
<linearGradient id="paint15_linear_5971_7018" x1="206.981" y1="260.58" x2="456.781" y2="260.58" gradientUnits="userSpaceOnUse">
<stop stop-color="#3F59D9"/>
<stop offset="1" stop-color="#401695"/>
</linearGradient>
<linearGradient id="paint16_linear_5971_7018" x1="75.3" y1="224.1" x2="75.3" y2="159.203" gradientUnits="userSpaceOnUse">
<stop/>
<stop offset="1" stop-color="#401695"/>
</linearGradient>
<linearGradient id="paint17_linear_5971_7018" x1="95.8885" y1="134.766" x2="94.8356" y2="144.308" gradientUnits="userSpaceOnUse">
<stop stop-color="#3F59D9"/>
<stop offset="1" stop-color="#401695"/>
</linearGradient>
<linearGradient id="paint18_linear_5971_7018" x1="106.394" y1="132.241" x2="106.337" y2="142.946" gradientUnits="userSpaceOnUse">
<stop stop-color="#3F59D9"/>
<stop offset="1" stop-color="#401695"/>
</linearGradient>
<linearGradient id="paint19_linear_5971_7018" x1="117.803" y1="131.782" x2="117.581" y2="139.328" gradientUnits="userSpaceOnUse">
<stop stop-color="#3F59D9"/>
<stop offset="1" stop-color="#401695"/>
</linearGradient>
<linearGradient id="paint20_linear_5971_7018" x1="137.216" y1="132.479" x2="137.216" y2="150.773" gradientUnits="userSpaceOnUse">
<stop offset="0.07" stop-color="#A6D9D3"/>
<stop offset="0.22" stop-color="#4CAC98"/>
<stop offset="0.37" stop-color="#478CB0"/>
<stop offset="0.65" stop-color="#3F59D9"/>
</linearGradient>
<linearGradient id="paint21_linear_5971_7018" x1="135.878" y1="124.506" x2="135.878" y2="183.847" gradientUnits="userSpaceOnUse">
<stop stop-color="#3F59D9"/>
<stop offset="1" stop-color="#401695"/>
</linearGradient>
<linearGradient id="paint22_linear_5971_7018" x1="123.451" y1="142.507" x2="79.023" y2="263.817" gradientUnits="userSpaceOnUse">
<stop offset="0.07" stop-color="#A6D9D3"/>
<stop offset="0.22" stop-color="#4CAC98"/>
<stop offset="0.37" stop-color="#478CB0"/>
<stop offset="0.65" stop-color="#3F59D9"/>
</linearGradient>
<linearGradient id="paint23_linear_5971_7018" x1="82.8868" y1="215.28" x2="59.4966" y2="257.208" gradientUnits="userSpaceOnUse">
<stop offset="0.07" stop-color="#A6D9D3"/>
<stop offset="0.22" stop-color="#4CAC98"/>
<stop offset="0.37" stop-color="#478CB0"/>
<stop offset="0.65" stop-color="#3F59D9"/>
</linearGradient>
<linearGradient id="paint24_linear_5971_7018" x1="60.0305" y1="198.579" x2="53.2721" y2="239.47" gradientUnits="userSpaceOnUse">
<stop offset="0.07" stop-color="#A6D9D3"/>
<stop offset="0.22" stop-color="#4CAC98"/>
<stop offset="0.37" stop-color="#478CB0"/>
<stop offset="0.65" stop-color="#3F59D9"/>
</linearGradient>
<linearGradient id="paint25_linear_5971_7018" x1="168.056" y1="106.784" x2="168.056" y2="118.551" gradientUnits="userSpaceOnUse">
<stop stop-color="#3F59D9"/>
<stop offset="1" stop-color="#401695"/>
</linearGradient>
<linearGradient id="paint26_linear_5971_7018" x1="186.102" y1="240.739" x2="186.102" y2="119.454" gradientUnits="userSpaceOnUse">
<stop/>
<stop offset="1" stop-color="#401695"/>
</linearGradient>
<linearGradient id="paint27_linear_5971_7018" x1="194.678" y1="108.268" x2="151.913" y2="213.103" gradientUnits="userSpaceOnUse">
<stop offset="0.07" stop-color="#A6D9D3"/>
<stop offset="0.22" stop-color="#4CAC98"/>
<stop offset="0.37" stop-color="#478CB0"/>
<stop offset="0.65" stop-color="#3F59D9"/>
</linearGradient>
<linearGradient id="paint28_linear_5971_7018" x1="266.544" y1="108.866" x2="135.729" y2="418.463" gradientUnits="userSpaceOnUse">
<stop offset="0.07" stop-color="#A6D9D3"/>
<stop offset="0.22" stop-color="#4CAC98"/>
<stop offset="0.37" stop-color="#478CB0"/>
<stop offset="0.65" stop-color="#3F59D9"/>
</linearGradient>
<linearGradient id="paint29_linear_5971_7018" x1="220.98" y1="63.6848" x2="220.98" y2="93.6396" gradientUnits="userSpaceOnUse">
<stop stop-color="#3F59D9"/>
<stop offset="1" stop-color="#401695"/>
</linearGradient>
<linearGradient id="paint30_linear_5971_7018" x1="197.678" y1="59.0699" x2="197.678" y2="158.22" gradientUnits="userSpaceOnUse">
<stop offset="0.07" stop-color="#A6D9D3"/>
<stop offset="0.22" stop-color="#4CAC98"/>
<stop offset="0.37" stop-color="#478CB0"/>
<stop offset="0.65" stop-color="#3F59D9"/>
</linearGradient>
<linearGradient id="paint31_linear_5971_7018" x1="26.471" y1="142.93" x2="12.3263" y2="282.378" gradientUnits="userSpaceOnUse">
<stop offset="0.07" stop-color="#A6D9D3"/>
<stop offset="0.22" stop-color="#4CAC98"/>
<stop offset="0.37" stop-color="#478CB0"/>
<stop offset="0.65" stop-color="#3F59D9"/>
</linearGradient>
<linearGradient id="paint32_linear_5971_7018" x1="45.5651" y1="122.427" x2="45.5651" y2="235.944" gradientUnits="userSpaceOnUse">
<stop stop-color="#3F59D9"/>
<stop offset="1" stop-color="#401695"/>
</linearGradient>
<linearGradient id="paint33_linear_5971_7018" x1="72.5127" y1="166.759" x2="85.8107" y2="213.115" gradientUnits="userSpaceOnUse">
<stop stop-color="#3F59D9"/>
<stop offset="1" stop-color="#401695"/>
</linearGradient>
<linearGradient id="paint34_linear_5971_7018" x1="351.601" y1="-199.704" x2="-155.066" y2="605.127" gradientUnits="userSpaceOnUse">
<stop offset="0.07" stop-color="#A6D9D3"/>
<stop offset="0.22" stop-color="#4CAC98"/>
<stop offset="0.37" stop-color="#478CB0"/>
<stop offset="0.65" stop-color="#3F59D9"/>
</linearGradient>
<linearGradient id="paint35_linear_5971_7018" x1="81.8557" y1="208.075" x2="148.699" y2="304.32" gradientUnits="userSpaceOnUse">
<stop offset="0.07" stop-color="#A6D9D3"/>
<stop offset="0.22" stop-color="#4CAC98"/>
<stop offset="0.37" stop-color="#478CB0"/>
<stop offset="0.65" stop-color="#3F59D9"/>
</linearGradient>
<linearGradient id="paint36_linear_5971_7018" x1="286.707" y1="148.779" x2="281.714" y2="229.32" gradientUnits="userSpaceOnUse">
<stop offset="0.07" stop-color="#A6D9D3"/>
<stop offset="0.22" stop-color="#4CAC98"/>
<stop offset="0.37" stop-color="#478CB0"/>
<stop offset="0.65" stop-color="#3F59D9"/>
</linearGradient>
<linearGradient id="paint37_linear_5971_7018" x1="269.97" y1="146.923" x2="269.97" y2="198.934" gradientUnits="userSpaceOnUse">
<stop stop-color="#3F59D9"/>
<stop offset="1" stop-color="#401695"/>
</linearGradient>
<linearGradient id="paint38_linear_5971_7018" x1="310.139" y1="161.532" x2="310.139" y2="190.431" gradientUnits="userSpaceOnUse">
<stop stop-color="#3F59D9"/>
<stop offset="1" stop-color="#401695"/>
</linearGradient>
<linearGradient id="paint39_linear_5971_7018" x1="43.7899" y1="130.368" x2="33.0571" y2="162.566" gradientUnits="userSpaceOnUse">
<stop offset="0.07" stop-color="#A6D9D3"/>
<stop offset="0.22" stop-color="#4CAC98"/>
<stop offset="0.37" stop-color="#478CB0"/>
<stop offset="0.65" stop-color="#3F59D9"/>
</linearGradient>
<linearGradient id="paint40_linear_5971_7018" x1="50.9122" y1="130.996" x2="50.9122" y2="147.971" gradientUnits="userSpaceOnUse">
<stop stop-color="#3F59D9"/>
<stop offset="1" stop-color="#401695"/>
</linearGradient>
<linearGradient id="paint41_linear_5971_7018" x1="358.539" y1="105.231" x2="385.407" y2="160.732" gradientUnits="userSpaceOnUse">
<stop offset="0.07" stop-color="#A6D9D3"/>
<stop offset="0.22" stop-color="#4CAC98"/>
<stop offset="0.37" stop-color="#478CB0"/>
<stop offset="0.65" stop-color="#3F59D9"/>
</linearGradient>
<linearGradient id="paint42_linear_5971_7018" x1="321.268" y1="122.583" x2="304.043" y2="157.777" gradientUnits="userSpaceOnUse">
<stop stop-color="#3F59D9"/>
<stop offset="1" stop-color="#401695"/>
</linearGradient>
<linearGradient id="paint43_linear_5971_7018" x1="288.127" y1="157.097" x2="286.351" y2="165.538" gradientUnits="userSpaceOnUse">
<stop stop-color="#3F59D9"/>
<stop offset="1" stop-color="#401695"/>
</linearGradient>
<linearGradient id="paint44_linear_5971_7018" x1="297.746" y1="155.757" x2="296.761" y2="165.327" gradientUnits="userSpaceOnUse">
<stop stop-color="#3F59D9"/>
<stop offset="1" stop-color="#401695"/>
</linearGradient>
<linearGradient id="paint45_linear_5971_7018" x1="307.989" y1="156.347" x2="307.131" y2="163.072" gradientUnits="userSpaceOnUse">
<stop stop-color="#3F59D9"/>
<stop offset="1" stop-color="#401695"/>
</linearGradient>
<linearGradient id="paint46_linear_5971_7018" x1="312.105" y1="166.431" x2="261.761" y2="271.056" gradientUnits="userSpaceOnUse">
<stop offset="0.07" stop-color="#A6D9D3"/>
<stop offset="0.22" stop-color="#4CAC98"/>
<stop offset="0.37" stop-color="#478CB0"/>
<stop offset="0.65" stop-color="#3F59D9"/>
</linearGradient>
<linearGradient id="paint47_linear_5971_7018" x1="355.498" y1="153.075" x2="351.252" y2="194.675" gradientUnits="userSpaceOnUse">
<stop offset="0.07" stop-color="#A6D9D3"/>
<stop offset="0.22" stop-color="#4CAC98"/>
<stop offset="0.37" stop-color="#478CB0"/>
<stop offset="0.65" stop-color="#3F59D9"/>
</linearGradient>
<linearGradient id="paint48_linear_5971_7018" x1="385.209" y1="150.035" x2="354.929" y2="206.995" gradientUnits="userSpaceOnUse">
<stop stop-color="#3F59D9"/>
<stop offset="1" stop-color="#401695"/>
</linearGradient>
<linearGradient id="paint49_linear_5971_7018" x1="298.377" y1="117.418" x2="271.172" y2="172.831" gradientUnits="userSpaceOnUse">
<stop offset="0.07" stop-color="#A6D9D3"/>
<stop offset="0.22" stop-color="#4CAC98"/>
<stop offset="0.37" stop-color="#478CB0"/>
<stop offset="0.65" stop-color="#3F59D9"/>
</linearGradient>
<linearGradient id="paint50_linear_5971_7018" x1="304.782" y1="159.11" x2="320.758" y2="124.163" gradientUnits="userSpaceOnUse">
<stop offset="0.07" stop-color="#A6D9D3"/>
<stop offset="0.22" stop-color="#4CAC98"/>
<stop offset="0.37" stop-color="#478CB0"/>
<stop offset="0.65" stop-color="#3F59D9"/>
</linearGradient>
<linearGradient id="paint51_linear_5971_7018" x1="110.039" y1="315.427" x2="119.359" y2="172.983" gradientUnits="userSpaceOnUse">
<stop/>
<stop offset="1" stop-color="#401695"/>
</linearGradient>
<linearGradient id="paint52_linear_5971_7018" x1="137.743" y1="207.626" x2="137.743" y2="335.466" gradientUnits="userSpaceOnUse">
<stop offset="0.07" stop-color="#A6D9D3"/>
<stop offset="0.22" stop-color="#4CAC98"/>
<stop offset="0.37" stop-color="#478CB0"/>
<stop offset="0.65" stop-color="#3F59D9"/>
</linearGradient>
<linearGradient id="paint53_linear_5971_7018" x1="133.694" y1="296.206" x2="133.694" y2="233.14" gradientUnits="userSpaceOnUse">
<stop offset="0.07" stop-color="#A6D9D3"/>
<stop offset="0.22" stop-color="#4CAC98"/>
<stop offset="0.37" stop-color="#478CB0"/>
<stop offset="0.65" stop-color="#3F59D9"/>
</linearGradient>
<linearGradient id="paint54_linear_5971_7018" x1="133.522" y1="278.678" x2="153.547" y2="334.483" gradientUnits="userSpaceOnUse">
<stop offset="0.07" stop-color="#A6D9D3"/>
<stop offset="0.22" stop-color="#4CAC98"/>
<stop offset="0.37" stop-color="#478CB0"/>
<stop offset="0.65" stop-color="#3F59D9"/>
</linearGradient>
<linearGradient id="paint55_linear_5971_7018" x1="217.782" y1="95.637" x2="217.782" y2="268.373" gradientUnits="userSpaceOnUse">
<stop offset="0.07" stop-color="#A6D9D3"/>
<stop offset="0.22" stop-color="#4CAC98"/>
<stop offset="0.37" stop-color="#478CB0"/>
<stop offset="0.65" stop-color="#3F59D9"/>
</linearGradient>
<linearGradient id="paint56_linear_5971_7018" x1="223.399" y1="94.9715" x2="223.399" y2="146.561" gradientUnits="userSpaceOnUse">
<stop/>
<stop offset="1" stop-color="#401695"/>
</linearGradient>
<linearGradient id="paint57_linear_5971_7018" x1="325.112" y1="259.713" x2="325.112" y2="165.742" gradientUnits="userSpaceOnUse">
<stop/>
<stop offset="1" stop-color="#401695"/>
</linearGradient>
<linearGradient id="paint58_linear_5971_7018" x1="297.632" y1="165.638" x2="324.371" y2="362.067" gradientUnits="userSpaceOnUse">
<stop offset="0.07" stop-color="#A6D9D3"/>
<stop offset="0.22" stop-color="#4CAC98"/>
<stop offset="0.37" stop-color="#478CB0"/>
<stop offset="0.65" stop-color="#3F59D9"/>
</linearGradient>
<linearGradient id="paint59_linear_5971_7018" x1="362.971" y1="292.332" x2="363.302" y2="318.291" gradientUnits="userSpaceOnUse">
<stop offset="0.07" stop-color="#A6D9D3"/>
<stop offset="0.22" stop-color="#4CAC98"/>
<stop offset="0.37" stop-color="#478CB0"/>
<stop offset="0.65" stop-color="#3F59D9"/>
</linearGradient>
<linearGradient id="paint60_linear_5971_7018" x1="348.167" y1="248.803" x2="353.991" y2="292.734" gradientUnits="userSpaceOnUse">
<stop stop-color="#3F59D9"/>
<stop offset="1" stop-color="#401695"/>
</linearGradient>
<linearGradient id="paint61_linear_5971_7018" x1="333.334" y1="183.236" x2="336.315" y2="237.556" gradientUnits="userSpaceOnUse">
<stop stop-color="#3F59D9"/>
<stop offset="1" stop-color="#401695"/>
</linearGradient>
<linearGradient id="paint62_linear_5971_7018" x1="280.219" y1="163.728" x2="264.85" y2="256.924" gradientUnits="userSpaceOnUse">
<stop stop-color="#3F59D9"/>
<stop offset="1" stop-color="#401695"/>
</linearGradient>
<linearGradient id="paint63_linear_5971_7018" x1="315.238" y1="175.381" x2="272.304" y2="297.437" gradientUnits="userSpaceOnUse">
<stop offset="0.07" stop-color="#A6D9D3"/>
<stop offset="0.22" stop-color="#4CAC98"/>
<stop offset="0.37" stop-color="#478CB0"/>
<stop offset="0.65" stop-color="#3F59D9"/>
</linearGradient>
<linearGradient id="paint64_linear_5971_7018" x1="195.853" y1="185.91" x2="195.853" y2="273.45" gradientUnits="userSpaceOnUse">
<stop offset="0.07" stop-color="#A6D9D3"/>
<stop offset="0.22" stop-color="#4CAC98"/>
<stop offset="0.37" stop-color="#478CB0"/>
<stop offset="0.65" stop-color="#3F59D9"/>
</linearGradient>
<linearGradient id="paint65_linear_5971_7018" x1="178.385" y1="188.157" x2="178.385" y2="287.574" gradientUnits="userSpaceOnUse">
<stop stop-color="#3F59D9"/>
<stop offset="1" stop-color="#401695"/>
</linearGradient>
<linearGradient id="paint66_linear_5971_7018" x1="221.194" y1="264.035" x2="221.194" y2="201.435" gradientUnits="userSpaceOnUse">
<stop/>
<stop offset="1" stop-color="#401695"/>
</linearGradient>
<linearGradient id="paint67_linear_5971_7018" x1="209.088" y1="286.667" x2="209.088" y2="235.924" gradientUnits="userSpaceOnUse">
<stop/>
<stop offset="1" stop-color="#401695"/>
</linearGradient>
<linearGradient id="paint68_linear_5971_7018" x1="276.949" y1="169.143" x2="219.742" y2="290.822" gradientUnits="userSpaceOnUse">
<stop offset="0.07" stop-color="#A6D9D3"/>
<stop offset="0.22" stop-color="#4CAC98"/>
<stop offset="0.37" stop-color="#478CB0"/>
<stop offset="0.65" stop-color="#3F59D9"/>
</linearGradient>
<linearGradient id="paint69_linear_5971_7018" x1="336.537" y1="222.533" x2="336.537" y2="195.403" gradientUnits="userSpaceOnUse">
<stop offset="0.07" stop-color="#A6D9D3"/>
<stop offset="0.22" stop-color="#4CAC98"/>
<stop offset="0.37" stop-color="#478CB0"/>
<stop offset="0.65" stop-color="#3F59D9"/>
</linearGradient>
<linearGradient id="paint70_linear_5971_7018" x1="333.356" y1="213.469" x2="337.458" y2="269.517" gradientUnits="userSpaceOnUse">
<stop stop-color="#3F59D9"/>
<stop offset="1" stop-color="#401695"/>
</linearGradient>
<linearGradient id="paint71_linear_5971_7018" x1="342.695" y1="267.588" x2="349.794" y2="311.604" gradientUnits="userSpaceOnUse">
<stop offset="0.07" stop-color="#A6D9D3"/>
<stop offset="0.22" stop-color="#4CAC98"/>
<stop offset="0.37" stop-color="#478CB0"/>
<stop offset="0.65" stop-color="#3F59D9"/>
</linearGradient>
<linearGradient id="paint72_linear_5971_7018" x1="311.957" y1="218.615" x2="318.066" y2="305.086" gradientUnits="userSpaceOnUse">
<stop offset="0.07" stop-color="#A6D9D3"/>
<stop offset="0.22" stop-color="#4CAC98"/>
<stop offset="0.37" stop-color="#478CB0"/>
<stop offset="0.65" stop-color="#3F59D9"/>
</linearGradient>
<linearGradient id="paint73_linear_5971_7018" x1="320.662" y1="264.892" x2="327.274" y2="312.357" gradientUnits="userSpaceOnUse">
<stop offset="0.07" stop-color="#A6D9D3"/>
<stop offset="0.22" stop-color="#4CAC98"/>
<stop offset="0.37" stop-color="#478CB0"/>
<stop offset="0.65" stop-color="#3F59D9"/>
</linearGradient>
<linearGradient id="paint74_linear_5971_7018" x1="333.451" y1="293.811" x2="334.288" y2="355.661" gradientUnits="userSpaceOnUse">
<stop offset="0.07" stop-color="#A6D9D3"/>
<stop offset="0.22" stop-color="#4CAC98"/>
<stop offset="0.37" stop-color="#478CB0"/>
<stop offset="0.65" stop-color="#3F59D9"/>
</linearGradient>
<linearGradient id="paint75_linear_5971_7018" x1="279.679" y1="-63.6521" x2="-76.7107" y2="527.052" gradientUnits="userSpaceOnUse">
<stop offset="0.07" stop-color="#A6D9D3"/>
<stop offset="0.22" stop-color="#4CAC98"/>
<stop offset="0.37" stop-color="#478CB0"/>
<stop offset="0.65" stop-color="#3F59D9"/>
</linearGradient>
<linearGradient id="paint76_linear_5971_7018" x1="365.422" y1="62.048" x2="327.731" y2="110.222" gradientUnits="userSpaceOnUse">
<stop offset="0.07" stop-color="#A6D9D3"/>
<stop offset="0.22" stop-color="#4CAC98"/>
<stop offset="0.37" stop-color="#478CB0"/>
<stop offset="0.65" stop-color="#3F59D9"/>
</linearGradient>
<linearGradient id="paint77_linear_5971_7018" x1="375.787" y1="70.676" x2="363.196" y2="90.0825" gradientUnits="userSpaceOnUse">
<stop stop-color="#3F59D9"/>
<stop offset="1" stop-color="#401695"/>
</linearGradient>
<linearGradient id="paint78_linear_5971_7018" x1="287.821" y1="282.53" x2="292.939" y2="350.173" gradientUnits="userSpaceOnUse">
<stop offset="0.07" stop-color="#A6D9D3"/>
<stop offset="0.22" stop-color="#4CAC98"/>
<stop offset="0.37" stop-color="#478CB0"/>
<stop offset="0.65" stop-color="#3F59D9"/>
</linearGradient>
<linearGradient id="paint79_linear_5971_7018" x1="177.931" y1="120.691" x2="186.421" y2="151.983" gradientUnits="userSpaceOnUse">
<stop offset="0.07" stop-color="#A6D9D3"/>
<stop offset="1" stop-color="#4CAC98"/>
</linearGradient>
<linearGradient id="paint80_linear_5971_7018" x1="99.242" y1="170.93" x2="110.303" y2="170.93" gradientUnits="userSpaceOnUse">
<stop stop-color="#3F59D9"/>
<stop offset="1" stop-color="#401695"/>
</linearGradient>
</defs>
</svg>
