<svg width="285" height="237" viewBox="0 0 285 237" fill="none" xmlns="http://www.w3.org/2000/svg">
<mask id="mask0_5971_26183" style="mask-type:luminance" maskUnits="userSpaceOnUse" x="78" y="40" width="93" height="82">
<path d="M78.8486 121.559L170.395 121.559V40.7769L78.8486 40.7769L78.8486 121.559Z" fill="white"/>
</mask>
<g mask="url(#mask0_5971_26183)">
<path d="M143.926 173.833C136.257 172.695 128.821 170.094 121.829 166.1C118.475 164.184 115.242 161.949 112.218 159.458C109.225 156.992 106.412 154.253 103.854 151.316C101.296 148.379 98.9743 145.22 96.9509 141.926C94.9068 138.597 93.1517 135.101 91.7317 131.536C88.7699 124.096 87.2695 116.431 87.2695 108.753C87.2695 101.09 88.7653 93.8635 91.7133 87.2724C93.1357 84.0927 94.8976 81.0828 96.9509 78.3229C98.9858 75.586 101.321 73.0739 103.898 70.8508C106.508 68.598 109.385 66.6273 112.448 64.9939C115.536 63.3467 118.839 62.0298 122.265 61.0777C129.367 59.1025 136.904 58.6872 144.665 59.8366C152.334 60.9745 159.769 63.5761 166.762 67.5702C170.116 69.4858 173.348 71.7203 176.372 74.2118C179.366 76.678 182.179 79.4172 184.737 82.3537C187.295 85.2902 189.616 88.4493 191.64 91.7437C193.684 95.0725 195.439 98.5688 196.859 102.134C199.821 109.574 201.321 117.239 201.321 124.917C201.321 132.58 199.825 139.806 196.877 146.397C195.455 149.577 193.693 152.587 191.64 155.347C189.605 158.084 187.269 160.596 184.693 162.819C182.082 165.072 179.205 167.042 176.143 168.676C173.055 170.323 169.751 171.64 166.326 172.592C161.834 173.84 157.168 174.466 152.38 174.466C149.599 174.466 146.778 174.255 143.926 173.833ZM123.611 65.9253C120.539 66.7787 117.58 67.9602 114.815 69.4331C112.081 70.8921 109.514 72.6495 107.183 74.6591C104.886 76.6413 102.801 78.8827 100.989 81.3236C99.1555 83.7899 97.5795 86.4832 96.3062 89.328C93.6496 95.2675 92.3006 101.801 92.3006 108.753C92.3006 137.613 115.79 164.574 144.662 168.855C151.724 169.901 158.558 169.527 164.977 167.744C168.049 166.891 171.008 165.71 173.773 164.237C176.508 162.778 179.075 161.02 181.406 159.011C183.702 157.028 185.787 154.787 187.6 152.346C189.433 149.88 191.009 147.187 192.282 144.342C194.939 138.402 196.288 131.868 196.288 124.917C196.288 96.0567 172.798 69.0958 143.926 64.8149C141.32 64.4295 138.748 64.2368 136.213 64.2368C131.879 64.2368 127.663 64.8012 123.611 65.9276V65.9253Z" fill="url(#paint0_linear_5971_26183)"/>
<path d="M141.233 173.61C133.563 172.473 126.128 169.871 119.135 165.877C115.781 163.961 112.549 161.727 109.525 159.235C106.531 156.769 103.719 154.03 101.161 151.093C98.6026 148.157 96.2809 144.998 94.2575 141.703C92.2134 138.375 90.4584 134.878 89.0383 131.313C86.0766 123.873 84.5762 116.208 84.5762 108.53C84.5762 100.867 86.072 93.6408 89.0199 87.0497C90.4423 83.87 92.2042 80.8601 94.2575 78.1002C96.2924 75.3633 98.6279 72.8512 101.204 70.6282C103.815 68.3753 106.692 66.4046 109.755 64.7712C112.842 63.124 116.146 61.8072 119.571 60.8551C126.674 58.8798 134.21 58.4646 141.971 59.6139C149.641 60.7518 157.076 63.3534 164.069 67.3475C167.423 69.2632 170.655 71.4977 173.679 73.9891C176.673 76.4553 179.485 79.1946 182.043 82.1311C184.601 85.0676 186.923 88.2266 188.946 91.521C190.99 94.8499 192.746 98.3461 194.166 101.911C197.127 109.351 198.628 117.016 198.628 124.694C198.628 132.357 197.132 139.584 194.184 146.175C192.762 149.354 191 152.364 188.946 155.124C186.911 157.861 184.576 160.373 182 162.596C179.389 164.849 176.512 166.82 173.449 168.453C170.361 170.1 167.058 171.417 163.633 172.369C159.141 173.617 154.474 174.244 149.687 174.244C146.906 174.244 144.084 174.033 141.233 173.61ZM120.918 65.7026C117.846 66.5561 114.887 67.7375 112.122 69.2104C109.387 70.6695 106.82 72.4268 104.489 74.4365C102.193 76.4186 100.108 78.66 98.2952 81.101C96.4622 83.5672 94.8861 86.2605 93.6128 89.1053C90.9562 95.0448 89.6072 101.579 89.6072 108.53C89.6072 137.39 113.097 164.351 141.969 168.632C149.03 169.678 155.865 169.304 162.284 167.522C165.356 166.668 168.315 165.487 171.08 164.014C173.814 162.555 176.381 160.798 178.712 158.788C181.009 156.806 183.094 154.564 184.906 152.123C186.739 149.657 188.315 146.964 189.589 144.119C192.245 138.18 193.594 131.646 193.594 124.694C193.594 95.834 170.104 68.8732 141.233 64.5923C138.626 64.2068 136.055 64.0141 133.52 64.0141C129.186 64.0141 124.969 64.5785 120.918 65.7049V65.7026Z" fill="url(#paint1_linear_5971_26183)"/>
</g>
<path d="M175.176 13.1504L179.248 13.155V20.5651L175.176 21.3749V13.1504Z" fill="url(#paint2_linear_5971_26183)"/>
<path d="M190.839 8.76562L194.913 9.64658V16.1826L190.839 16.9925V8.76562Z" fill="url(#paint3_linear_5971_26183)"/>
<path d="M206.505 4.38281L210.577 5.26147V11.7975L206.505 12.6096V4.38281Z" fill="url(#paint4_linear_5971_26183)"/>
<path d="M214.333 2.18633V9.59874L206.503 11.8011V4.38413L198.671 6.56816V14.0012L190.839 16.2036V8.76596L183.009 10.9523V18.4037L175.177 20.6061V13.1501L168.273 15.1483V115.162L222.165 107.908V9.26379V7.39635V0L214.333 2.18633Z" fill="url(#paint5_linear_5971_26183)"/>
<path d="M263.867 13.7461L260.251 14.884V20.1491L263.867 21.0484V13.7461Z" fill="url(#paint6_linear_5971_26183)"/>
<path d="M249.966 9.16602L246.351 10.3016V15.5667L249.966 16.466V9.16602Z" fill="url(#paint7_linear_5971_26183)"/>
<path d="M236.063 4.58398L232.447 5.71959V10.9847L236.063 11.884V4.58398Z" fill="url(#paint8_linear_5971_26183)"/>
<path d="M229.115 2.28497V8.86461L236.064 11.1656V4.58372L243.016 6.8687V13.4644L249.967 15.7654V9.16514L256.916 11.4501V18.0642L263.867 20.3652V13.7466L270.818 16.0315V22.6639V24.2538V114.538L222.164 108.048V8.22225V6.56587V0L229.115 2.28497Z" fill="url(#paint9_linear_5971_26183)"/>
<path d="M211.32 19.3289V21.0197L208.307 21.8043V20.125L205.295 20.9211V22.5889L202.283 23.3735V21.7194L199.271 22.5155V24.1581L196.258 24.9427V23.3116L193.246 24.1077V25.7273L190.234 26.5119V24.906L187.222 25.7021V27.2965L184.21 28.0811V26.4982L181.197 27.2942V28.8634L178.185 29.648V28.0903L175.173 28.8864V72.3583C175.173 73.2943 175.662 74.1179 176.462 74.5309L193.148 83.1225C194.109 83.618 195.334 83.4253 196.21 82.643L213.327 67.3524C213.96 66.7858 214.329 65.9851 214.329 65.173V18.5352L211.317 19.3312L211.32 19.3289Z" fill="url(#paint10_linear_5971_26183)"/>
<path d="M205.733 43.1881L201.014 39.3867L194.854 46.7441L194.331 47.3704L192.319 49.7724L191.289 51.002L183.01 60.8898L185.022 62.5095L185.795 61.5872L188.626 63.8676L190.638 61.4657L187.807 59.1853L188.58 58.263L191.411 60.5434L193.423 58.1414L190.592 55.861L193.304 52.6217L194.334 51.392L196.593 48.6918L197.117 48.0655L199.826 50.2472C201.457 51.5618 204.104 51.0479 205.736 49.0979C207.367 47.1478 207.367 44.5027 205.736 43.1881H205.733ZM203.763 47.5103C203.207 48.1733 202.306 48.3477 201.751 47.9003L199.064 45.7346L199.998 44.6197L201.076 43.3327L203.763 45.4983C204.318 45.9457 204.318 46.845 203.763 47.5103Z" fill="url(#paint11_linear_5971_26183)"/>
<path d="M188.838 52.3838L190.178 50.7848L193.557 46.747L187.648 41.9844L182.928 47.6211C181.297 49.5711 181.297 52.2163 182.928 53.5309C184.56 54.8454 187.207 54.3315 188.838 52.3815V52.3838ZM184.899 49.1674L187.586 45.9579L189.127 47.199L189.598 47.5775L186.911 50.787C186.356 51.4501 185.454 51.6244 184.899 51.1771C184.344 50.7297 184.344 49.8304 184.899 49.1651V49.1674Z" fill="url(#paint12_linear_5971_26183)"/>
<path d="M195.103 52.0114L197.115 49.6094L205.651 56.4872L203.641 58.8892L202.868 58.2675L200.037 61.6491L198.025 60.0294L200.856 56.6478L200.085 56.0238L197.252 59.4077L195.242 57.788L198.073 54.4042L195.103 52.0114Z" fill="url(#paint13_linear_5971_26183)"/>
<mask id="mask1_5971_26183" style="mask-type:luminance" maskUnits="userSpaceOnUse" x="192" y="67" width="148" height="91">
<path d="M339.358 67.7578H192.138V157.971H339.358V67.7578Z" fill="white"/>
</mask>
<g mask="url(#mask1_5971_26183)">
<path d="M221.108 282.749C213.409 282.749 205.905 281.742 198.68 279.735C193.172 278.205 187.861 276.085 182.894 273.435C177.969 270.808 173.341 267.64 169.143 264.017C165.002 260.445 161.242 256.401 157.97 252.001C154.669 247.562 151.836 242.719 149.549 237.607C144.807 227.01 142.402 215.388 142.402 203.064C142.402 190.74 144.816 178.388 149.578 166.424C151.861 160.689 154.685 155.068 157.973 149.714C161.226 144.416 164.961 139.337 169.074 134.613C173.188 129.89 177.714 125.485 182.527 121.521C187.391 117.515 192.589 113.92 197.983 110.839C209.229 104.415 221.184 100.231 233.517 98.4025C245.999 96.5511 258.119 97.2233 269.54 100.398C275.048 101.929 280.359 104.048 285.326 106.698C290.251 109.325 294.879 112.493 299.077 116.116C303.218 119.688 306.978 123.732 310.249 128.132C313.551 132.572 316.384 137.415 318.671 142.526C323.413 153.123 325.818 164.745 325.818 177.069C325.818 189.393 323.404 201.745 318.642 213.709C316.359 219.444 313.535 225.065 310.247 230.42C306.994 235.717 303.259 240.796 299.146 245.52C295.032 250.243 290.506 254.648 285.693 258.612C280.829 262.618 275.631 266.213 270.237 269.294C258.991 275.718 247.036 279.902 234.703 281.731C230.117 282.41 225.579 282.749 221.108 282.749ZM247.105 105.48C243.031 105.48 238.892 105.79 234.703 106.411C188.272 113.296 150.496 156.656 150.496 203.066C150.496 214.244 152.664 224.753 156.938 234.301C158.984 238.876 161.517 243.205 164.468 247.171C167.386 251.097 170.737 254.701 174.431 257.887C178.177 261.12 182.307 263.946 186.705 266.293C191.151 268.663 195.909 270.563 200.848 271.935C211.17 274.805 222.161 275.406 233.515 273.722C279.946 266.837 317.719 223.477 317.719 177.067C317.719 165.89 315.551 155.38 311.277 145.832C309.231 141.257 306.698 136.928 303.748 132.962C300.83 129.036 297.478 125.432 293.784 122.246C290.038 119.013 285.909 116.187 281.511 113.84C277.065 111.47 272.306 109.57 267.367 108.199C260.854 106.388 254.073 105.48 247.103 105.48H247.105Z" fill="url(#paint14_linear_5971_26183)"/>
<path d="M230.679 284.009C222.98 284.009 215.476 283.002 208.252 280.994C202.743 279.464 197.432 277.344 192.465 274.695C187.54 272.068 182.913 268.9 178.714 265.277C174.573 261.705 170.813 257.661 167.542 253.26C164.24 248.821 161.407 243.978 159.12 238.867C154.378 228.27 151.974 216.648 151.974 204.324C151.974 192 154.387 179.648 159.15 167.684C161.432 161.949 164.257 156.328 167.544 150.973C170.797 145.676 174.532 140.597 178.645 135.873C182.759 131.15 187.285 126.745 192.098 122.78C196.962 118.775 202.161 115.18 207.554 112.099C218.8 105.675 230.755 101.491 243.088 99.6623C255.571 97.8109 267.691 98.4831 279.111 101.658C284.619 103.188 289.93 105.308 294.897 107.958C299.823 110.585 304.45 113.753 308.648 117.375C312.789 120.947 316.549 124.992 319.821 129.392C323.122 133.831 325.955 138.674 328.243 143.786C332.985 154.382 335.389 166.005 335.389 178.329C335.389 190.653 332.975 203.005 328.213 214.969C325.93 220.704 323.106 226.325 319.818 231.679C316.565 236.977 312.831 242.056 308.717 246.779C304.604 251.503 300.077 255.908 295.264 259.872C290.401 263.878 285.202 267.473 279.808 270.554C268.563 276.977 256.608 281.162 244.274 282.99C239.688 283.669 235.15 284.009 230.679 284.009ZM256.677 106.74C252.602 106.74 248.463 107.049 244.274 107.671C197.843 114.556 160.067 157.915 160.067 204.326C160.067 215.503 162.235 226.013 166.509 235.561C168.556 240.136 171.089 244.465 174.039 248.431C176.957 252.357 180.309 255.961 184.002 259.147C187.749 262.38 191.878 265.206 196.276 267.553C200.722 269.923 205.48 271.822 210.419 273.194C220.741 276.064 231.732 276.665 243.086 274.982C289.517 268.097 327.291 224.737 327.291 178.327C327.291 167.149 325.123 156.64 320.849 147.092C318.802 142.517 316.269 138.188 313.319 134.221C310.401 130.296 307.049 126.692 303.356 123.505C299.609 120.273 295.48 117.447 291.082 115.1C286.636 112.73 281.878 110.83 276.938 109.458C270.425 107.648 263.644 106.74 256.674 106.74H256.677Z" fill="url(#paint15_linear_5971_26183)"/>
</g>
<path d="M202.241 121.827L229.186 123.491L226.766 119.285L213.629 117.365L202.241 121.827Z" fill="black"/>
<path d="M64.6038 114.145L45.9707 116.849V156.979L64.6038 156.57V114.145Z" fill="url(#paint16_linear_5971_26183)"/>
<path d="M68.7393 102.229L70.8912 102.44V106.353L68.7393 106.576V102.229Z" fill="url(#paint17_linear_5971_26183)"/>
<path d="M77.0137 100.709L79.1656 100.918V104.832L77.0137 105.054V100.709Z" fill="url(#paint18_linear_5971_26183)"/>
<path d="M85.2891 99.1875L87.441 99.3963V103.312L85.2891 103.533V99.1875Z" fill="url(#paint19_linear_5971_26183)"/>
<path d="M101.827 99.0234L99.6748 99.2322V103.148L101.827 103.369V99.0234Z" fill="url(#paint20_linear_5971_26183)"/>
<path d="M101.833 99.0104V102.917L97.6969 102.245V98.3313L93.5605 97.666V101.573V102.559V173.965L105.972 171.125V104.661V103.59V99.6757L101.833 99.0104Z" fill="url(#paint21_linear_5971_26183)"/>
<path d="M89.424 98.4231V102.339L85.2876 103.105V99.187L81.1512 99.9441V103.869L77.0126 104.636V100.708L72.8762 101.465V105.402L68.7399 106.166V102.227L64.6035 102.984V106.932V107.877V176.165L93.5603 169.416V102.559V101.573V97.666L89.424 98.4231Z" fill="url(#paint22_linear_5971_26183)"/>
<mask id="mask2_5971_26183" style="mask-type:luminance" maskUnits="userSpaceOnUse" x="26" y="140" width="38" height="70">
<path d="M26.3511 209.566H63.5508L63.5508 140.327H26.3511L26.3511 209.566Z" fill="white"/>
</mask>
<g mask="url(#mask2_5971_26183)">
<path d="M36.1281 250.685C29.5553 249.71 23.1822 247.48 17.1875 244.055C14.313 242.413 11.5416 240.497 8.94924 238.363C6.38437 236.25 3.97092 233.901 1.78001 231.385C-0.413203 228.868 -2.40224 226.158 -4.13662 223.337C-5.88935 220.483 -7.39431 217.487 -8.61021 214.431C-11.1475 208.055 -12.4346 201.485 -12.4346 194.903C-12.4346 188.335 -11.1521 182.141 -8.62398 176.492C-7.40579 173.767 -5.89394 171.186 -4.13432 168.821C-2.39076 166.476 -0.387968 164.32 1.81901 162.415C4.0581 160.484 6.52432 158.795 9.14883 157.396C11.7963 155.985 14.6273 154.854 17.5615 154.039C23.6479 152.346 30.1082 151.989 36.7613 152.975C43.334 153.95 49.7072 156.18 55.7018 159.605C58.5764 161.248 61.3477 163.163 63.9401 165.297C66.505 167.41 68.9184 169.759 71.1093 172.276C73.3025 174.792 75.2916 177.502 77.026 180.324C78.7787 183.178 80.2837 186.174 81.4996 189.23C84.0369 195.605 85.3239 202.175 85.3239 208.757C85.3239 215.326 84.0415 221.52 81.5133 227.168C80.2951 229.893 78.7833 232.474 77.0237 234.84C75.2801 237.184 73.2773 239.341 71.0703 241.245C68.8312 243.177 66.365 244.865 63.7405 246.264C61.0931 247.675 58.2621 248.806 55.3279 249.621C51.476 250.692 47.4773 251.227 43.373 251.227C40.9894 251.227 38.5713 251.045 36.1281 250.683V250.685ZM18.7154 158.194C16.0818 158.926 13.5467 159.938 11.1769 161.202C8.83223 162.452 6.63214 163.959 4.63394 165.682C2.66555 167.38 0.878404 169.302 -0.677032 171.395C-2.24853 173.51 -3.59978 175.818 -4.68951 178.254C-6.9676 183.345 -8.12156 188.945 -8.12156 194.903C-8.12156 219.639 12.0119 242.75 36.759 246.418C42.8109 247.315 48.6679 246.994 54.1716 245.466C56.8053 244.734 59.3403 243.723 61.7102 242.458C64.0548 241.208 66.2549 239.701 68.2531 237.978C70.2215 236.28 72.0086 234.358 73.5641 232.266C75.1356 230.15 76.4868 227.842 77.5766 225.406C79.8546 220.315 81.0086 214.715 81.0086 208.757C81.0086 184.022 60.8751 160.91 36.1281 157.242C33.8959 156.912 31.6889 156.747 29.5163 156.747C25.8021 156.747 22.1865 157.231 18.7154 158.196V158.194Z" fill="url(#paint23_linear_5971_26183)"/>
<path d="M34.006 253.689C27.4333 252.714 21.0601 250.484 15.0655 247.059C12.1909 245.416 9.41956 243.501 6.82717 241.367C4.2623 239.254 1.84885 236.905 -0.342063 234.388C-2.53527 231.872 -4.52431 229.162 -6.25869 226.341C-8.01142 223.487 -9.51638 220.491 -10.7323 217.435C-13.2696 211.059 -14.5566 204.489 -14.5566 197.907C-14.5566 191.339 -13.2742 185.144 -10.7461 179.496C-9.52786 176.771 -8.01601 174.19 -6.25639 171.825C-4.51284 169.48 -2.51004 167.323 -0.303062 165.419C1.93603 163.488 4.40225 161.799 7.02676 160.4C9.67421 158.989 12.5052 157.858 15.4394 157.043C21.5258 155.35 27.9861 154.992 34.6392 155.979C41.2119 156.954 47.5851 159.184 53.5797 162.609C56.4543 164.252 59.2256 166.167 61.818 168.301C64.3829 170.414 66.7963 172.763 68.9873 175.28C71.1805 177.796 73.1695 180.506 74.9039 183.328C76.6566 186.181 78.1616 189.178 79.3775 192.233C81.9148 198.609 83.2018 205.179 83.2018 211.761C83.2018 218.329 81.9194 224.524 79.3913 230.172C78.1731 232.897 76.6612 235.478 74.9016 237.843C73.158 240.188 71.1552 242.345 68.9483 244.249C66.7092 246.18 64.243 247.869 61.6184 249.268C58.971 250.679 56.14 251.81 53.2058 252.625C49.3539 253.696 45.3552 254.231 41.2509 254.231C38.8673 254.231 36.4493 254.049 34.006 253.687V253.689ZM16.5934 161.198C13.9597 161.93 11.4247 162.942 9.05479 164.206C6.71016 165.456 4.51007 166.963 2.51187 168.686C0.543481 170.384 -1.24367 172.306 -2.7991 174.399C-4.3706 176.514 -5.72185 178.822 -6.81158 181.258C-9.08967 186.349 -10.2436 191.949 -10.2436 197.907C-10.2436 222.642 9.88986 245.754 34.6369 249.422C40.6889 250.319 46.5459 249.998 52.0495 248.47C54.6832 247.738 57.2183 246.726 59.5881 245.462C61.9327 244.212 64.1328 242.705 66.131 240.982C68.0994 239.284 69.8866 237.362 71.442 235.269C73.0135 233.154 74.3648 230.846 75.4545 228.41C77.7326 223.319 78.8865 217.719 78.8865 211.761C78.8865 187.026 58.753 163.914 34.006 160.246C31.7738 159.916 29.5668 159.75 27.3943 159.75C23.68 159.75 20.0644 160.235 16.5934 161.2V161.198Z" fill="url(#paint24_linear_5971_26183)"/>
</g>
<path d="M125.673 114.145L134.489 113V166.516L125.673 165.231V114.145Z" fill="#401695"/>
<path d="M132.016 76.4512C131.977 82.1338 128.889 87.4333 125.083 88.3188C121.252 89.209 118.148 85.2928 118.148 79.5689C118.148 79.484 118.15 79.3992 118.152 79.312L111.763 78.1695L108.482 81.5671V85.8778L111.859 87.1396V99.6565L138.306 107.388V79.9704L132.016 76.4512Z" fill="url(#paint25_linear_5971_26183)"/>
<path d="M130.317 74.3438L142.974 76.3397V200.079L130.317 201.197V74.3438Z" fill="url(#paint26_linear_5971_26183)"/>
<path d="M130.317 99.4918L134.057 100.318V94.3116L130.317 93.7266V99.4918Z" fill="black"/>
<path d="M124.526 75.5367C124.489 80.7674 121.647 85.647 118.143 86.4615C114.617 87.2828 111.759 83.6764 111.759 78.4067C111.759 78.3287 111.761 78.2507 111.763 78.1704L105.971 79.3657V194.078L130.314 201.194V74.3438L124.524 75.539L124.526 75.5367Z" fill="url(#paint27_linear_5971_26183)"/>
<g opacity="0.7">
<path d="M130.29 93.7148L117.714 95.4217C117.159 95.4974 116.709 96.009 116.709 96.5642V100.324C116.709 100.879 117.159 101.269 117.714 101.194L130.29 99.4869V93.7148Z" fill="black"/>
</g>
<path d="M117.45 108.398C114.24 109.171 111.829 112.181 111.829 115.413V147.052L124.621 145.533V113.895C124.621 110.054 121.26 107.478 117.45 108.398Z" fill="black"/>
<path d="M134.056 118.036L161.095 119.917L155.228 113.502L142.399 110.662L134.056 118.036Z" fill="black"/>
<path d="M168.274 86.45L180.92 84.3164V173.339L168.274 171.019V88.2876V86.45Z" fill="url(#paint28_linear_5971_26183)"/>
<path d="M168.274 47.1744L156.232 44.9766V73.0776L168.274 71.3066V47.1744Z" fill="url(#paint29_linear_5971_26183)"/>
<path d="M156.233 44.9766L134.056 51.2075V118.036L155.316 116.483L156.233 73.0776V44.9766Z" fill="url(#paint30_linear_5971_26183)"/>
<path opacity="0.7" d="M144.691 91.777L134.056 93.165V98.9921L144.691 97.5491C145.247 97.4734 145.696 96.9618 145.696 96.4066V92.6465C145.696 92.0913 145.247 91.7013 144.691 91.777Z" fill="black"/>
<path d="M77.7988 174.781V169.08H86.7185V174.944L77.7988 174.781Z" fill="#401695"/>
<path d="M25.2609 121.959C10.7619 124.051 0 136.476 0 151.127V191.089L25.2609 194.461V121.959Z" fill="url(#paint31_linear_5971_26183)"/>
<path d="M25.2607 121.959L41.6525 124.388V194.461H25.2607V121.959Z" fill="url(#paint32_linear_5971_26183)"/>
<path d="M111.834 128.35V125.338L110.772 125.244L18.2627 201.75L19.2905 205.441L21.7452 205.482L111.834 128.35Z" fill="url(#paint33_linear_5971_26183)"/>
<path d="M110.723 125.244L108.085 125.329C106.525 125.49 105.803 125.951 104.889 126.758L16.0621 200.564C15.3234 201.176 14.8944 202.085 14.8852 203.043L14.8691 204.794L19.29 205.441V203.67C19.29 202.644 19.7442 201.672 20.5288 201.013L110.723 125.244Z" fill="url(#paint34_linear_5971_26183)"/>
<path d="M117.53 127.129L111.833 127.7L21.4414 205.444L31.616 206.743L117.53 127.129Z" fill="url(#paint35_linear_5971_26183)"/>
<path d="M215.529 126.078L202.241 127.239V138.545L215.529 143.752V126.078Z" fill="url(#paint36_linear_5971_26183)"/>
<path d="M180.918 146.69V84.3164L195.763 86.645V149.764L215.528 151.049V150.553L180.918 146.69Z" fill="url(#paint37_linear_5971_26183)"/>
<path d="M215.531 126.029V141.139H239.904V127.264L215.531 126.029Z" fill="url(#paint38_linear_5971_26183)"/>
<path d="M25.749 110.189L33.0788 108.766V97.082L25.749 99.1055V110.189Z" fill="url(#paint39_linear_5971_26183)"/>
<path d="M33.0801 108.766L41.6832 110.101V98.7728L33.0801 97.082V108.766Z" fill="url(#paint40_linear_5971_26183)"/>
<path d="M275.978 104.895V84.7344L263.333 87.3176V93.6173C263.333 100.399 269.24 105.669 275.978 104.893V104.895Z" fill="url(#paint41_linear_5971_26183)"/>
<path d="M275.979 104.897L290.824 107.024V87.9386L275.979 84.7383V104.897Z" fill="url(#paint42_linear_5971_26183)"/>
<path d="M239.904 94.5211L215.531 91.1602V120.668L239.904 122.244V94.5211Z" fill="url(#paint43_linear_5971_26183)"/>
<path d="M231.436 119.285L233.37 119.661V123.181L231.436 123.19V119.285Z" fill="url(#paint44_linear_5971_26183)"/>
<path d="M238.869 118.646L240.803 119.023V122.542L238.869 122.551V118.646Z" fill="url(#paint45_linear_5971_26183)"/>
<path d="M246.309 118.006L248.24 118.382V121.901L246.309 121.911V118.006Z" fill="url(#paint46_linear_5971_26183)"/>
<path d="M250.025 117.682V121.201L246.308 121.527V118.005L242.589 118.322V121.85L238.871 122.176V118.645L235.154 118.962V122.5L231.435 122.825V119.285L227.719 119.602V123.149V124V185.373L253.744 181.847V121.763V120.875V117.365L250.025 117.682Z" fill="url(#paint47_linear_5971_26183)"/>
<path d="M276.047 119.949L274.113 120.268V123.787L276.047 123.854V119.949Z" fill="url(#paint48_linear_5971_26183)"/>
<path d="M268.613 119.088L266.679 119.409V122.926L268.613 122.995V119.088Z" fill="url(#paint49_linear_5971_26183)"/>
<path d="M261.176 118.227L259.242 118.545V122.065L261.176 122.131V118.227Z" fill="url(#paint50_linear_5971_26183)"/>
<path d="M257.458 117.794V121.313L261.177 121.749V118.227L264.893 118.654V122.183L268.612 122.618V119.088L272.328 119.517V123.054L276.047 123.49V119.95L279.766 120.377V123.924V124.775V163.464L253.741 162.702V121.765V120.877V117.367L257.458 117.794Z" fill="url(#paint51_linear_5971_26183)"/>
<path d="M202.241 93.2983V121.828L215.529 120.668V91.1602L202.241 93.2983Z" fill="url(#paint52_linear_5971_26183)"/>
<path d="M228.511 117.072C232.591 116.808 235.617 112.232 235.269 106.851C234.921 101.469 231.331 97.3209 227.251 97.5848C223.171 97.8486 220.145 102.425 220.493 107.806C220.841 113.187 224.431 117.336 228.511 117.072Z" fill="#191919"/>
<path d="M235.288 107.329C235.139 101.942 231.702 97.5742 227.612 97.5742C225.88 97.5742 224.306 98.3588 223.081 99.6711C223.285 99.6458 223.492 99.6321 223.703 99.6321C227.415 99.6321 230.532 103.594 230.668 108.481C230.773 112.328 228.998 115.602 226.428 116.82C226.983 116.992 227.559 117.084 228.151 117.084C232.244 117.084 235.44 112.716 235.293 107.329H235.288Z" fill="url(#paint53_linear_5971_26183)"/>
<path d="M130.502 123.166L127.214 122.854L34.7803 204.399V208.001L130.499 202.401L130.502 123.166Z" fill="url(#paint54_linear_5971_26183)"/>
<path d="M115.553 162.574H106.227C95.4516 162.574 86.7178 171.308 86.7178 182.084V217.301L115.553 222.442V162.574Z" fill="url(#paint55_linear_5971_26183)"/>
<path d="M100.388 212.023V187.838C100.388 184.78 101.244 181.949 102.762 180.148C102.031 179.597 101.234 179.244 100.388 179.127C96.1874 178.655 93.5605 183.261 93.5605 188.556V211.498L100.388 212.023Z" fill="url(#paint56_linear_5971_26183)"/>
<path d="M107.215 213.198V192.509C107.215 186.847 105.437 182.167 102.764 180.15C101.245 181.951 100.39 184.782 100.39 187.84V212.025L107.217 213.198H107.215Z" fill="#191919"/>
<path d="M107.215 210.923L100.179 210.207L93.5605 210.673V211.414L107.215 213.114V210.923Z" fill="url(#paint57_linear_5971_26183)"/>
<path d="M168.274 104.415V157.075L151.536 158.358V80.0997C151.536 75.1856 154.975 70.9437 159.784 69.9297L168.274 104.415Z" fill="url(#paint58_linear_5971_26183)"/>
<path d="M168.276 71.3062L159.785 69.9297V105.395L168.276 104.415V71.3062Z" fill="url(#paint59_linear_5971_26183)"/>
<path d="M220.475 133.984V215.631L256.947 210.586L253.556 195.013L253.74 135.726L220.475 133.984Z" fill="url(#paint60_linear_5971_26183)"/>
<path d="M202.15 230.752V242.741L265.013 252.292V221.589L250.075 220.123V203.445L236.331 202.529V141.867C230.07 142.175 225.152 147.341 225.152 153.611V233.413L202.15 230.756V230.752Z" fill="url(#paint61_linear_5971_26183)"/>
<path d="M265.012 252.387L283.064 248.262V218.844L265.012 221.684V252.387Z" fill="url(#paint62_linear_5971_26183)"/>
<path d="M283.065 218.845L268.678 217.561L250.075 220.219L265.012 221.685L283.065 218.845Z" fill="url(#paint63_linear_5971_26183)"/>
<path d="M202.15 230.62L223.043 227.502L225.152 227.747V233.646L202.15 230.62Z" fill="#4CAC98"/>
<path d="M268.678 217.471V201.639L250.075 203.451V220.13L268.678 217.471Z" fill="url(#paint64_linear_5971_26183)"/>
<path d="M257.344 200.534V143.026L236.329 141.865V202.24L257.344 200.534Z" fill="url(#paint65_linear_5971_26183)"/>
<path d="M189.045 131.326L215.529 133.737L205.377 212.654L189.045 214.579V131.326Z" fill="url(#paint66_linear_5971_26183)"/>
<path d="M220.475 215.631L205.375 213.686V150.046C205.375 141.544 211.989 134.508 220.475 133.982V215.629V215.631Z" fill="url(#paint67_linear_5971_26183)"/>
<path d="M153.554 153.045L134.056 153.35V182.49L153.554 172.655V153.045Z" fill="url(#paint68_linear_5971_26183)"/>
<path d="M115.552 162.574H146.404V218.859L115.552 222.442V162.574Z" fill="url(#paint69_linear_5971_26183)"/>
<path d="M153.552 153.045H171.267V194.099L153.917 195.886L153.552 172.655V153.045Z" fill="url(#paint70_linear_5971_26183)"/>
<path d="M146.404 169.781H160.64V206.623L146.404 207.841V169.781Z" fill="url(#paint71_linear_5971_26183)"/>
<path d="M171.269 132.457L189.046 131.326V214.576C178.853 213.149 171.269 204.429 171.269 194.138V132.457Z" fill="url(#paint72_linear_5971_26183)"/>
<path d="M293.128 216.617V147.02L272.887 147.568V214.617L293.128 216.617Z" fill="url(#paint73_linear_5971_26183)"/>
<path d="M250.664 160.738L248.991 156.076C249.985 155.395 250.643 154.152 250.643 152.711C250.643 150.474 249.056 148.604 247.099 148.533C245.142 148.464 243.554 150.219 243.554 152.459C243.554 153.899 244.213 155.189 245.206 155.941L243.536 160.474C243.316 161.073 243.745 161.713 244.382 161.734L249.794 161.926C250.423 161.949 250.877 161.328 250.664 160.736V160.738Z" fill="url(#paint74_linear_5971_26183)"/>
<path d="M247.328 161.843L245.259 156.08C246.252 155.398 246.911 154.155 246.911 152.714C246.911 151.274 246.197 149.881 245.137 149.145C244.183 149.837 243.555 151.053 243.555 152.462C243.555 153.87 244.213 155.192 245.206 155.944L243.522 160.514C243.309 161.095 243.724 161.716 244.344 161.737L247.326 161.843H247.328Z" fill="#191919"/>
<path d="M257.344 200.532L236.329 202.239V167.52L257.344 167.889V200.532Z" fill="url(#paint75_linear_5971_26183)"/>
<path d="M268.677 201.64L257.344 200.541L236.329 202.248L250.073 203.452L268.677 201.64Z" fill="url(#paint76_linear_5971_26183)"/>
<path d="M225.149 201.28L236.329 202.526V167.52H225.149V201.28Z" fill="url(#paint77_linear_5971_26183)"/>
<path d="M225.241 217.394L250.073 220.076V203.397L225.149 201.236L225.241 217.394Z" fill="url(#paint78_linear_5971_26183)"/>
<path d="M225.149 246.245L265.01 252.261V221.558L225.149 217.686V246.245Z" fill="url(#paint79_linear_5971_26183)"/>
<path d="M123.67 123.232C122.365 123.356 121.247 123.684 120.323 124.5L31.0642 202.447C30.1419 203.252 29.6143 204.415 29.6143 205.638V207.333L34.7784 208.003V206.358C34.7784 205.115 35.3129 203.929 36.2467 203.105L127.212 122.855L123.67 123.234V123.232Z" fill="url(#paint80_linear_5971_26183)"/>
<path d="M251.162 70.423L263.807 67.4888V47.3301L251.162 51.3013V70.423Z" fill="url(#paint81_linear_5971_26183)"/>
<path d="M263.809 67.4891L278.654 70.9097V66.7435C278.654 57.6633 272.572 49.7095 263.809 47.3281V67.4891Z" fill="url(#paint82_linear_5971_26183)"/>
<path d="M251.162 70.4245L264.342 74.2672L278.653 70.9131L263.807 67.4902L251.162 70.4245Z" fill="black"/>
<path d="M202.15 242.608L225.152 246.143V233.647L202.15 230.621V242.608Z" fill="url(#paint83_linear_5971_26183)"/>
<path d="M142.697 95.7346L115.72 99.3961C115.164 99.4718 114.715 99.0818 114.715 98.5266V94.7665C114.715 94.2113 115.164 93.6997 115.72 93.624L142.697 89.9625C143.252 89.8868 143.701 90.2768 143.701 90.832V94.5921C143.701 95.1473 143.252 95.6589 142.697 95.7346Z" fill="url(#paint84_linear_5971_26183)"/>
<path d="M142.697 89.9625L115.72 93.624C115.164 93.6997 114.715 94.2113 114.715 94.7665V95.7163C114.715 96.2714 115.164 96.6615 115.72 96.5857L142.697 92.9243C143.252 92.8486 143.701 92.337 143.701 91.7818V90.832C143.701 90.2768 143.252 89.8868 142.697 89.9625Z" fill="#EBE6DC"/>
<path d="M119.03 95.97L118.413 96.2729L118.835 96.6812L118.438 97.0735L118.037 96.5665L117.64 97.1768L117.243 96.8923L117.672 96.3669L117.055 96.2247L117.263 95.7245L117.805 95.9287L117.784 95.3208L118.294 95.252L118.273 95.8714L118.814 95.5204L119.028 95.9677L119.03 95.97Z" fill="#401695"/>
<path d="M122.211 95.5384L121.593 95.8412L122.016 96.2496L121.619 96.6419L121.217 96.1349L120.82 96.7451L120.423 96.4606L120.852 95.9353L120.235 95.793L120.444 95.2929L120.986 95.4971L120.965 94.8891L121.474 94.8203L121.454 95.4397L121.995 95.0887L122.208 95.5361L122.211 95.5384Z" fill="#401695"/>
<path d="M125.393 95.1048L124.776 95.4076L125.198 95.816L124.801 96.2083L124.4 95.7013L124.003 96.3115L123.606 96.027L124.035 95.5017L123.418 95.3594L123.627 94.8593L124.168 95.0635L124.148 94.4555L124.657 94.3867L124.636 95.0061L125.178 94.6551L125.391 95.1025L125.393 95.1048Z" fill="#401695"/>
<path d="M128.575 94.6731L127.958 94.976L128.38 95.3843L127.983 95.7766L127.581 95.2696L127.185 95.8799L126.788 95.5954L127.217 95.07L126.6 94.9278L126.808 94.4277L127.35 94.6319L127.329 94.0239L127.838 93.9551L127.818 94.5745L128.359 94.2235L128.573 94.6709L128.575 94.6731Z" fill="#401695"/>
<path d="M131.758 94.2435L131.141 94.5463L131.563 94.9547L131.167 95.3469L130.765 94.84L130.368 95.4502L129.971 95.1657L130.4 94.6404L129.783 94.4981L129.992 93.998L130.533 94.2022L130.513 93.5942L131.022 93.5254L131.001 94.1448L131.543 93.7938L131.756 94.2412L131.758 94.2435Z" fill="#401695"/>
<path d="M134.94 93.8118L134.323 94.1147L134.745 94.523L134.348 94.9153L133.947 94.4083L133.55 95.0185L133.153 94.7341L133.582 94.2087L132.965 94.0665L133.174 93.5664L133.715 93.7705L133.694 93.1626L134.204 93.0938L134.183 93.7132L134.724 93.3622L134.938 93.8095L134.94 93.8118Z" fill="#401695"/>
<path d="M138.125 93.3782L137.508 93.6811L137.93 94.0894L137.533 94.4817L137.131 93.9747L136.734 94.5849L136.338 94.3005L136.767 93.7751L136.149 93.6329L136.358 93.1328L136.9 93.3369L136.879 92.729L137.388 92.6602L137.368 93.2796L137.909 92.9286L138.122 93.3759L138.125 93.3782Z" fill="#401695"/>
<path d="M141.304 92.9466L140.687 93.2494L141.109 93.6578L140.712 94.0501L140.311 93.5431L139.914 94.1533L139.517 93.8688L139.946 93.3435L139.329 93.2012L139.538 92.7011L140.079 92.9053L140.059 92.2973L140.568 92.2285L140.547 92.8479L141.089 92.4969L141.302 92.9443L141.304 92.9466Z" fill="#401695"/>
<path opacity="0.7" d="M264.389 129.503L280.007 131.001V135.947L264.389 134.403C263.918 134.352 263.535 133.93 263.535 133.458V130.267C263.535 129.796 263.918 129.454 264.389 129.503Z" fill="black"/>
<path d="M266.081 132.81L288.977 134.851C289.447 134.902 289.83 134.56 289.83 134.087V131.289C289.83 130.818 289.447 130.394 288.977 130.343L266.081 127.909C265.611 127.859 265.228 128.201 265.228 128.673V131.864C265.228 132.335 265.611 132.759 266.081 132.81Z" fill="url(#paint85_linear_5971_26183)"/>
<path d="M266.081 127.913L288.977 130.347C289.447 130.397 289.83 130.819 289.83 131.292V132.1C289.83 132.57 289.447 132.912 288.977 132.864L266.081 130.429C265.611 130.379 265.228 129.957 265.228 129.484V128.677C265.228 128.206 265.611 127.865 266.081 127.913Z" fill="#EBE6DC"/>
<path d="M283.65 131.749L284.109 132.033L284.09 131.508L284.521 131.554L284.503 132.07L284.962 131.882L285.139 132.302L284.616 132.437L284.98 132.871L284.643 133.121L284.306 132.611L283.964 133.052L283.627 132.731L283.987 132.373L283.464 132.132L283.645 131.746L283.65 131.749Z" fill="#401695"/>
<path d="M280.948 131.462L281.406 131.746L281.388 131.221L281.819 131.267L281.801 131.783L282.26 131.595L282.436 132.014L281.913 132.15L282.278 132.583L281.941 132.834L281.604 132.324L281.262 132.765L280.925 132.443L281.285 132.086L280.762 131.845L280.943 131.459L280.948 131.462Z" fill="#401695"/>
<path d="M278.247 131.176L278.706 131.461L278.688 130.936L279.119 130.981L279.101 131.498L279.56 131.309L279.736 131.729L279.213 131.865L279.578 132.298L279.241 132.548L278.903 132.039L278.562 132.48L278.224 132.158L278.585 131.8L278.062 131.56L278.243 131.174L278.247 131.176Z" fill="#401695"/>
<path d="M275.549 130.889L276.008 131.174L275.99 130.648L276.421 130.694L276.403 131.211L276.861 131.022L277.038 131.442L276.515 131.578L276.88 132.011L276.542 132.261L276.205 131.752L275.863 132.192L275.526 131.871L275.886 131.513L275.363 131.272L275.545 130.887L275.549 130.889Z" fill="#401695"/>
<path d="M272.844 130.598L273.303 130.883L273.285 130.357L273.716 130.403L273.697 130.919L274.156 130.731L274.333 131.151L273.81 131.287L274.175 131.72L273.837 131.97L273.5 131.461L273.158 131.901L272.821 131.58L273.181 131.222L272.658 130.981L272.839 130.596L272.844 130.598Z" fill="#401695"/>
<path d="M270.146 130.311L270.605 130.596L270.586 130.07L271.018 130.116L270.999 130.632L271.458 130.444L271.635 130.864L271.112 130.999L271.476 131.433L271.139 131.683L270.802 131.174L270.46 131.614L270.123 131.293L270.483 130.935L269.96 130.694L270.141 130.309L270.146 130.311Z" fill="#401695"/>
<path d="M267.445 130.026L267.903 130.311L267.885 129.785L268.316 129.831L268.298 130.347L268.757 130.159L268.934 130.579L268.41 130.714L268.775 131.148L268.438 131.398L268.101 130.889L267.759 131.329L267.422 131.008L267.782 130.65L267.259 130.409L267.44 130.024L267.445 130.026Z" fill="#401695"/>
<path d="M84.6135 132.533L82.223 126.286C82.1244 126.031 82.1909 125.742 82.3882 125.552C83.494 124.492 84.1891 123.007 84.1891 121.404C84.1891 118.403 81.7573 116.118 78.7565 116.297C75.7558 116.476 73.324 119.055 73.324 122.055C73.324 123.815 74.1613 125.327 75.4575 126.242L72.9432 133.113C72.6472 133.921 73.2781 134.767 74.1361 134.717L83.5697 134.15C84.3749 134.102 84.9026 133.285 84.6135 132.53V132.533Z" fill="black"/>
<path d="M76.8046 133.117L78.9037 127.379C79.1308 126.76 79.0024 126.058 78.5527 125.579C77.7016 124.67 77.1854 123.44 77.1854 122.059C77.1854 119.627 78.7844 117.471 80.9891 116.647C80.3077 116.381 79.553 116.253 78.7546 116.301C75.7538 116.48 73.322 119.059 73.322 122.059C73.322 123.624 73.985 124.994 75.0426 125.923C75.2881 126.136 75.3684 126.482 75.2583 126.788L72.9412 133.119C72.6453 133.927 73.2762 134.773 74.1342 134.723L77.2772 134.535C76.8344 134.246 76.6004 133.675 76.8046 133.119V133.117Z" fill="url(#paint86_linear_5971_26183)"/>
<defs>
<linearGradient id="paint0_linear_5971_26183" x1="167.317" y1="70.2222" x2="147.523" y2="110.299" gradientUnits="userSpaceOnUse">
<stop stop-color="#3F59D9"/>
<stop offset="1" stop-color="#401695"/>
</linearGradient>
<linearGradient id="paint1_linear_5971_26183" x1="147.564" y1="63.4222" x2="141.455" y2="117.915" gradientUnits="userSpaceOnUse">
<stop offset="0.07" stop-color="#A6D9D3"/>
<stop offset="0.22" stop-color="#4CAC98"/>
<stop offset="0.37" stop-color="#478CB0"/>
<stop offset="0.65" stop-color="#3F59D9"/>
</linearGradient>
<linearGradient id="paint2_linear_5971_26183" x1="175.672" y1="6.82555" x2="175.482" y2="20.1675" gradientUnits="userSpaceOnUse">
<stop stop-color="#3F59D9"/>
<stop offset="1" stop-color="#401695"/>
</linearGradient>
<linearGradient id="paint3_linear_5971_26183" x1="189.873" y1="1.93621" x2="191.219" y2="16.7553" gradientUnits="userSpaceOnUse">
<stop stop-color="#3F59D9"/>
<stop offset="1" stop-color="#401695"/>
</linearGradient>
<linearGradient id="paint4_linear_5971_26183" x1="205.598" y1="-0.214424" x2="206.293" y2="10.2537" gradientUnits="userSpaceOnUse">
<stop stop-color="#3F59D9"/>
<stop offset="1" stop-color="#401695"/>
</linearGradient>
<linearGradient id="paint5_linear_5971_26183" x1="209.155" y1="4.61125" x2="153.655" y2="231.278" gradientUnits="userSpaceOnUse">
<stop offset="0.07" stop-color="#A6D9D3"/>
<stop offset="0.22" stop-color="#4CAC98"/>
<stop offset="0.37" stop-color="#478CB0"/>
<stop offset="0.65" stop-color="#3F59D9"/>
</linearGradient>
<linearGradient id="paint6_linear_5971_26183" x1="262.059" y1="2.25009" x2="262.059" y2="53.0082" gradientUnits="userSpaceOnUse">
<stop offset="0.07" stop-color="#A6D9D3"/>
<stop offset="0.22" stop-color="#4CAC98"/>
<stop offset="0.37" stop-color="#478CB0"/>
<stop offset="0.65" stop-color="#3F59D9"/>
</linearGradient>
<linearGradient id="paint7_linear_5971_26183" x1="248.158" y1="2.25144" x2="248.158" y2="53.0096" gradientUnits="userSpaceOnUse">
<stop offset="0.07" stop-color="#A6D9D3"/>
<stop offset="0.22" stop-color="#4CAC98"/>
<stop offset="0.37" stop-color="#478CB0"/>
<stop offset="0.65" stop-color="#3F59D9"/>
</linearGradient>
<linearGradient id="paint8_linear_5971_26183" x1="234.255" y1="2.25083" x2="234.255" y2="53.009" gradientUnits="userSpaceOnUse">
<stop offset="0.07" stop-color="#A6D9D3"/>
<stop offset="0.22" stop-color="#4CAC98"/>
<stop offset="0.37" stop-color="#478CB0"/>
<stop offset="0.65" stop-color="#3F59D9"/>
</linearGradient>
<linearGradient id="paint9_linear_5971_26183" x1="254.418" y1="-8.13632" x2="186.939" y2="74.8232" gradientUnits="userSpaceOnUse">
<stop stop-color="#3F59D9"/>
<stop offset="1" stop-color="#401695"/>
</linearGradient>
<linearGradient id="paint10_linear_5971_26183" x1="192.187" y1="114.015" x2="213.585" y2="19.7203" gradientUnits="userSpaceOnUse">
<stop offset="0.44"/>
<stop offset="0.94" stop-color="#401695"/>
</linearGradient>
<linearGradient id="paint11_linear_5971_26183" x1="206.529" y1="41.1027" x2="185.836" y2="61.796" gradientUnits="userSpaceOnUse">
<stop offset="0.07" stop-color="#A6D9D3"/>
<stop offset="0.22" stop-color="#4CAC98"/>
<stop offset="0.37" stop-color="#478CB0"/>
<stop offset="0.65" stop-color="#3F59D9"/>
</linearGradient>
<linearGradient id="paint12_linear_5971_26183" x1="204.677" y1="30.7637" x2="186.675" y2="48.7659" gradientUnits="userSpaceOnUse">
<stop offset="0.15" stop-color="#3F59D9"/>
<stop offset="0.54" stop-color="#4CAC98"/>
<stop offset="1" stop-color="#3F59D9"/>
</linearGradient>
<linearGradient id="paint13_linear_5971_26183" x1="214.27" y1="40.3571" x2="196.268" y2="58.3593" gradientUnits="userSpaceOnUse">
<stop offset="0.15" stop-color="#3F59D9"/>
<stop offset="0.54" stop-color="#4CAC98"/>
<stop offset="1" stop-color="#3F59D9"/>
</linearGradient>
<linearGradient id="paint14_linear_5971_26183" x1="249.695" y1="83.4217" x2="237.231" y2="168.702" gradientUnits="userSpaceOnUse">
<stop offset="0.07" stop-color="#A6D9D3"/>
<stop offset="0.22" stop-color="#4CAC98"/>
<stop offset="0.37" stop-color="#478CB0"/>
<stop offset="0.65" stop-color="#3F59D9"/>
</linearGradient>
<linearGradient id="paint15_linear_5971_26183" x1="151.974" y1="191.327" x2="335.387" y2="191.327" gradientUnits="userSpaceOnUse">
<stop stop-color="#3F59D9"/>
<stop offset="1" stop-color="#401695"/>
</linearGradient>
<linearGradient id="paint16_linear_5971_26183" x1="55.2873" y1="164.545" x2="55.2873" y2="116.895" gradientUnits="userSpaceOnUse">
<stop/>
<stop offset="1" stop-color="#401695"/>
</linearGradient>
<linearGradient id="paint17_linear_5971_26183" x1="70.4048" y1="98.9502" x2="69.6317" y2="105.957" gradientUnits="userSpaceOnUse">
<stop stop-color="#3F59D9"/>
<stop offset="1" stop-color="#401695"/>
</linearGradient>
<linearGradient id="paint18_linear_5971_26183" x1="78.1195" y1="97.0957" x2="78.0782" y2="104.955" gradientUnits="userSpaceOnUse">
<stop stop-color="#3F59D9"/>
<stop offset="1" stop-color="#401695"/>
</linearGradient>
<linearGradient id="paint19_linear_5971_26183" x1="86.4958" y1="96.7603" x2="86.3329" y2="102.301" gradientUnits="userSpaceOnUse">
<stop stop-color="#3F59D9"/>
<stop offset="1" stop-color="#401695"/>
</linearGradient>
<linearGradient id="paint20_linear_5971_26183" x1="100.751" y1="97.273" x2="100.751" y2="110.705" gradientUnits="userSpaceOnUse">
<stop offset="0.07" stop-color="#A6D9D3"/>
<stop offset="0.22" stop-color="#4CAC98"/>
<stop offset="0.37" stop-color="#478CB0"/>
<stop offset="0.65" stop-color="#3F59D9"/>
</linearGradient>
<linearGradient id="paint21_linear_5971_26183" x1="99.7662" y1="91.4167" x2="99.7662" y2="134.987" gradientUnits="userSpaceOnUse">
<stop stop-color="#3F59D9"/>
<stop offset="1" stop-color="#401695"/>
</linearGradient>
<linearGradient id="paint22_linear_5971_26183" x1="90.6422" y1="104.633" x2="58.0216" y2="193.704" gradientUnits="userSpaceOnUse">
<stop offset="0.07" stop-color="#A6D9D3"/>
<stop offset="0.22" stop-color="#4CAC98"/>
<stop offset="0.37" stop-color="#478CB0"/>
<stop offset="0.65" stop-color="#3F59D9"/>
</linearGradient>
<linearGradient id="paint23_linear_5971_26183" x1="60.8591" y1="158.068" x2="43.685" y2="188.853" gradientUnits="userSpaceOnUse">
<stop offset="0.07" stop-color="#A6D9D3"/>
<stop offset="0.22" stop-color="#4CAC98"/>
<stop offset="0.37" stop-color="#478CB0"/>
<stop offset="0.65" stop-color="#3F59D9"/>
</linearGradient>
<linearGradient id="paint24_linear_5971_26183" x1="44.0773" y1="145.807" x2="39.1151" y2="175.83" gradientUnits="userSpaceOnUse">
<stop offset="0.07" stop-color="#A6D9D3"/>
<stop offset="0.22" stop-color="#4CAC98"/>
<stop offset="0.37" stop-color="#478CB0"/>
<stop offset="0.65" stop-color="#3F59D9"/>
</linearGradient>
<linearGradient id="paint25_linear_5971_26183" x1="123.394" y1="78.4035" x2="123.394" y2="87.0433" gradientUnits="userSpaceOnUse">
<stop stop-color="#3F59D9"/>
<stop offset="1" stop-color="#401695"/>
</linearGradient>
<linearGradient id="paint26_linear_5971_26183" x1="136.645" y1="176.759" x2="136.645" y2="87.7072" gradientUnits="userSpaceOnUse">
<stop/>
<stop offset="1" stop-color="#401695"/>
</linearGradient>
<linearGradient id="paint27_linear_5971_26183" x1="142.941" y1="79.4941" x2="111.541" y2="156.468" gradientUnits="userSpaceOnUse">
<stop offset="0.07" stop-color="#A6D9D3"/>
<stop offset="0.22" stop-color="#4CAC98"/>
<stop offset="0.37" stop-color="#478CB0"/>
<stop offset="0.65" stop-color="#3F59D9"/>
</linearGradient>
<linearGradient id="paint28_linear_5971_26183" x1="195.708" y1="79.9346" x2="99.6586" y2="307.253" gradientUnits="userSpaceOnUse">
<stop offset="0.07" stop-color="#A6D9D3"/>
<stop offset="0.22" stop-color="#4CAC98"/>
<stop offset="0.37" stop-color="#478CB0"/>
<stop offset="0.65" stop-color="#3F59D9"/>
</linearGradient>
<linearGradient id="paint29_linear_5971_26183" x1="162.252" y1="46.7614" x2="162.252" y2="68.7555" gradientUnits="userSpaceOnUse">
<stop stop-color="#3F59D9"/>
<stop offset="1" stop-color="#401695"/>
</linearGradient>
<linearGradient id="paint30_linear_5971_26183" x1="145.143" y1="43.3729" x2="145.143" y2="116.173" gradientUnits="userSpaceOnUse">
<stop offset="0.07" stop-color="#A6D9D3"/>
<stop offset="0.22" stop-color="#4CAC98"/>
<stop offset="0.37" stop-color="#478CB0"/>
<stop offset="0.65" stop-color="#3F59D9"/>
</linearGradient>
<linearGradient id="paint31_linear_5971_26183" x1="19.4361" y1="104.946" x2="9.05044" y2="207.334" gradientUnits="userSpaceOnUse">
<stop offset="0.07" stop-color="#A6D9D3"/>
<stop offset="0.22" stop-color="#4CAC98"/>
<stop offset="0.37" stop-color="#478CB0"/>
<stop offset="0.65" stop-color="#3F59D9"/>
</linearGradient>
<linearGradient id="paint32_linear_5971_26183" x1="33.4555" y1="89.8913" x2="33.4555" y2="173.24" gradientUnits="userSpaceOnUse">
<stop stop-color="#3F59D9"/>
<stop offset="1" stop-color="#401695"/>
</linearGradient>
<linearGradient id="paint33_linear_5971_26183" x1="53.2417" y1="122.443" x2="63.0056" y2="156.479" gradientUnits="userSpaceOnUse">
<stop stop-color="#3F59D9"/>
<stop offset="1" stop-color="#401695"/>
</linearGradient>
<linearGradient id="paint34_linear_5971_26183" x1="258.16" y1="-146.629" x2="-113.856" y2="444.31" gradientUnits="userSpaceOnUse">
<stop offset="0.07" stop-color="#A6D9D3"/>
<stop offset="0.22" stop-color="#4CAC98"/>
<stop offset="0.37" stop-color="#478CB0"/>
<stop offset="0.65" stop-color="#3F59D9"/>
</linearGradient>
<linearGradient id="paint35_linear_5971_26183" x1="60.1025" y1="152.778" x2="109.181" y2="223.444" gradientUnits="userSpaceOnUse">
<stop offset="0.07" stop-color="#A6D9D3"/>
<stop offset="0.22" stop-color="#4CAC98"/>
<stop offset="0.37" stop-color="#478CB0"/>
<stop offset="0.65" stop-color="#3F59D9"/>
</linearGradient>
<linearGradient id="paint36_linear_5971_26183" x1="210.512" y1="109.239" x2="206.846" y2="168.375" gradientUnits="userSpaceOnUse">
<stop offset="0.07" stop-color="#A6D9D3"/>
<stop offset="0.22" stop-color="#4CAC98"/>
<stop offset="0.37" stop-color="#478CB0"/>
<stop offset="0.65" stop-color="#3F59D9"/>
</linearGradient>
<linearGradient id="paint37_linear_5971_26183" x1="198.223" y1="107.877" x2="198.223" y2="146.066" gradientUnits="userSpaceOnUse">
<stop stop-color="#3F59D9"/>
<stop offset="1" stop-color="#401695"/>
</linearGradient>
<linearGradient id="paint38_linear_5971_26183" x1="227.718" y1="118.603" x2="227.718" y2="139.822" gradientUnits="userSpaceOnUse">
<stop stop-color="#3F59D9"/>
<stop offset="1" stop-color="#401695"/>
</linearGradient>
<linearGradient id="paint39_linear_5971_26183" x1="32.152" y1="95.7216" x2="24.2716" y2="119.363" gradientUnits="userSpaceOnUse">
<stop offset="0.07" stop-color="#A6D9D3"/>
<stop offset="0.22" stop-color="#4CAC98"/>
<stop offset="0.37" stop-color="#478CB0"/>
<stop offset="0.65" stop-color="#3F59D9"/>
</linearGradient>
<linearGradient id="paint40_linear_5971_26183" x1="37.3816" y1="96.1827" x2="37.3816" y2="108.647" gradientUnits="userSpaceOnUse">
<stop stop-color="#3F59D9"/>
<stop offset="1" stop-color="#401695"/>
</linearGradient>
<linearGradient id="paint41_linear_5971_26183" x1="263.255" y1="77.2646" x2="282.982" y2="118.016" gradientUnits="userSpaceOnUse">
<stop offset="0.07" stop-color="#A6D9D3"/>
<stop offset="0.22" stop-color="#4CAC98"/>
<stop offset="0.37" stop-color="#478CB0"/>
<stop offset="0.65" stop-color="#3F59D9"/>
</linearGradient>
<linearGradient id="paint42_linear_5971_26183" x1="283.4" y1="74.5499" x2="283.4" y2="103.55" gradientUnits="userSpaceOnUse">
<stop stop-color="#3F59D9"/>
<stop offset="1" stop-color="#401695"/>
</linearGradient>
<linearGradient id="paint43_linear_5971_26183" x1="235.89" y1="90.0062" x2="223.242" y2="115.848" gradientUnits="userSpaceOnUse">
<stop stop-color="#3F59D9"/>
<stop offset="1" stop-color="#401695"/>
</linearGradient>
<linearGradient id="paint44_linear_5971_26183" x1="211.556" y1="115.347" x2="210.252" y2="121.545" gradientUnits="userSpaceOnUse">
<stop stop-color="#3F59D9"/>
<stop offset="1" stop-color="#401695"/>
</linearGradient>
<linearGradient id="paint45_linear_5971_26183" x1="218.616" y1="114.365" x2="217.893" y2="121.392" gradientUnits="userSpaceOnUse">
<stop stop-color="#3F59D9"/>
<stop offset="1" stop-color="#401695"/>
</linearGradient>
<linearGradient id="paint46_linear_5971_26183" x1="226.139" y1="114.797" x2="225.509" y2="119.735" gradientUnits="userSpaceOnUse">
<stop stop-color="#3F59D9"/>
<stop offset="1" stop-color="#401695"/>
</linearGradient>
<linearGradient id="paint47_linear_5971_26183" x1="229.161" y1="122.201" x2="192.197" y2="199.02" gradientUnits="userSpaceOnUse">
<stop offset="0.07" stop-color="#A6D9D3"/>
<stop offset="0.22" stop-color="#4CAC98"/>
<stop offset="0.37" stop-color="#478CB0"/>
<stop offset="0.65" stop-color="#3F59D9"/>
</linearGradient>
<linearGradient id="paint48_linear_5971_26183" x1="275.912" y1="113.913" x2="272.796" y2="144.458" gradientUnits="userSpaceOnUse">
<stop offset="0.07" stop-color="#A6D9D3"/>
<stop offset="0.22" stop-color="#4CAC98"/>
<stop offset="0.37" stop-color="#478CB0"/>
<stop offset="0.65" stop-color="#3F59D9"/>
</linearGradient>
<linearGradient id="paint49_linear_5971_26183" x1="268.466" y1="113.155" x2="265.35" y2="143.7" gradientUnits="userSpaceOnUse">
<stop offset="0.07" stop-color="#A6D9D3"/>
<stop offset="0.22" stop-color="#4CAC98"/>
<stop offset="0.37" stop-color="#478CB0"/>
<stop offset="0.65" stop-color="#3F59D9"/>
</linearGradient>
<linearGradient id="paint50_linear_5971_26183" x1="261.02" y1="112.395" x2="257.902" y2="142.939" gradientUnits="userSpaceOnUse">
<stop offset="0.07" stop-color="#A6D9D3"/>
<stop offset="0.22" stop-color="#4CAC98"/>
<stop offset="0.37" stop-color="#478CB0"/>
<stop offset="0.65" stop-color="#3F59D9"/>
</linearGradient>
<linearGradient id="paint51_linear_5971_26183" x1="282.836" y1="110.164" x2="260.603" y2="151.986" gradientUnits="userSpaceOnUse">
<stop stop-color="#3F59D9"/>
<stop offset="1" stop-color="#401695"/>
</linearGradient>
<linearGradient id="paint52_linear_5971_26183" x1="219.08" y1="86.214" x2="199.105" y2="126.901" gradientUnits="userSpaceOnUse">
<stop offset="0.07" stop-color="#A6D9D3"/>
<stop offset="0.22" stop-color="#4CAC98"/>
<stop offset="0.37" stop-color="#478CB0"/>
<stop offset="0.65" stop-color="#3F59D9"/>
</linearGradient>
<linearGradient id="paint53_linear_5971_26183" x1="223.783" y1="116.824" x2="235.513" y2="91.1643" gradientUnits="userSpaceOnUse">
<stop offset="0.07" stop-color="#A6D9D3"/>
<stop offset="0.22" stop-color="#4CAC98"/>
<stop offset="0.37" stop-color="#478CB0"/>
<stop offset="0.65" stop-color="#3F59D9"/>
</linearGradient>
<linearGradient id="paint54_linear_5971_26183" x1="80.7941" y1="231.601" x2="87.6376" y2="127.013" gradientUnits="userSpaceOnUse">
<stop/>
<stop offset="1" stop-color="#401695"/>
</linearGradient>
<linearGradient id="paint55_linear_5971_26183" x1="101.137" y1="152.448" x2="101.137" y2="246.313" gradientUnits="userSpaceOnUse">
<stop offset="0.07" stop-color="#A6D9D3"/>
<stop offset="0.22" stop-color="#4CAC98"/>
<stop offset="0.37" stop-color="#478CB0"/>
<stop offset="0.65" stop-color="#3F59D9"/>
</linearGradient>
<linearGradient id="paint56_linear_5971_26183" x1="98.1626" y1="217.485" x2="98.1626" y2="171.18" gradientUnits="userSpaceOnUse">
<stop offset="0.07" stop-color="#A6D9D3"/>
<stop offset="0.22" stop-color="#4CAC98"/>
<stop offset="0.37" stop-color="#478CB0"/>
<stop offset="0.65" stop-color="#3F59D9"/>
</linearGradient>
<linearGradient id="paint57_linear_5971_26183" x1="98.0364" y1="204.616" x2="112.74" y2="245.59" gradientUnits="userSpaceOnUse">
<stop offset="0.07" stop-color="#A6D9D3"/>
<stop offset="0.22" stop-color="#4CAC98"/>
<stop offset="0.37" stop-color="#478CB0"/>
<stop offset="0.65" stop-color="#3F59D9"/>
</linearGradient>
<linearGradient id="paint58_linear_5971_26183" x1="159.905" y1="70.221" x2="159.905" y2="197.051" gradientUnits="userSpaceOnUse">
<stop offset="0.07" stop-color="#A6D9D3"/>
<stop offset="0.22" stop-color="#4CAC98"/>
<stop offset="0.37" stop-color="#478CB0"/>
<stop offset="0.65" stop-color="#3F59D9"/>
</linearGradient>
<linearGradient id="paint59_linear_5971_26183" x1="164.029" y1="69.7324" x2="164.029" y2="107.611" gradientUnits="userSpaceOnUse">
<stop/>
<stop offset="1" stop-color="#401695"/>
</linearGradient>
<linearGradient id="paint60_linear_5971_26183" x1="238.711" y1="190.691" x2="238.711" y2="121.695" gradientUnits="userSpaceOnUse">
<stop/>
<stop offset="1" stop-color="#401695"/>
</linearGradient>
<linearGradient id="paint61_linear_5971_26183" x1="218.533" y1="121.619" x2="238.166" y2="265.846" gradientUnits="userSpaceOnUse">
<stop offset="0.07" stop-color="#A6D9D3"/>
<stop offset="0.22" stop-color="#4CAC98"/>
<stop offset="0.37" stop-color="#478CB0"/>
<stop offset="0.65" stop-color="#3F59D9"/>
</linearGradient>
<linearGradient id="paint62_linear_5971_26183" x1="271.183" y1="205.74" x2="274.849" y2="244.102" gradientUnits="userSpaceOnUse">
<stop stop-color="#3F59D9"/>
<stop offset="1" stop-color="#401695"/>
</linearGradient>
<linearGradient id="paint63_linear_5971_26183" x1="266.508" y1="214.642" x2="266.751" y2="233.702" gradientUnits="userSpaceOnUse">
<stop offset="0.07" stop-color="#A6D9D3"/>
<stop offset="0.22" stop-color="#4CAC98"/>
<stop offset="0.37" stop-color="#478CB0"/>
<stop offset="0.65" stop-color="#3F59D9"/>
</linearGradient>
<linearGradient id="paint64_linear_5971_26183" x1="255.639" y1="182.682" x2="259.915" y2="214.938" gradientUnits="userSpaceOnUse">
<stop stop-color="#3F59D9"/>
<stop offset="1" stop-color="#401695"/>
</linearGradient>
<linearGradient id="paint65_linear_5971_26183" x1="244.746" y1="134.54" x2="246.935" y2="174.424" gradientUnits="userSpaceOnUse">
<stop stop-color="#3F59D9"/>
<stop offset="1" stop-color="#401695"/>
</linearGradient>
<linearGradient id="paint66_linear_5971_26183" x1="205.749" y1="120.218" x2="194.464" y2="188.646" gradientUnits="userSpaceOnUse">
<stop stop-color="#3F59D9"/>
<stop offset="1" stop-color="#401695"/>
</linearGradient>
<linearGradient id="paint67_linear_5971_26183" x1="231.46" y1="128.772" x2="199.936" y2="218.391" gradientUnits="userSpaceOnUse">
<stop offset="0.07" stop-color="#A6D9D3"/>
<stop offset="0.22" stop-color="#4CAC98"/>
<stop offset="0.37" stop-color="#478CB0"/>
<stop offset="0.65" stop-color="#3F59D9"/>
</linearGradient>
<linearGradient id="paint68_linear_5971_26183" x1="143.804" y1="136.504" x2="143.804" y2="200.779" gradientUnits="userSpaceOnUse">
<stop offset="0.07" stop-color="#A6D9D3"/>
<stop offset="0.22" stop-color="#4CAC98"/>
<stop offset="0.37" stop-color="#478CB0"/>
<stop offset="0.65" stop-color="#3F59D9"/>
</linearGradient>
<linearGradient id="paint69_linear_5971_26183" x1="130.978" y1="138.153" x2="130.978" y2="211.148" gradientUnits="userSpaceOnUse">
<stop stop-color="#3F59D9"/>
<stop offset="1" stop-color="#401695"/>
</linearGradient>
<linearGradient id="paint70_linear_5971_26183" x1="162.409" y1="193.867" x2="162.409" y2="147.904" gradientUnits="userSpaceOnUse">
<stop/>
<stop offset="1" stop-color="#401695"/>
</linearGradient>
<linearGradient id="paint71_linear_5971_26183" x1="153.521" y1="210.482" x2="153.521" y2="173.225" gradientUnits="userSpaceOnUse">
<stop/>
<stop offset="1" stop-color="#401695"/>
</linearGradient>
<linearGradient id="paint72_linear_5971_26183" x1="203.348" y1="124.194" x2="161.344" y2="213.535" gradientUnits="userSpaceOnUse">
<stop offset="0.07" stop-color="#A6D9D3"/>
<stop offset="0.22" stop-color="#4CAC98"/>
<stop offset="0.37" stop-color="#478CB0"/>
<stop offset="0.65" stop-color="#3F59D9"/>
</linearGradient>
<linearGradient id="paint73_linear_5971_26183" x1="271.377" y1="135.526" x2="294.592" y2="225.938" gradientUnits="userSpaceOnUse">
<stop offset="0.07" stop-color="#A6D9D3"/>
<stop offset="0.22" stop-color="#4CAC98"/>
<stop offset="0.37" stop-color="#478CB0"/>
<stop offset="0.65" stop-color="#3F59D9"/>
</linearGradient>
<linearGradient id="paint74_linear_5971_26183" x1="247.099" y1="163.392" x2="247.099" y2="143.472" gradientUnits="userSpaceOnUse">
<stop offset="0.07" stop-color="#A6D9D3"/>
<stop offset="0.22" stop-color="#4CAC98"/>
<stop offset="0.37" stop-color="#478CB0"/>
<stop offset="0.65" stop-color="#3F59D9"/>
</linearGradient>
<linearGradient id="paint75_linear_5971_26183" x1="244.762" y1="156.737" x2="247.775" y2="197.89" gradientUnits="userSpaceOnUse">
<stop stop-color="#3F59D9"/>
<stop offset="1" stop-color="#401695"/>
</linearGradient>
<linearGradient id="paint76_linear_5971_26183" x1="251.62" y1="196.476" x2="256.832" y2="228.794" gradientUnits="userSpaceOnUse">
<stop offset="0.07" stop-color="#A6D9D3"/>
<stop offset="0.22" stop-color="#4CAC98"/>
<stop offset="0.37" stop-color="#478CB0"/>
<stop offset="0.65" stop-color="#3F59D9"/>
</linearGradient>
<linearGradient id="paint77_linear_5971_26183" x1="229.052" y1="160.515" x2="233.537" y2="224.006" gradientUnits="userSpaceOnUse">
<stop offset="0.07" stop-color="#A6D9D3"/>
<stop offset="0.22" stop-color="#4CAC98"/>
<stop offset="0.37" stop-color="#478CB0"/>
<stop offset="0.65" stop-color="#3F59D9"/>
</linearGradient>
<linearGradient id="paint78_linear_5971_26183" x1="235.443" y1="194.496" x2="240.298" y2="229.347" gradientUnits="userSpaceOnUse">
<stop offset="0.07" stop-color="#A6D9D3"/>
<stop offset="0.22" stop-color="#4CAC98"/>
<stop offset="0.37" stop-color="#478CB0"/>
<stop offset="0.65" stop-color="#3F59D9"/>
</linearGradient>
<linearGradient id="paint79_linear_5971_26183" x1="244.833" y1="215.729" x2="245.448" y2="261.141" gradientUnits="userSpaceOnUse">
<stop offset="0.07" stop-color="#A6D9D3"/>
<stop offset="0.22" stop-color="#4CAC98"/>
<stop offset="0.37" stop-color="#478CB0"/>
<stop offset="0.65" stop-color="#3F59D9"/>
</linearGradient>
<linearGradient id="paint80_linear_5971_26183" x1="205.351" y1="-46.7352" x2="-56.3247" y2="386.984" gradientUnits="userSpaceOnUse">
<stop offset="0.07" stop-color="#A6D9D3"/>
<stop offset="0.22" stop-color="#4CAC98"/>
<stop offset="0.37" stop-color="#478CB0"/>
<stop offset="0.65" stop-color="#3F59D9"/>
</linearGradient>
<linearGradient id="paint81_linear_5971_26183" x1="268.309" y1="45.5613" x2="240.634" y2="80.9325" gradientUnits="userSpaceOnUse">
<stop offset="0.07" stop-color="#A6D9D3"/>
<stop offset="0.22" stop-color="#4CAC98"/>
<stop offset="0.37" stop-color="#478CB0"/>
<stop offset="0.65" stop-color="#3F59D9"/>
</linearGradient>
<linearGradient id="paint82_linear_5971_26183" x1="275.919" y1="51.8958" x2="266.674" y2="66.1448" gradientUnits="userSpaceOnUse">
<stop stop-color="#3F59D9"/>
<stop offset="1" stop-color="#401695"/>
</linearGradient>
<linearGradient id="paint83_linear_5971_26183" x1="211.329" y1="207.446" x2="215.087" y2="257.112" gradientUnits="userSpaceOnUse">
<stop offset="0.07" stop-color="#A6D9D3"/>
<stop offset="0.22" stop-color="#4CAC98"/>
<stop offset="0.37" stop-color="#478CB0"/>
<stop offset="0.65" stop-color="#3F59D9"/>
</linearGradient>
<linearGradient id="paint84_linear_5971_26183" x1="130.644" y1="88.6178" x2="136.878" y2="111.594" gradientUnits="userSpaceOnUse">
<stop offset="0.07" stop-color="#A6D9D3"/>
<stop offset="1" stop-color="#4CAC98"/>
</linearGradient>
<linearGradient id="paint85_linear_5971_26183" x1="375.618" y1="151.203" x2="370.866" y2="170.842" gradientUnits="userSpaceOnUse">
<stop offset="0.07" stop-color="#A6D9D3"/>
<stop offset="1" stop-color="#4CAC98"/>
</linearGradient>
<linearGradient id="paint86_linear_5971_26183" x1="72.8678" y1="125.505" x2="80.9891" y2="125.505" gradientUnits="userSpaceOnUse">
<stop stop-color="#3F59D9"/>
<stop offset="1" stop-color="#401695"/>
</linearGradient>
</defs>
</svg>
