<svg width="561" height="457" viewBox="0 0 561 457" fill="none" xmlns="http://www.w3.org/2000/svg">
<mask id="mask0_5971_25265" style="mask-type:luminance" maskUnits="userSpaceOnUse" x="142" y="73" width="167" height="147">
<path d="M142.66 219.939L308.295 219.939V73.7805L142.66 73.7805L142.66 219.939Z" fill="white"/>
</mask>
<g mask="url(#mask0_5971_25265)">
<path d="M260.403 314.52C246.527 312.461 233.074 307.754 220.423 300.528C214.354 297.062 208.506 293.019 203.035 288.511C197.618 284.049 192.529 279.093 187.901 273.78C183.273 268.467 179.072 262.751 175.411 256.79C171.713 250.767 168.537 244.442 165.968 237.991C160.609 224.53 157.895 210.662 157.895 196.769C157.895 182.905 160.601 169.83 165.935 157.905C168.508 152.152 171.696 146.706 175.411 141.713C179.093 136.761 183.318 132.216 187.98 128.193C192.703 124.117 197.909 120.552 203.45 117.596C209.037 114.616 215.014 112.233 221.211 110.511C234.062 106.937 247.698 106.186 261.74 108.265C275.616 110.324 289.069 115.031 301.721 122.258C307.789 125.724 313.638 129.767 319.109 134.274C324.525 138.737 329.614 143.693 334.242 149.006C338.871 154.319 343.071 160.034 346.732 165.995C350.431 172.018 353.606 178.344 356.175 184.794C361.534 198.255 364.249 212.123 364.249 226.016C364.249 239.88 361.542 252.955 356.209 264.88C353.635 270.633 350.447 276.079 346.732 281.073C343.051 286.025 338.825 290.57 334.164 294.592C329.44 298.668 324.235 302.234 318.693 305.189C313.106 308.169 307.129 310.552 300.932 312.274C292.805 314.532 284.362 315.666 275.699 315.666C270.668 315.666 265.563 315.284 260.403 314.52ZM223.648 119.282C218.09 120.826 212.735 122.963 207.734 125.628C202.786 128.268 198.141 131.448 193.924 135.084C189.769 138.67 185.996 142.725 182.716 147.142C179.4 151.604 176.548 156.477 174.245 161.624C169.438 172.371 166.997 184.192 166.997 196.769C166.997 248.987 209.498 297.767 261.736 305.513C274.512 307.405 286.877 306.729 298.491 303.504C304.049 301.96 309.404 299.822 314.406 297.157C319.353 294.517 323.998 291.338 328.215 287.701C332.37 284.115 336.144 280.06 339.423 275.643C342.739 271.181 345.591 266.308 347.895 261.161C352.701 250.415 355.142 238.593 355.142 226.016C355.142 173.799 312.642 125.018 260.403 117.273C255.688 116.575 251.035 116.227 246.448 116.227C238.607 116.227 230.978 117.248 223.648 119.286V119.282Z" fill="url(#paint0_linear_5971_25265)"/>
<path d="M255.53 314.118C241.654 312.059 228.201 307.352 215.55 300.125C209.481 296.659 203.633 292.616 198.162 288.109C192.745 283.646 187.656 278.69 183.028 273.377C178.4 268.064 174.199 262.348 170.538 256.388C166.84 250.365 163.664 244.039 161.095 237.589C155.736 224.128 153.021 210.26 153.021 196.367C153.021 182.503 155.728 169.428 161.062 157.503C163.635 151.75 166.823 146.304 170.538 141.31C174.22 136.358 178.445 131.813 183.107 127.791C187.83 123.715 193.035 120.149 198.577 117.194C204.164 114.214 210.141 111.831 216.338 110.109C229.189 106.535 242.825 105.783 256.867 107.863C270.743 109.922 284.196 114.629 296.848 121.855C302.916 125.321 308.765 129.364 314.236 133.872C319.652 138.334 324.741 143.29 329.369 148.603C333.998 153.916 338.198 159.632 341.859 165.593C345.558 171.616 348.733 177.941 351.302 184.392C356.661 197.853 359.376 211.721 359.376 225.614C359.376 239.477 356.669 252.553 351.336 264.478C348.762 270.231 345.574 275.677 341.859 280.67C338.177 285.622 333.952 290.167 329.291 294.189C324.567 298.266 319.362 301.831 313.82 304.787C308.233 307.767 302.256 310.149 296.059 311.872C287.932 314.13 279.489 315.263 270.826 315.263C265.795 315.263 260.69 314.881 255.53 314.118ZM218.775 118.879C213.217 120.423 207.862 122.561 202.86 125.226C197.913 127.866 193.268 131.045 189.051 134.681C184.896 138.268 181.123 142.323 177.843 146.74C174.527 151.202 171.675 156.075 169.372 161.222C164.565 171.968 162.124 183.79 162.124 196.367C162.124 248.584 204.625 297.365 256.863 305.11C269.639 307.003 282.004 306.326 293.618 303.101C299.176 301.557 304.531 299.42 309.533 296.755C314.48 294.115 319.125 290.935 323.342 287.299C327.497 283.713 331.271 279.657 334.55 275.241C337.866 270.779 340.718 265.906 343.021 260.759C347.828 250.012 350.269 238.191 350.269 225.614C350.269 173.396 307.768 124.616 255.53 116.87C250.815 116.173 246.162 115.824 241.575 115.824C233.734 115.824 226.105 116.845 218.775 118.883V118.879Z" fill="url(#paint1_linear_5971_25265)"/>
</g>
<path d="M316.949 23.793L324.317 23.8013V37.2084L316.949 38.6737V23.793Z" fill="url(#paint2_linear_5971_25265)"/>
<path d="M345.287 15.8613L352.659 17.4553V29.281L345.287 30.7462V15.8613Z" fill="url(#paint3_linear_5971_25265)"/>
<path d="M373.629 7.93359L380.997 9.52336V21.3491L373.629 22.8185V7.93359Z" fill="url(#paint4_linear_5971_25265)"/>
<path d="M387.795 3.95574V17.3671L373.628 21.3519V7.93223L359.457 11.8838V25.3325L345.287 29.3173V15.8603L331.12 19.816V33.2979L316.949 37.2827V23.7925L304.459 27.4079V208.363L401.966 195.238V16.761V13.3823V0L387.795 3.95574Z" fill="url(#paint5_linear_5971_25265)"/>
<path d="M477.419 24.8711L470.877 26.9299V36.4561L477.419 38.0832V24.8711Z" fill="url(#paint6_linear_5971_25265)"/>
<path d="M452.268 16.582L445.727 18.6367V28.1628L452.268 29.79V16.582Z" fill="url(#paint7_linear_5971_25265)"/>
<path d="M427.114 8.29297L420.572 10.3476V19.8738L427.114 21.5009V8.29297Z" fill="url(#paint8_linear_5971_25265)"/>
<path d="M414.542 4.13422V16.0388L427.115 20.2021V8.29335L439.692 12.4276V24.3612L452.269 28.5245V16.5826L464.842 20.7168V32.6836L477.419 36.8469V24.8718L489.996 29.006V41.006V43.8826V207.234L401.965 195.492V14.8766V11.8797V0L414.542 4.13422Z" fill="url(#paint9_linear_5971_25265)"/>
<path d="M382.344 34.9713V38.0305L376.894 39.4501V36.4117L371.444 37.852V40.8697L365.994 42.2893V39.2965L360.544 40.7368V43.7088L355.094 45.1284V42.1772L349.644 43.6175V46.548L344.194 47.9676V45.062L338.744 46.5023V49.3872L333.293 50.8068V47.9427L327.843 49.383V52.2222L322.393 53.6418V50.8234L316.943 52.2637V130.918C316.943 132.611 317.827 134.101 319.276 134.849L349.465 150.393C351.204 151.29 353.421 150.941 355.006 149.526L385.976 121.861C387.121 120.835 387.79 119.387 387.79 117.917V33.5352L382.34 34.9755L382.344 34.9713Z" fill="url(#paint10_linear_5971_25265)"/>
<path d="M372.235 78.1357L363.697 71.2578L352.552 84.5695L351.605 85.7027L347.965 90.0486L346.101 92.2735L331.121 110.164L334.761 113.094L336.16 111.425L341.282 115.551L344.923 111.205L339.8 107.079L341.199 105.411L346.321 109.537L349.962 105.191L344.84 101.065L349.746 95.2039L351.61 92.9791L355.698 88.0936L356.645 86.9604L361.547 90.9078C364.498 93.2863 369.288 92.3565 372.239 88.8283C375.19 85.3001 375.19 80.5142 372.239 78.1357H372.235ZM368.669 85.9559C367.665 87.1555 366.034 87.471 365.029 86.6615L360.169 82.7432L361.858 80.7259L363.809 78.3972L368.669 82.3156C369.674 83.125 369.674 84.7522 368.669 85.9559Z" fill="url(#paint11_linear_5971_25265)"/>
<path d="M341.668 94.7727L344.092 91.8796L350.206 84.5742L339.513 75.957L330.975 86.1556C328.024 89.6838 328.024 94.4697 330.975 96.8482C333.926 99.2266 338.716 98.2968 341.668 94.7686V94.7727ZM334.541 88.9533L339.401 83.1463L342.191 85.3919L343.042 86.0768L338.181 91.8838C337.176 93.0833 335.545 93.3988 334.541 92.5894C333.536 91.78 333.536 90.1529 334.541 88.9491V88.9533Z" fill="url(#paint12_linear_5971_25265)"/>
<path d="M353 94.0998L356.64 89.7539L372.086 102.198L368.449 106.544L367.051 105.419L361.928 111.537L358.288 108.607L363.41 102.489L362.016 101.36L356.889 107.482L353.253 104.552L358.375 98.4291L353 94.0998Z" fill="url(#paint13_linear_5971_25265)"/>
<path opacity="0.77" d="M558.953 201.216C568.31 201.181 575.868 193.568 575.834 184.21C575.8 174.852 568.186 167.294 558.828 167.329C549.471 167.363 541.913 174.977 541.947 184.334C541.981 193.692 549.595 201.25 558.953 201.216Z" fill="url(#paint14_radial_5971_25265)"/>
<mask id="mask1_5971_25265" style="mask-type:luminance" maskUnits="userSpaceOnUse" x="347" y="122" width="267" height="164">
<path d="M614 122.592H347.633V285.815H614V122.592Z" fill="white"/>
</mask>
<g mask="url(#mask1_5971_25265)">
<path d="M400.049 511.582C386.119 511.582 372.541 509.76 359.47 506.128C349.504 503.359 339.895 499.524 330.909 494.73C321.997 489.977 313.625 484.245 306.029 477.691C298.536 471.228 291.733 463.91 285.814 455.949C279.841 447.917 274.715 439.154 270.576 429.906C261.997 410.734 257.646 389.705 257.646 367.407C257.646 345.109 262.013 322.761 270.63 301.114C274.76 290.737 279.87 280.568 285.818 270.88C291.704 261.295 298.462 252.105 305.904 243.559C313.346 235.012 321.536 227.043 330.244 219.87C339.044 212.623 348.45 206.118 358.209 200.544C378.556 188.922 400.186 181.35 422.501 178.042C445.085 174.692 467.014 175.909 487.677 181.653C497.643 184.422 507.252 188.257 516.239 193.052C525.151 197.804 533.523 203.537 541.119 210.091C548.611 216.554 555.414 223.872 561.334 231.833C567.307 239.865 572.433 248.627 576.571 257.875C585.151 277.048 589.501 298.076 589.501 320.374C589.501 342.672 585.134 365.02 576.517 386.667C572.387 397.044 567.277 407.214 561.329 416.902C555.443 426.486 548.686 435.676 541.243 444.222C533.801 452.769 525.611 460.739 516.903 467.911C508.103 475.159 498.698 481.663 488.939 487.237C468.592 498.86 446.962 506.431 424.647 509.739C416.349 510.968 408.139 511.582 400.049 511.582ZM447.086 190.848C439.714 190.848 432.226 191.408 424.647 192.533C340.638 204.989 272.291 283.44 272.291 367.411C272.291 387.634 276.213 406.649 283.946 423.925C287.649 432.202 292.231 440.034 297.569 447.211C302.849 454.313 308.913 460.834 315.596 466.6C322.374 472.448 329.846 477.562 337.803 481.808C345.847 486.096 354.456 489.533 363.393 492.015C382.068 497.208 401.954 498.295 422.497 495.249C506.505 482.792 574.849 404.341 574.849 320.37C574.849 300.147 570.926 281.132 563.193 263.856C559.491 255.58 554.908 247.747 549.57 240.57C544.29 233.468 538.226 226.947 531.543 221.182C524.765 215.333 517.293 210.219 509.336 205.973C501.292 201.685 492.683 198.248 483.746 195.766C471.962 192.491 459.692 190.848 447.082 190.848H447.086Z" fill="url(#paint15_linear_5971_25265)"/>
<path d="M417.369 513.861C403.439 513.861 389.862 512.039 376.791 508.407C366.825 505.639 357.215 501.803 348.229 497.009C339.317 492.256 330.945 486.524 323.349 479.97C315.857 473.507 309.053 466.189 303.134 458.228C297.161 450.196 292.035 441.434 287.897 432.186C279.317 413.013 274.967 391.985 274.967 369.686C274.967 347.388 279.333 325.04 287.951 303.394C292.081 293.017 297.19 282.847 303.138 273.159C309.024 263.575 315.782 254.385 323.224 245.838C330.667 237.292 338.856 229.322 347.565 222.149C356.365 214.902 365.77 208.398 375.529 202.823C395.876 191.201 417.506 183.63 439.821 180.322C462.406 176.972 484.335 178.188 504.997 183.933C514.964 186.701 524.573 190.537 533.559 195.331C542.471 200.084 550.843 205.816 558.439 212.37C565.932 218.833 572.735 226.151 578.654 234.112C584.627 242.144 589.753 250.906 593.892 260.154C602.471 279.327 606.821 300.355 606.821 322.653C606.821 344.952 602.455 367.3 593.838 388.946C589.707 399.323 584.598 409.493 578.65 419.181C572.764 428.765 566.006 437.955 558.564 446.502C551.121 455.048 542.932 463.018 534.223 470.19C525.424 477.438 516.018 483.942 506.259 489.517C485.912 501.139 464.282 508.71 441.967 512.018C433.67 513.247 425.459 513.861 417.369 513.861ZM464.406 193.127C457.035 193.127 449.546 193.687 441.967 194.812C357.958 207.269 289.611 285.719 289.611 369.691C289.611 389.913 293.533 408.928 301.266 426.204C304.969 434.481 309.551 442.314 314.889 449.49C320.169 456.592 326.234 463.113 332.917 468.879C339.695 474.727 347.166 479.841 355.123 484.087C363.168 488.375 371.777 491.812 380.713 494.294C399.388 499.487 419.274 500.575 439.817 497.528C523.826 485.071 592.169 406.621 592.169 322.649C592.169 302.426 588.246 283.411 580.513 266.136C576.811 257.859 572.228 250.026 566.89 242.85C561.611 235.748 555.546 229.227 548.863 223.461C542.085 217.613 534.614 212.499 526.656 208.252C518.612 203.965 510.003 200.528 501.067 198.046C489.282 194.771 477.013 193.127 464.402 193.127H464.406Z" fill="url(#paint16_linear_5971_25265)"/>
</g>
<path d="M365.916 220.421L414.668 223.43L410.288 215.822L386.521 212.348L365.916 220.421Z" fill="black"/>
<path d="M116.889 206.52L83.1758 211.413V284.02L116.889 283.281V206.52Z" fill="url(#paint17_linear_5971_25265)"/>
<path d="M124.371 184.961L128.265 185.343V192.424L124.371 192.827V184.961Z" fill="url(#paint18_linear_5971_25265)"/>
<path d="M139.338 182.213L143.231 182.591V189.672L139.338 190.075V182.213Z" fill="url(#paint19_linear_5971_25265)"/>
<path d="M154.312 179.461L158.206 179.839V186.924L154.312 187.323V179.461Z" fill="url(#paint20_linear_5971_25265)"/>
<path d="M184.233 179.162L180.34 179.54V186.625L184.233 187.024V179.162Z" fill="url(#paint21_linear_5971_25265)"/>
<path d="M184.247 179.141V186.21L176.763 184.994V177.913L169.279 176.709V183.778V185.563V314.757L191.735 309.618V189.365V187.426V180.345L184.247 179.141Z" fill="url(#paint22_linear_5971_25265)"/>
<path d="M161.795 178.079V185.164L154.311 186.551V179.461L146.827 180.831V187.933L139.339 189.319V182.213L131.855 183.583V190.706L124.371 192.088V184.961L116.887 186.331V193.474V195.184V318.738L169.278 306.526V185.563V183.778V176.709L161.795 178.079Z" fill="url(#paint23_linear_5971_25265)"/>
<mask id="mask2_5971_25265" style="mask-type:luminance" maskUnits="userSpaceOnUse" x="47" y="253" width="68" height="127">
<path d="M47.6728 379.164H114.979L114.979 253.888H47.6728L47.6728 379.164Z" fill="white"/>
</mask>
<g mask="url(#mask2_5971_25265)">
<path d="M65.3647 453.564C53.4726 451.8 41.9416 447.765 31.0955 441.568C25.8945 438.596 20.8803 435.13 16.1899 431.27C11.5493 427.447 7.18258 423.197 3.21854 418.643C-0.749655 414.09 -4.34843 409.187 -7.48645 404.082C-10.6577 398.918 -13.3806 393.497 -15.5806 387.968C-20.1714 376.433 -22.5 364.545 -22.5 352.637C-22.5 340.753 -20.1797 329.546 -15.6055 319.326C-13.4014 314.395 -10.666 309.725 -7.4823 305.446C-4.32767 301.204 -0.703997 297.302 3.2891 293.857C7.34031 290.362 11.8024 287.307 16.551 284.775C21.3411 282.222 26.4632 280.176 31.7721 278.702C42.7842 275.639 54.473 274.991 66.5104 276.776C78.4025 278.54 89.9335 282.575 100.78 288.772C105.981 291.744 110.995 295.21 115.685 299.07C120.326 302.893 124.693 307.144 128.657 311.697C132.625 316.25 136.224 321.153 139.362 326.258C142.533 331.422 145.256 336.843 147.456 342.372C152.047 353.907 154.375 365.795 154.375 377.703C154.375 389.587 152.055 400.795 147.481 411.014C145.277 415.945 142.541 420.615 139.357 424.894C136.203 429.136 132.579 433.038 128.586 436.483C124.535 439.978 120.073 443.033 115.324 445.565C110.534 448.118 105.412 450.164 100.103 451.638C93.1338 453.576 85.8989 454.544 78.4731 454.544C74.1604 454.544 69.7854 454.216 65.3647 453.56V453.564ZM33.86 286.219C29.0948 287.543 24.5081 289.374 20.2203 291.661C15.9782 293.923 11.9975 296.65 8.38217 299.768C4.82076 302.839 1.58726 306.318 -1.227 310.103C-4.07032 313.93 -6.51515 318.106 -8.4868 322.514C-12.6086 331.725 -14.6964 341.857 -14.6964 352.637C-14.6964 397.391 21.7312 439.206 66.5062 445.843C77.4561 447.466 88.0532 446.885 98.011 444.121C102.776 442.797 107.363 440.966 111.651 438.679C115.893 436.417 119.873 433.69 123.489 430.573C127.05 427.501 130.284 424.023 133.098 420.237C135.941 416.41 138.386 412.234 140.358 407.826C144.48 398.615 146.567 388.483 146.567 377.703C146.567 332.949 110.14 291.134 65.3647 284.497C61.326 283.899 57.3329 283.6 53.4021 283.6C46.6819 283.6 40.1402 284.476 33.86 286.223V286.219Z" fill="url(#paint24_linear_5971_25265)"/>
<path d="M61.5249 458.998C49.6328 457.233 38.1018 453.199 27.2557 447.002C22.0547 444.03 17.0405 440.564 12.35 436.704C7.70941 432.881 3.34274 428.63 -0.621305 424.077C-4.5895 419.523 -8.18827 414.621 -11.3263 409.516C-14.4975 404.352 -17.2205 398.931 -19.4204 393.402C-24.0112 381.867 -26.3398 369.979 -26.3398 358.07C-26.3398 346.186 -24.0195 334.979 -19.4453 324.76C-17.2412 319.829 -14.5058 315.159 -11.3221 310.879C-8.16751 306.637 -4.54384 302.736 -0.550743 299.29C3.50047 295.795 7.9626 292.74 12.7112 290.208C17.5012 287.656 22.6233 285.609 27.9322 284.136C38.9444 281.072 50.6331 280.425 62.6705 282.21C74.5627 283.974 86.0937 288.008 96.9398 294.206C102.141 297.178 107.155 300.643 111.845 304.504C116.486 308.327 120.853 312.577 124.817 317.131C128.785 321.684 132.384 326.586 135.522 331.692C138.693 336.855 141.416 342.276 143.616 347.805C148.207 359.34 150.535 371.228 150.535 383.137C150.535 395.021 148.215 406.228 143.641 416.447C141.437 421.379 138.701 426.048 135.518 430.328C132.363 434.57 128.739 438.472 124.746 441.917C120.695 445.412 116.233 448.467 111.484 450.999C106.694 453.552 101.572 455.598 96.2632 457.072C89.2939 459.01 82.0591 459.977 74.6332 459.977C70.3205 459.977 65.9455 459.649 61.5249 458.993V458.998ZM30.0201 291.653C25.255 292.977 20.6683 294.807 16.3805 297.095C12.1383 299.357 8.1577 302.084 4.54233 305.201C0.980915 308.273 -2.25258 311.751 -5.06685 315.537C-7.91016 319.364 -10.355 323.539 -12.3266 327.948C-16.4484 337.158 -18.5363 347.291 -18.5363 358.07C-18.5363 402.824 17.8914 444.64 62.6664 451.277C73.6163 452.9 84.2133 452.319 94.1712 449.554C98.9363 448.23 103.523 446.4 107.811 444.113C112.053 441.851 116.034 439.123 119.649 436.006C123.21 432.935 126.444 429.456 129.258 425.671C132.101 421.844 134.546 417.668 136.518 413.26C140.64 404.049 142.728 393.917 142.728 383.137C142.728 338.383 106.3 296.567 61.5249 289.93C57.4861 289.332 53.493 289.034 49.5622 289.034C42.842 289.034 36.3003 289.909 30.0201 291.657V291.653Z" fill="url(#paint25_linear_5971_25265)"/>
</g>
<path d="M565.7 275.63H534.863V260.542C534.863 243.192 548.383 228.842 565.7 227.809V275.63Z" fill="url(#paint26_linear_5971_25265)"/>
<path d="M227.381 206.52L243.333 204.449V301.276L227.381 298.951V206.52Z" fill="#401695"/>
<path d="M238.857 138.326C238.786 148.608 233.199 158.196 226.313 159.798C219.381 161.409 213.765 154.323 213.765 143.967C213.765 143.814 213.769 143.66 213.773 143.502L202.213 141.435L196.277 147.583V155.382L202.387 157.665V180.312L250.238 194.3V144.694L238.857 138.326Z" fill="url(#paint27_linear_5971_25265)"/>
<path d="M235.781 134.512L258.681 138.123V362.006L235.781 364.028V134.512Z" fill="url(#paint28_linear_5971_25265)"/>
<path d="M235.781 180.013L242.547 181.507V170.64L235.781 169.582V180.013Z" fill="black"/>
<path d="M225.304 136.67C225.238 146.134 220.095 154.963 213.757 156.436C207.377 157.922 202.205 151.397 202.205 141.863C202.205 141.722 202.209 141.581 202.213 141.435L191.732 143.598V351.148L235.777 364.023V134.512L225.3 136.674L225.304 136.67Z" fill="url(#paint29_linear_5971_25265)"/>
<g opacity="0.7">
<path d="M235.735 169.562L212.98 172.651C211.976 172.788 211.162 173.713 211.162 174.718V181.521C211.162 182.526 211.976 183.231 212.98 183.094L235.735 180.006V169.562Z" fill="black"/>
</g>
<path d="M212.5 196.127C206.693 197.526 202.33 202.972 202.33 208.821V266.065L225.475 263.317V206.073C225.475 199.124 219.394 194.463 212.5 196.127Z" fill="black"/>
<path d="M242.547 213.56L291.469 216.963L280.855 205.357L257.643 200.219L242.547 213.56Z" fill="black"/>
<path d="M304.459 156.411L327.338 152.551V313.62L304.459 309.423V159.736V156.411Z" fill="url(#paint30_linear_5971_25265)"/>
<path d="M304.46 85.3495L282.672 81.373V132.217L304.46 129.012V85.3495Z" fill="url(#paint31_linear_5971_25265)"/>
<path d="M282.673 81.373L242.547 92.6467V213.56L281.013 210.75L282.673 132.217V81.373Z" fill="url(#paint32_linear_5971_25265)"/>
<path opacity="0.7" d="M261.79 166.05L242.547 168.561V179.105L261.79 176.494C262.795 176.357 263.608 175.431 263.608 174.427V167.623C263.608 166.619 262.795 165.913 261.79 166.05Z" fill="black"/>
<path d="M140.762 316.231V305.916H156.9V316.526L140.762 316.231Z" fill="#401695"/>
<path d="M45.7048 220.658C19.4715 224.444 0 246.925 0 273.432V345.735L45.7048 351.837V220.658Z" fill="url(#paint33_linear_5971_25265)"/>
<path d="M45.7051 220.658L75.3627 225.054V351.837H45.7051V220.658Z" fill="url(#paint34_linear_5971_25265)"/>
<path d="M202.343 232.222V226.772L200.421 226.602L33.043 365.023L34.9025 371.702L39.3439 371.777L202.343 232.222Z" fill="url(#paint35_linear_5971_25265)"/>
<path d="M200.332 226.602L195.559 226.755C192.736 227.046 191.429 227.88 189.777 229.341L29.0608 362.877C27.7242 363.986 26.948 365.629 26.9314 367.364L26.9023 370.532L34.901 371.702V368.498C34.901 366.642 35.7229 364.882 37.1424 363.691L200.332 226.602Z" fill="url(#paint36_linear_5971_25265)"/>
<path d="M212.646 230.014L202.34 231.047L38.793 371.71L57.2019 374.06L212.646 230.014Z" fill="url(#paint37_linear_5971_25265)"/>
<path d="M389.958 228.113L365.916 230.214V250.669L389.958 260.091V228.113Z" fill="url(#paint38_linear_5971_25265)"/>
<path d="M327.336 265.404V152.551L354.196 156.764V270.966L389.955 273.29V272.394L327.336 265.404Z" fill="url(#paint39_linear_5971_25265)"/>
<path d="M389.959 228.025V255.363H434.057V230.259L389.959 228.025Z" fill="url(#paint40_linear_5971_25265)"/>
<path d="M46.5879 199.364L59.8498 196.791V175.65L46.5879 179.311V199.364Z" fill="url(#paint41_linear_5971_25265)"/>
<path d="M59.8535 196.791L75.4191 199.206V178.71L59.8535 175.65V196.791Z" fill="url(#paint42_linear_5971_25265)"/>
<path d="M499.327 189.788V153.311L476.447 157.984V169.383C476.447 181.652 487.136 191.187 499.327 189.784V189.788Z" fill="url(#paint43_linear_5971_25265)"/>
<path d="M499.328 189.788L526.188 193.636V159.105L499.328 153.314V189.788Z" fill="url(#paint44_linear_5971_25265)"/>
<path d="M434.057 171.015L389.959 164.934V218.322L434.057 221.173V171.015Z" fill="url(#paint45_linear_5971_25265)"/>
<path d="M418.736 215.822L422.235 216.503V222.87L418.736 222.887V215.822Z" fill="url(#paint46_linear_5971_25265)"/>
<path d="M432.188 214.664L435.687 215.345V221.712L432.188 221.729V214.664Z" fill="url(#paint47_linear_5971_25265)"/>
<path d="M445.646 213.506L449.141 214.187V220.554L445.646 220.571V213.506Z" fill="url(#paint48_linear_5971_25265)"/>
<path d="M452.37 212.92V219.288L445.646 219.877V213.506L438.917 214.079V220.463L432.189 221.052V214.664L425.465 215.237V221.637L418.736 222.227V215.822L412.012 216.395V222.812V224.352V335.395L459.099 329.015V220.305V218.698V212.348L452.37 212.92Z" fill="url(#paint49_linear_5971_25265)"/>
<path d="M499.456 217.021L495.957 217.598V223.966L499.456 224.086V217.021Z" fill="url(#paint50_linear_5971_25265)"/>
<path d="M486.003 215.461L482.504 216.042V222.405L486.003 222.53V215.461Z" fill="url(#paint51_linear_5971_25265)"/>
<path d="M472.55 213.904L469.051 214.481V220.849L472.55 220.969V213.904Z" fill="url(#paint52_linear_5971_25265)"/>
<path d="M465.822 213.12V219.487L472.551 220.276V213.904L479.275 214.676V221.06L486.003 221.849V215.461L492.728 216.237V222.638L499.456 223.426V217.021L506.185 217.794V224.211V225.751V295.75L459.098 294.372V220.305V218.698V212.348L465.822 213.12Z" fill="url(#paint53_linear_5971_25265)"/>
<path d="M365.916 168.802V220.422L389.958 218.322V164.934L365.916 168.802Z" fill="url(#paint54_linear_5971_25265)"/>
<path d="M413.446 211.818C420.828 211.34 426.302 203.06 425.672 193.324C425.043 183.588 418.548 176.082 411.166 176.559C403.783 177.037 398.309 185.317 398.939 195.053C399.568 204.789 406.063 212.295 413.446 211.818Z" fill="#191919"/>
<path d="M425.71 194.192C425.44 184.446 419.222 176.543 411.821 176.543C408.687 176.543 405.84 177.963 403.623 180.337C403.992 180.291 404.366 180.266 404.748 180.266C411.464 180.266 417.105 187.435 417.35 196.276C417.541 203.237 414.328 209.16 409.679 211.364C410.684 211.676 411.726 211.842 412.796 211.842C420.201 211.842 425.984 203.938 425.718 194.192H425.71Z" fill="url(#paint55_linear_5971_25265)"/>
<path d="M236.119 222.842L230.171 222.277L62.9297 369.819V376.335L236.115 366.203L236.119 222.842Z" fill="url(#paint56_linear_5971_25265)"/>
<path d="M209.07 294.145H192.197C172.701 294.145 156.898 309.947 156.898 329.443V393.163L209.07 402.465V294.145Z" fill="url(#paint57_linear_5971_25265)"/>
<path d="M181.632 383.614V339.856C181.632 334.323 183.18 329.201 185.928 325.943C184.604 324.947 183.164 324.307 181.632 324.096C174.032 323.241 169.279 331.575 169.279 341.156V382.664L181.632 383.614Z" fill="url(#paint58_linear_5971_25265)"/>
<path d="M193.985 385.74V348.308C193.985 338.064 190.769 329.596 185.933 325.947C183.185 329.206 181.637 334.328 181.637 339.861V383.619L193.99 385.74H193.985Z" fill="#191919"/>
<path d="M193.985 381.623L181.254 380.328L169.279 381.171V382.511L193.985 385.587V381.623Z" fill="url(#paint59_linear_5971_25265)"/>
<path d="M304.458 188.917V284.195L274.174 286.515V144.922C274.174 136.031 280.396 128.356 289.096 126.521L304.458 188.917Z" fill="url(#paint60_linear_5971_25265)"/>
<path d="M304.46 129.012L289.098 126.521V190.689L304.46 188.917V129.012Z" fill="url(#paint61_linear_5971_25265)"/>
<path d="M398.906 242.416V390.14L464.896 381.012L458.761 352.836L459.093 245.566L398.906 242.416Z" fill="url(#paint62_linear_5971_25265)"/>
<path d="M365.752 417.497V439.19L479.489 456.47V400.919L452.463 398.267V368.09L427.595 366.434V256.678C416.268 257.234 407.368 266.582 407.368 277.926V422.312L365.752 417.506V417.497Z" fill="url(#paint63_linear_5971_25265)"/>
<path d="M479.488 456.644L512.151 449.181V395.955L479.488 401.094V456.644Z" fill="url(#paint64_linear_5971_25265)"/>
<path d="M512.15 395.955L486.12 393.631L452.461 398.442L479.487 401.094L512.15 395.955Z" fill="url(#paint65_linear_5971_25265)"/>
<path d="M365.752 417.262L403.554 411.621L407.368 412.065V422.737L365.752 417.262Z" fill="#4CAC98"/>
<path d="M486.12 393.469V364.824L452.461 368.103V398.28L486.12 393.469Z" fill="url(#paint66_linear_5971_25265)"/>
<path d="M465.613 362.825V258.776L427.592 256.676V365.913L465.613 362.825Z" fill="url(#paint67_linear_5971_25265)"/>
<path d="M342.041 237.605L389.958 241.968L371.591 384.752L342.041 388.235V237.605Z" fill="url(#paint68_linear_5971_25265)"/>
<path d="M398.909 390.14L371.588 386.62V271.476C371.588 256.093 383.555 243.363 398.909 242.412V390.136V390.14Z" fill="url(#paint69_linear_5971_25265)"/>
<path d="M277.825 276.902L242.547 277.454V330.178L277.825 312.384V276.902Z" fill="url(#paint70_linear_5971_25265)"/>
<path d="M209.068 294.145H264.889V395.981L209.068 402.465V294.145Z" fill="url(#paint71_linear_5971_25265)"/>
<path d="M277.822 276.902H309.875V351.181L278.482 354.415L277.822 312.384V276.902Z" fill="url(#paint72_linear_5971_25265)"/>
<path d="M264.891 307.186H290.647V373.844L264.891 376.048V307.186Z" fill="url(#paint73_linear_5971_25265)"/>
<path d="M309.877 239.652L342.042 237.605V388.231C323.6 385.649 309.877 369.872 309.877 351.251V239.652Z" fill="url(#paint74_linear_5971_25265)"/>
<path d="M530.361 266.002V391.926L584.438 383.014V268.513L530.361 266.002Z" fill="url(#paint75_linear_5971_25265)"/>
<path d="M530.359 391.926V266.002L493.736 266.994V388.306L530.359 391.926Z" fill="url(#paint76_linear_5971_25265)"/>
<path d="M453.528 290.824L450.502 282.39C452.299 281.157 453.49 278.907 453.49 276.3C453.49 272.253 450.618 268.87 447.077 268.742C443.537 268.617 440.664 271.793 440.664 275.844C440.664 278.451 441.856 280.783 443.653 282.145L440.631 290.347C440.233 291.43 441.009 292.588 442.163 292.626L451.955 292.974C453.092 293.016 453.914 291.891 453.528 290.82V290.824Z" fill="url(#paint77_linear_5971_25265)"/>
<path d="M447.491 292.821L443.746 282.394C445.544 281.161 446.735 278.911 446.735 276.304C446.735 273.698 445.444 271.178 443.526 269.846C441.8 271.099 440.662 273.299 440.662 275.848C440.662 278.396 441.854 280.787 443.651 282.149L440.604 290.417C440.218 291.467 440.97 292.592 442.09 292.63L447.486 292.821H447.491Z" fill="#191919"/>
<path d="M465.613 362.824L427.592 365.912V303.094L465.613 303.762V362.824Z" fill="url(#paint78_linear_5971_25265)"/>
<path d="M486.118 364.824L465.613 362.836L427.592 365.924L452.459 368.103L486.118 364.824Z" fill="url(#paint79_linear_5971_25265)"/>
<path d="M407.365 364.177L427.592 366.431V303.094H407.365V364.177Z" fill="url(#paint80_linear_5971_25265)"/>
<path d="M407.531 393.328L452.46 398.18V368.004L407.365 364.094L407.531 393.328Z" fill="url(#paint81_linear_5971_25265)"/>
<path d="M407.365 445.533L479.486 456.417V400.866L407.365 393.859V445.533Z" fill="url(#paint82_linear_5971_25265)"/>
<path d="M223.758 222.962C221.396 223.186 219.374 223.78 217.702 225.257L56.2053 366.286C54.5367 367.743 53.582 369.847 53.582 372.06V375.127L62.9255 376.339V373.363C62.9255 371.113 63.8927 368.967 65.5821 367.477L230.167 222.281L223.758 222.966V222.962Z" fill="url(#paint83_linear_5971_25265)"/>
<path d="M454.428 127.413L477.307 122.104V85.6309L454.428 92.8159V127.413Z" fill="url(#paint84_linear_5971_25265)"/>
<path d="M477.309 122.104L504.169 128.293V120.755C504.169 104.326 493.165 89.9355 477.309 85.627V122.104Z" fill="url(#paint85_linear_5971_25265)"/>
<path d="M454.428 127.412L478.274 134.365L504.167 128.297L477.307 122.104L454.428 127.412Z" fill="black"/>
<path d="M365.752 438.95L407.368 445.346V422.737L365.752 417.262V438.95Z" fill="url(#paint86_linear_5971_25265)"/>
<path d="M258.182 173.21L209.373 179.835C208.368 179.972 207.555 179.267 207.555 178.262V171.459C207.555 170.454 208.368 169.529 209.373 169.392L258.182 162.767C259.187 162.63 260 163.336 260 164.34V171.143C260 172.148 259.187 173.074 258.182 173.21Z" fill="url(#paint87_linear_5971_25265)"/>
<path d="M258.182 162.767L209.373 169.392C208.368 169.529 207.555 170.454 207.555 171.459V173.177C207.555 174.182 208.368 174.887 209.373 174.75L258.182 168.126C259.187 167.989 260 167.063 260 166.059V164.34C260 163.336 259.187 162.63 258.182 162.767Z" fill="#EBE6DC"/>
<path d="M215.361 173.637L214.244 174.185L215.008 174.924L214.29 175.634L213.564 174.716L212.846 175.82L212.127 175.306L212.904 174.355L211.787 174.098L212.165 173.193L213.144 173.562L213.107 172.462L214.029 172.338L213.991 173.459L214.971 172.824L215.357 173.633L215.361 173.637Z" fill="#401695"/>
<path d="M221.117 172.856L220 173.404L220.764 174.143L220.046 174.852L219.32 173.935L218.601 175.039L217.883 174.524L218.66 173.574L217.543 173.317L217.921 172.412L218.9 172.781L218.863 171.681L219.784 171.557L219.747 172.677L220.727 172.042L221.113 172.852L221.117 172.856Z" fill="#401695"/>
<path d="M226.875 172.073L225.758 172.621L226.522 173.359L225.804 174.069L225.077 173.152L224.359 174.256L223.641 173.741L224.417 172.791L223.301 172.533L223.678 171.629L224.658 171.998L224.621 170.898L225.542 170.773L225.505 171.894L226.484 171.259L226.87 172.068L226.875 172.073Z" fill="#401695"/>
<path d="M232.632 171.291L231.516 171.839L232.28 172.578L231.562 173.288L230.835 172.371L230.117 173.475L229.399 172.96L230.175 172.01L229.059 171.752L229.436 170.847L230.416 171.217L230.379 170.117L231.3 169.992L231.263 171.113L232.242 170.478L232.628 171.287L232.632 171.291Z" fill="#401695"/>
<path d="M238.39 170.512L237.274 171.06L238.037 171.799L237.319 172.509L236.593 171.591L235.875 172.695L235.157 172.181L235.933 171.23L234.816 170.973L235.194 170.068L236.174 170.437L236.136 169.337L237.058 169.213L237.02 170.334L238 169.699L238.386 170.508L238.39 170.512Z" fill="#401695"/>
<path d="M244.15 169.731L243.033 170.279L243.797 171.018L243.079 171.727L242.353 170.81L241.635 171.914L240.917 171.399L241.693 170.449L240.576 170.192L240.954 169.287L241.933 169.656L241.896 168.556L242.818 168.432L242.78 169.552L243.76 168.917L244.146 169.727L244.15 169.731Z" fill="#401695"/>
<path d="M249.91 168.948L248.793 169.496L249.557 170.234L248.839 170.944L248.112 170.027L247.394 171.131L246.676 170.616L247.453 169.666L246.336 169.408L246.714 168.504L247.693 168.873L247.656 167.773L248.577 167.648L248.54 168.769L249.52 168.134L249.906 168.943L249.91 168.948Z" fill="#401695"/>
<path d="M255.664 168.166L254.547 168.714L255.311 169.453L254.593 170.163L253.866 169.246L253.148 170.35L252.43 169.835L253.206 168.884L252.09 168.627L252.468 167.722L253.447 168.092L253.41 166.992L254.331 166.867L254.294 167.988L255.274 167.353L255.66 168.162L255.664 168.166Z" fill="#401695"/>
<path opacity="0.7" d="M478.362 234.305L506.621 237.016V245.965L478.362 243.171C477.512 243.08 476.818 242.316 476.818 241.461V235.687C476.818 234.836 477.512 234.218 478.362 234.305Z" fill="black"/>
<path d="M481.421 240.291L522.846 243.985C523.697 244.077 524.39 243.458 524.39 242.603V237.539C524.39 236.688 523.697 235.92 522.846 235.829L481.421 231.425C480.57 231.334 479.877 231.952 479.877 232.807V238.581C479.877 239.432 480.57 240.2 481.421 240.291Z" fill="url(#paint88_linear_5971_25265)"/>
<path d="M481.421 231.43L522.846 235.834C523.697 235.925 524.39 236.689 524.39 237.544V239.005C524.39 239.856 523.697 240.475 522.846 240.388L481.421 235.984C480.57 235.892 479.877 235.128 479.877 234.273V232.812C479.877 231.961 480.57 231.343 481.421 231.43Z" fill="#EBE6DC"/>
<path d="M518.096 238.889L518.926 239.404L518.893 238.453L519.673 238.536L519.64 239.47L520.47 239.13L520.79 239.889L519.843 240.134L520.503 240.919L519.893 241.371L519.283 240.45L518.665 241.247L518.054 240.666L518.706 240.018L517.76 239.582L518.088 238.885L518.096 238.889Z" fill="#401695"/>
<path d="M513.209 238.369L514.039 238.884L514.006 237.934L514.787 238.017L514.753 238.951L515.584 238.61L515.903 239.37L514.957 239.615L515.617 240.399L515.007 240.852L514.396 239.93L513.778 240.727L513.168 240.146L513.819 239.498L512.873 239.063L513.201 238.365L513.209 238.369Z" fill="#401695"/>
<path d="M508.321 237.85L509.151 238.365L509.118 237.414L509.898 237.497L509.865 238.431L510.695 238.091L511.014 238.85L510.068 239.095L510.728 239.88L510.118 240.332L509.508 239.411L508.889 240.208L508.279 239.626L508.931 238.979L507.984 238.543L508.312 237.846L508.321 237.85Z" fill="#401695"/>
<path d="M503.436 237.332L504.266 237.847L504.233 236.896L505.013 236.98L504.98 237.913L505.81 237.573L506.13 238.333L505.183 238.578L505.843 239.362L505.233 239.815L504.623 238.893L504.005 239.69L503.394 239.109L504.046 238.461L503.1 238.026L503.428 237.328L503.436 237.332Z" fill="#401695"/>
<path d="M498.551 236.813L499.381 237.328L499.348 236.377L500.128 236.46L500.095 237.394L500.925 237.054L501.245 237.813L500.299 238.058L500.959 238.843L500.348 239.295L499.738 238.374L499.12 239.17L498.51 238.589L499.161 237.942L498.215 237.506L498.543 236.809L498.551 236.813Z" fill="#401695"/>
<path d="M493.66 236.289L494.491 236.804L494.457 235.854L495.238 235.937L495.205 236.87L496.035 236.53L496.354 237.29L495.408 237.535L496.068 238.319L495.458 238.772L494.848 237.85L494.229 238.647L493.619 238.066L494.271 237.418L493.324 236.983L493.652 236.285L493.66 236.289Z" fill="#401695"/>
<path d="M488.776 235.772L489.606 236.286L489.573 235.336L490.353 235.419L490.32 236.353L491.15 236.013L491.47 236.772L490.523 237.017L491.183 237.802L490.573 238.254L489.963 237.332L489.344 238.129L488.734 237.548L489.386 236.901L488.439 236.465L488.767 235.768L488.776 235.772Z" fill="#401695"/>
<path d="M483.889 235.252L484.719 235.767L484.686 234.816L485.466 234.899L485.433 235.833L486.263 235.493L486.583 236.253L485.636 236.497L486.296 237.282L485.686 237.734L485.076 236.813L484.458 237.61L483.847 237.029L484.499 236.381L483.553 235.945L483.881 235.248L483.889 235.252Z" fill="#401695"/>
<path d="M153.093 239.794L148.768 228.491C148.589 228.03 148.71 227.507 149.067 227.163C151.067 225.245 152.325 222.559 152.325 219.658C152.325 214.229 147.925 210.094 142.496 210.418C137.067 210.742 132.667 215.407 132.667 220.837C132.667 224.02 134.182 226.756 136.527 228.412L131.978 240.844C131.442 242.305 132.584 243.836 134.136 243.745L151.204 242.72C152.661 242.633 153.616 241.155 153.093 239.789V239.794Z" fill="black"/>
<path d="M138.962 240.848L142.76 230.467C143.171 229.346 142.938 228.076 142.125 227.208C140.585 225.565 139.651 223.34 139.651 220.841C139.651 216.441 142.544 212.539 146.533 211.049C145.3 210.568 143.934 210.335 142.49 210.422C137.061 210.746 132.661 215.412 132.661 220.841C132.661 223.672 133.86 226.15 135.774 227.831C136.218 228.217 136.363 228.844 136.164 229.396L131.972 240.852C131.436 242.313 132.578 243.845 134.13 243.753L139.817 243.413C139.016 242.89 138.592 241.857 138.962 240.852V240.848Z" fill="url(#paint89_linear_5971_25265)"/>
<defs>
<linearGradient id="paint0_linear_5971_25265" x1="302.725" y1="127.056" x2="266.912" y2="199.567" gradientUnits="userSpaceOnUse">
<stop stop-color="#3F59D9"/>
<stop offset="1" stop-color="#401695"/>
</linearGradient>
<linearGradient id="paint1_linear_5971_25265" x1="266.987" y1="114.753" x2="255.933" y2="213.348" gradientUnits="userSpaceOnUse">
<stop offset="0.07" stop-color="#A6D9D3"/>
<stop offset="0.22" stop-color="#4CAC98"/>
<stop offset="0.37" stop-color="#478CB0"/>
<stop offset="0.65" stop-color="#3F59D9"/>
</linearGradient>
<linearGradient id="paint2_linear_5971_25265" x1="317.847" y1="12.3494" x2="317.503" y2="36.489" gradientUnits="userSpaceOnUse">
<stop stop-color="#3F59D9"/>
<stop offset="1" stop-color="#401695"/>
</linearGradient>
<linearGradient id="paint3_linear_5971_25265" x1="343.539" y1="3.50482" x2="345.974" y2="30.3171" gradientUnits="userSpaceOnUse">
<stop stop-color="#3F59D9"/>
<stop offset="1" stop-color="#401695"/>
</linearGradient>
<linearGradient id="paint4_linear_5971_25265" x1="371.988" y1="-0.384218" x2="373.245" y2="18.5558" gradientUnits="userSpaceOnUse">
<stop stop-color="#3F59D9"/>
<stop offset="1" stop-color="#401695"/>
</linearGradient>
<linearGradient id="paint5_linear_5971_25265" x1="378.427" y1="8.34316" x2="278.01" y2="418.453" gradientUnits="userSpaceOnUse">
<stop offset="0.07" stop-color="#A6D9D3"/>
<stop offset="0.22" stop-color="#4CAC98"/>
<stop offset="0.37" stop-color="#478CB0"/>
<stop offset="0.65" stop-color="#3F59D9"/>
</linearGradient>
<linearGradient id="paint6_linear_5971_25265" x1="474.148" y1="4.07129" x2="474.148" y2="95.9084" gradientUnits="userSpaceOnUse">
<stop offset="0.07" stop-color="#A6D9D3"/>
<stop offset="0.22" stop-color="#4CAC98"/>
<stop offset="0.37" stop-color="#478CB0"/>
<stop offset="0.65" stop-color="#3F59D9"/>
</linearGradient>
<linearGradient id="paint7_linear_5971_25265" x1="448.997" y1="4.07143" x2="448.997" y2="95.9085" gradientUnits="userSpaceOnUse">
<stop offset="0.07" stop-color="#A6D9D3"/>
<stop offset="0.22" stop-color="#4CAC98"/>
<stop offset="0.37" stop-color="#478CB0"/>
<stop offset="0.65" stop-color="#3F59D9"/>
</linearGradient>
<linearGradient id="paint8_linear_5971_25265" x1="423.843" y1="4.07158" x2="423.843" y2="95.9087" gradientUnits="userSpaceOnUse">
<stop offset="0.07" stop-color="#A6D9D3"/>
<stop offset="0.22" stop-color="#4CAC98"/>
<stop offset="0.37" stop-color="#478CB0"/>
<stop offset="0.65" stop-color="#3F59D9"/>
</linearGradient>
<linearGradient id="paint9_linear_5971_25265" x1="460.323" y1="-14.7211" x2="338.232" y2="135.378" gradientUnits="userSpaceOnUse">
<stop stop-color="#3F59D9"/>
<stop offset="1" stop-color="#401695"/>
</linearGradient>
<linearGradient id="paint10_linear_5971_25265" x1="347.728" y1="206.288" x2="386.443" y2="35.6794" gradientUnits="userSpaceOnUse">
<stop offset="0.44"/>
<stop offset="0.94" stop-color="#401695"/>
</linearGradient>
<linearGradient id="paint11_linear_5971_25265" x1="373.675" y1="74.3626" x2="336.235" y2="111.803" gradientUnits="userSpaceOnUse">
<stop offset="0.07" stop-color="#A6D9D3"/>
<stop offset="0.22" stop-color="#4CAC98"/>
<stop offset="0.37" stop-color="#478CB0"/>
<stop offset="0.65" stop-color="#3F59D9"/>
</linearGradient>
<linearGradient id="paint12_linear_5971_25265" x1="370.325" y1="55.6553" x2="337.753" y2="88.2269" gradientUnits="userSpaceOnUse">
<stop offset="0.15" stop-color="#3F59D9"/>
<stop offset="0.54" stop-color="#4CAC98"/>
<stop offset="1" stop-color="#3F59D9"/>
</linearGradient>
<linearGradient id="paint13_linear_5971_25265" x1="387.68" y1="73.0136" x2="355.109" y2="105.585" gradientUnits="userSpaceOnUse">
<stop offset="0.15" stop-color="#3F59D9"/>
<stop offset="0.54" stop-color="#4CAC98"/>
<stop offset="1" stop-color="#3F59D9"/>
</linearGradient>
<radialGradient id="paint14_radial_5971_25265" cx="0" cy="0" r="1" gradientUnits="userSpaceOnUse" gradientTransform="translate(558.944 184.235) rotate(6.92999) scale(16.9437 16.9437)">
<stop offset="0.17" stop-color="#201933"/>
<stop offset="1" stop-color="#3F59D9"/>
</radialGradient>
<linearGradient id="paint15_linear_5971_25265" x1="451.772" y1="150.937" x2="429.221" y2="305.236" gradientUnits="userSpaceOnUse">
<stop offset="0.07" stop-color="#A6D9D3"/>
<stop offset="0.22" stop-color="#4CAC98"/>
<stop offset="0.37" stop-color="#478CB0"/>
<stop offset="0.65" stop-color="#3F59D9"/>
</linearGradient>
<linearGradient id="paint16_linear_5971_25265" x1="274.967" y1="346.172" x2="606.817" y2="346.172" gradientUnits="userSpaceOnUse">
<stop stop-color="#3F59D9"/>
<stop offset="1" stop-color="#401695"/>
</linearGradient>
<linearGradient id="paint17_linear_5971_25265" x1="100.032" y1="297.709" x2="100.032" y2="211.496" gradientUnits="userSpaceOnUse">
<stop/>
<stop offset="1" stop-color="#401695"/>
</linearGradient>
<linearGradient id="paint18_linear_5971_25265" x1="127.385" y1="179.029" x2="125.986" y2="191.706" gradientUnits="userSpaceOnUse">
<stop stop-color="#3F59D9"/>
<stop offset="1" stop-color="#401695"/>
</linearGradient>
<linearGradient id="paint19_linear_5971_25265" x1="141.339" y1="175.675" x2="141.264" y2="189.896" gradientUnits="userSpaceOnUse">
<stop stop-color="#3F59D9"/>
<stop offset="1" stop-color="#401695"/>
</linearGradient>
<linearGradient id="paint20_linear_5971_25265" x1="156.496" y1="175.069" x2="156.201" y2="185.094" gradientUnits="userSpaceOnUse">
<stop stop-color="#3F59D9"/>
<stop offset="1" stop-color="#401695"/>
</linearGradient>
<linearGradient id="paint21_linear_5971_25265" x1="182.287" y1="175.995" x2="182.287" y2="200.298" gradientUnits="userSpaceOnUse">
<stop offset="0.07" stop-color="#A6D9D3"/>
<stop offset="0.22" stop-color="#4CAC98"/>
<stop offset="0.37" stop-color="#478CB0"/>
<stop offset="0.65" stop-color="#3F59D9"/>
</linearGradient>
<linearGradient id="paint22_linear_5971_25265" x1="180.507" y1="165.402" x2="180.507" y2="244.235" gradientUnits="userSpaceOnUse">
<stop stop-color="#3F59D9"/>
<stop offset="1" stop-color="#401695"/>
</linearGradient>
<linearGradient id="paint23_linear_5971_25265" x1="163.999" y1="189.315" x2="104.978" y2="350.471" gradientUnits="userSpaceOnUse">
<stop offset="0.07" stop-color="#A6D9D3"/>
<stop offset="0.22" stop-color="#4CAC98"/>
<stop offset="0.37" stop-color="#478CB0"/>
<stop offset="0.65" stop-color="#3F59D9"/>
</linearGradient>
<linearGradient id="paint24_linear_5971_25265" x1="110.111" y1="285.991" x2="79.0376" y2="341.691" gradientUnits="userSpaceOnUse">
<stop offset="0.07" stop-color="#A6D9D3"/>
<stop offset="0.22" stop-color="#4CAC98"/>
<stop offset="0.37" stop-color="#478CB0"/>
<stop offset="0.65" stop-color="#3F59D9"/>
</linearGradient>
<linearGradient id="paint25_linear_5971_25265" x1="79.747" y1="263.805" x2="70.7688" y2="318.127" gradientUnits="userSpaceOnUse">
<stop offset="0.07" stop-color="#A6D9D3"/>
<stop offset="0.22" stop-color="#4CAC98"/>
<stop offset="0.37" stop-color="#478CB0"/>
<stop offset="0.65" stop-color="#3F59D9"/>
</linearGradient>
<linearGradient id="paint26_linear_5971_25265" x1="539.251" y1="235.218" x2="582.718" y2="300.241" gradientUnits="userSpaceOnUse">
<stop offset="0.07" stop-color="#A6D9D3"/>
<stop offset="0.22" stop-color="#4CAC98"/>
<stop offset="0.37" stop-color="#478CB0"/>
<stop offset="0.65" stop-color="#3F59D9"/>
</linearGradient>
<linearGradient id="paint27_linear_5971_25265" x1="223.258" y1="141.859" x2="223.258" y2="157.491" gradientUnits="userSpaceOnUse">
<stop stop-color="#3F59D9"/>
<stop offset="1" stop-color="#401695"/>
</linearGradient>
<linearGradient id="paint28_linear_5971_25265" x1="247.229" y1="319.813" x2="247.229" y2="158.69" gradientUnits="userSpaceOnUse">
<stop/>
<stop offset="1" stop-color="#401695"/>
</linearGradient>
<linearGradient id="paint29_linear_5971_25265" x1="258.623" y1="143.83" x2="201.811" y2="283.099" gradientUnits="userSpaceOnUse">
<stop offset="0.07" stop-color="#A6D9D3"/>
<stop offset="0.22" stop-color="#4CAC98"/>
<stop offset="0.37" stop-color="#478CB0"/>
<stop offset="0.65" stop-color="#3F59D9"/>
</linearGradient>
<linearGradient id="paint30_linear_5971_25265" x1="354.095" y1="144.623" x2="180.312" y2="555.912" gradientUnits="userSpaceOnUse">
<stop offset="0.07" stop-color="#A6D9D3"/>
<stop offset="0.22" stop-color="#4CAC98"/>
<stop offset="0.37" stop-color="#478CB0"/>
<stop offset="0.65" stop-color="#3F59D9"/>
</linearGradient>
<linearGradient id="paint31_linear_5971_25265" x1="293.564" y1="84.6024" x2="293.564" y2="124.396" gradientUnits="userSpaceOnUse">
<stop stop-color="#3F59D9"/>
<stop offset="1" stop-color="#401695"/>
</linearGradient>
<linearGradient id="paint32_linear_5971_25265" x1="262.608" y1="78.4716" x2="262.608" y2="210.19" gradientUnits="userSpaceOnUse">
<stop offset="0.07" stop-color="#A6D9D3"/>
<stop offset="0.22" stop-color="#4CAC98"/>
<stop offset="0.37" stop-color="#478CB0"/>
<stop offset="0.65" stop-color="#3F59D9"/>
</linearGradient>
<linearGradient id="paint33_linear_5971_25265" x1="35.1658" y1="189.876" x2="16.375" y2="375.127" gradientUnits="userSpaceOnUse">
<stop offset="0.07" stop-color="#A6D9D3"/>
<stop offset="0.22" stop-color="#4CAC98"/>
<stop offset="0.37" stop-color="#478CB0"/>
<stop offset="0.65" stop-color="#3F59D9"/>
</linearGradient>
<linearGradient id="paint34_linear_5971_25265" x1="60.5318" y1="162.638" x2="60.5318" y2="313.442" gradientUnits="userSpaceOnUse">
<stop stop-color="#3F59D9"/>
<stop offset="1" stop-color="#401695"/>
</linearGradient>
<linearGradient id="paint35_linear_5971_25265" x1="96.3307" y1="221.533" x2="113.997" y2="283.115" gradientUnits="userSpaceOnUse">
<stop stop-color="#3F59D9"/>
<stop offset="1" stop-color="#401695"/>
</linearGradient>
<linearGradient id="paint36_linear_5971_25265" x1="467.089" y1="-265.301" x2="-206.001" y2="803.89" gradientUnits="userSpaceOnUse">
<stop offset="0.07" stop-color="#A6D9D3"/>
<stop offset="0.22" stop-color="#4CAC98"/>
<stop offset="0.37" stop-color="#478CB0"/>
<stop offset="0.65" stop-color="#3F59D9"/>
</linearGradient>
<linearGradient id="paint37_linear_5971_25265" x1="108.743" y1="276.42" x2="197.541" y2="404.278" gradientUnits="userSpaceOnUse">
<stop offset="0.07" stop-color="#A6D9D3"/>
<stop offset="0.22" stop-color="#4CAC98"/>
<stop offset="0.37" stop-color="#478CB0"/>
<stop offset="0.65" stop-color="#3F59D9"/>
</linearGradient>
<linearGradient id="paint38_linear_5971_25265" x1="380.88" y1="197.646" x2="374.247" y2="304.642" gradientUnits="userSpaceOnUse">
<stop offset="0.07" stop-color="#A6D9D3"/>
<stop offset="0.22" stop-color="#4CAC98"/>
<stop offset="0.37" stop-color="#478CB0"/>
<stop offset="0.65" stop-color="#3F59D9"/>
</linearGradient>
<linearGradient id="paint39_linear_5971_25265" x1="358.646" y1="195.18" x2="358.646" y2="264.275" gradientUnits="userSpaceOnUse">
<stop stop-color="#3F59D9"/>
<stop offset="1" stop-color="#401695"/>
</linearGradient>
<linearGradient id="paint40_linear_5971_25265" x1="412.008" y1="214.589" x2="412.008" y2="252.98" gradientUnits="userSpaceOnUse">
<stop stop-color="#3F59D9"/>
<stop offset="1" stop-color="#401695"/>
</linearGradient>
<linearGradient id="paint41_linear_5971_25265" x1="58.1728" y1="173.189" x2="43.9147" y2="215.963" gradientUnits="userSpaceOnUse">
<stop offset="0.07" stop-color="#A6D9D3"/>
<stop offset="0.22" stop-color="#4CAC98"/>
<stop offset="0.37" stop-color="#478CB0"/>
<stop offset="0.65" stop-color="#3F59D9"/>
</linearGradient>
<linearGradient id="paint42_linear_5971_25265" x1="67.6363" y1="174.023" x2="67.6363" y2="196.575" gradientUnits="userSpaceOnUse">
<stop stop-color="#3F59D9"/>
<stop offset="1" stop-color="#401695"/>
</linearGradient>
<linearGradient id="paint43_linear_5971_25265" x1="476.306" y1="139.795" x2="511.999" y2="213.527" gradientUnits="userSpaceOnUse">
<stop offset="0.07" stop-color="#A6D9D3"/>
<stop offset="0.22" stop-color="#4CAC98"/>
<stop offset="0.37" stop-color="#478CB0"/>
<stop offset="0.65" stop-color="#3F59D9"/>
</linearGradient>
<linearGradient id="paint44_linear_5971_25265" x1="512.756" y1="134.881" x2="512.756" y2="187.351" gradientUnits="userSpaceOnUse">
<stop stop-color="#3F59D9"/>
<stop offset="1" stop-color="#401695"/>
</linearGradient>
<linearGradient id="paint45_linear_5971_25265" x1="426.793" y1="162.846" x2="403.91" y2="209.601" gradientUnits="userSpaceOnUse">
<stop stop-color="#3F59D9"/>
<stop offset="1" stop-color="#401695"/>
</linearGradient>
<linearGradient id="paint46_linear_5971_25265" x1="382.768" y1="208.697" x2="380.409" y2="219.911" gradientUnits="userSpaceOnUse">
<stop stop-color="#3F59D9"/>
<stop offset="1" stop-color="#401695"/>
</linearGradient>
<linearGradient id="paint47_linear_5971_25265" x1="395.544" y1="206.917" x2="394.235" y2="219.631" gradientUnits="userSpaceOnUse">
<stop stop-color="#3F59D9"/>
<stop offset="1" stop-color="#401695"/>
</linearGradient>
<linearGradient id="paint48_linear_5971_25265" x1="409.153" y1="207.7" x2="408.013" y2="216.635" gradientUnits="userSpaceOnUse">
<stop stop-color="#3F59D9"/>
<stop offset="1" stop-color="#401695"/>
</linearGradient>
<linearGradient id="paint49_linear_5971_25265" x1="414.621" y1="221.097" x2="347.741" y2="360.087" gradientUnits="userSpaceOnUse">
<stop offset="0.07" stop-color="#A6D9D3"/>
<stop offset="0.22" stop-color="#4CAC98"/>
<stop offset="0.37" stop-color="#478CB0"/>
<stop offset="0.65" stop-color="#3F59D9"/>
</linearGradient>
<linearGradient id="paint50_linear_5971_25265" x1="499.211" y1="206.101" x2="493.574" y2="261.365" gradientUnits="userSpaceOnUse">
<stop offset="0.07" stop-color="#A6D9D3"/>
<stop offset="0.22" stop-color="#4CAC98"/>
<stop offset="0.37" stop-color="#478CB0"/>
<stop offset="0.65" stop-color="#3F59D9"/>
</linearGradient>
<linearGradient id="paint51_linear_5971_25265" x1="485.737" y1="204.727" x2="480.101" y2="259.991" gradientUnits="userSpaceOnUse">
<stop offset="0.07" stop-color="#A6D9D3"/>
<stop offset="0.22" stop-color="#4CAC98"/>
<stop offset="0.37" stop-color="#478CB0"/>
<stop offset="0.65" stop-color="#3F59D9"/>
</linearGradient>
<linearGradient id="paint52_linear_5971_25265" x1="472.268" y1="203.353" x2="466.627" y2="258.617" gradientUnits="userSpaceOnUse">
<stop offset="0.07" stop-color="#A6D9D3"/>
<stop offset="0.22" stop-color="#4CAC98"/>
<stop offset="0.37" stop-color="#478CB0"/>
<stop offset="0.65" stop-color="#3F59D9"/>
</linearGradient>
<linearGradient id="paint53_linear_5971_25265" x1="511.738" y1="199.314" x2="471.513" y2="274.984" gradientUnits="userSpaceOnUse">
<stop stop-color="#3F59D9"/>
<stop offset="1" stop-color="#401695"/>
</linearGradient>
<linearGradient id="paint54_linear_5971_25265" x1="396.383" y1="155.984" x2="360.242" y2="229.599" gradientUnits="userSpaceOnUse">
<stop offset="0.07" stop-color="#A6D9D3"/>
<stop offset="0.22" stop-color="#4CAC98"/>
<stop offset="0.37" stop-color="#478CB0"/>
<stop offset="0.65" stop-color="#3F59D9"/>
</linearGradient>
<linearGradient id="paint55_linear_5971_25265" x1="404.893" y1="211.373" x2="426.116" y2="164.946" gradientUnits="userSpaceOnUse">
<stop offset="0.07" stop-color="#A6D9D3"/>
<stop offset="0.22" stop-color="#4CAC98"/>
<stop offset="0.37" stop-color="#478CB0"/>
<stop offset="0.65" stop-color="#3F59D9"/>
</linearGradient>
<linearGradient id="paint56_linear_5971_25265" x1="146.183" y1="419.035" x2="158.565" y2="229.803" gradientUnits="userSpaceOnUse">
<stop/>
<stop offset="1" stop-color="#401695"/>
</linearGradient>
<linearGradient id="paint57_linear_5971_25265" x1="182.986" y1="275.823" x2="182.986" y2="445.654" gradientUnits="userSpaceOnUse">
<stop offset="0.07" stop-color="#A6D9D3"/>
<stop offset="0.22" stop-color="#4CAC98"/>
<stop offset="0.37" stop-color="#478CB0"/>
<stop offset="0.65" stop-color="#3F59D9"/>
</linearGradient>
<linearGradient id="paint58_linear_5971_25265" x1="177.606" y1="393.498" x2="177.606" y2="309.717" gradientUnits="userSpaceOnUse">
<stop offset="0.07" stop-color="#A6D9D3"/>
<stop offset="0.22" stop-color="#4CAC98"/>
<stop offset="0.37" stop-color="#478CB0"/>
<stop offset="0.65" stop-color="#3F59D9"/>
</linearGradient>
<linearGradient id="paint59_linear_5971_25265" x1="177.378" y1="370.213" x2="203.98" y2="444.347" gradientUnits="userSpaceOnUse">
<stop offset="0.07" stop-color="#A6D9D3"/>
<stop offset="0.22" stop-color="#4CAC98"/>
<stop offset="0.37" stop-color="#478CB0"/>
<stop offset="0.65" stop-color="#3F59D9"/>
</linearGradient>
<linearGradient id="paint60_linear_5971_25265" x1="289.316" y1="127.049" x2="289.316" y2="356.523" gradientUnits="userSpaceOnUse">
<stop offset="0.07" stop-color="#A6D9D3"/>
<stop offset="0.22" stop-color="#4CAC98"/>
<stop offset="0.37" stop-color="#478CB0"/>
<stop offset="0.65" stop-color="#3F59D9"/>
</linearGradient>
<linearGradient id="paint61_linear_5971_25265" x1="296.777" y1="126.165" x2="296.777" y2="194.699" gradientUnits="userSpaceOnUse">
<stop/>
<stop offset="1" stop-color="#401695"/>
</linearGradient>
<linearGradient id="paint62_linear_5971_25265" x1="431.901" y1="345.016" x2="431.901" y2="220.18" gradientUnits="userSpaceOnUse">
<stop/>
<stop offset="1" stop-color="#401695"/>
</linearGradient>
<linearGradient id="paint63_linear_5971_25265" x1="395.393" y1="220.043" x2="430.916" y2="480.993" gradientUnits="userSpaceOnUse">
<stop offset="0.07" stop-color="#A6D9D3"/>
<stop offset="0.22" stop-color="#4CAC98"/>
<stop offset="0.37" stop-color="#478CB0"/>
<stop offset="0.65" stop-color="#3F59D9"/>
</linearGradient>
<linearGradient id="paint64_linear_5971_25265" x1="490.654" y1="372.246" x2="497.287" y2="441.656" gradientUnits="userSpaceOnUse">
<stop stop-color="#3F59D9"/>
<stop offset="1" stop-color="#401695"/>
</linearGradient>
<linearGradient id="paint65_linear_5971_25265" x1="482.193" y1="388.351" x2="482.633" y2="422.836" gradientUnits="userSpaceOnUse">
<stop offset="0.07" stop-color="#A6D9D3"/>
<stop offset="0.22" stop-color="#4CAC98"/>
<stop offset="0.37" stop-color="#478CB0"/>
<stop offset="0.65" stop-color="#3F59D9"/>
</linearGradient>
<linearGradient id="paint66_linear_5971_25265" x1="462.527" y1="330.526" x2="470.264" y2="388.887" gradientUnits="userSpaceOnUse">
<stop stop-color="#3F59D9"/>
<stop offset="1" stop-color="#401695"/>
</linearGradient>
<linearGradient id="paint67_linear_5971_25265" x1="442.821" y1="243.422" x2="446.781" y2="315.584" gradientUnits="userSpaceOnUse">
<stop stop-color="#3F59D9"/>
<stop offset="1" stop-color="#401695"/>
</linearGradient>
<linearGradient id="paint68_linear_5971_25265" x1="372.263" y1="217.507" x2="351.845" y2="341.314" gradientUnits="userSpaceOnUse">
<stop stop-color="#3F59D9"/>
<stop offset="1" stop-color="#401695"/>
</linearGradient>
<linearGradient id="paint69_linear_5971_25265" x1="418.783" y1="232.986" x2="361.746" y2="395.133" gradientUnits="userSpaceOnUse">
<stop offset="0.07" stop-color="#A6D9D3"/>
<stop offset="0.22" stop-color="#4CAC98"/>
<stop offset="0.37" stop-color="#478CB0"/>
<stop offset="0.65" stop-color="#3F59D9"/>
</linearGradient>
<linearGradient id="paint70_linear_5971_25265" x1="260.184" y1="246.975" x2="260.184" y2="363.269" gradientUnits="userSpaceOnUse">
<stop offset="0.07" stop-color="#A6D9D3"/>
<stop offset="0.22" stop-color="#4CAC98"/>
<stop offset="0.37" stop-color="#478CB0"/>
<stop offset="0.65" stop-color="#3F59D9"/>
</linearGradient>
<linearGradient id="paint71_linear_5971_25265" x1="236.979" y1="249.959" x2="236.979" y2="382.03" gradientUnits="userSpaceOnUse">
<stop stop-color="#3F59D9"/>
<stop offset="1" stop-color="#401695"/>
</linearGradient>
<linearGradient id="paint72_linear_5971_25265" x1="293.849" y1="350.762" x2="293.849" y2="267.6" gradientUnits="userSpaceOnUse">
<stop/>
<stop offset="1" stop-color="#401695"/>
</linearGradient>
<linearGradient id="paint73_linear_5971_25265" x1="277.766" y1="380.825" x2="277.766" y2="313.416" gradientUnits="userSpaceOnUse">
<stop/>
<stop offset="1" stop-color="#401695"/>
</linearGradient>
<linearGradient id="paint74_linear_5971_25265" x1="367.918" y1="224.701" x2="291.92" y2="386.346" gradientUnits="userSpaceOnUse">
<stop offset="0.07" stop-color="#A6D9D3"/>
<stop offset="0.22" stop-color="#4CAC98"/>
<stop offset="0.37" stop-color="#478CB0"/>
<stop offset="0.65" stop-color="#3F59D9"/>
</linearGradient>
<linearGradient id="paint75_linear_5971_25265" x1="557.4" y1="401.165" x2="557.4" y2="271.178" gradientUnits="userSpaceOnUse">
<stop/>
<stop offset="1" stop-color="#401695"/>
</linearGradient>
<linearGradient id="paint76_linear_5971_25265" x1="491.005" y1="245.206" x2="533.007" y2="408.79" gradientUnits="userSpaceOnUse">
<stop offset="0.07" stop-color="#A6D9D3"/>
<stop offset="0.22" stop-color="#4CAC98"/>
<stop offset="0.37" stop-color="#478CB0"/>
<stop offset="0.65" stop-color="#3F59D9"/>
</linearGradient>
<linearGradient id="paint77_linear_5971_25265" x1="447.077" y1="295.627" x2="447.077" y2="259.585" gradientUnits="userSpaceOnUse">
<stop offset="0.07" stop-color="#A6D9D3"/>
<stop offset="0.22" stop-color="#4CAC98"/>
<stop offset="0.37" stop-color="#478CB0"/>
<stop offset="0.65" stop-color="#3F59D9"/>
</linearGradient>
<linearGradient id="paint78_linear_5971_25265" x1="442.85" y1="283.585" x2="448.3" y2="358.042" gradientUnits="userSpaceOnUse">
<stop stop-color="#3F59D9"/>
<stop offset="1" stop-color="#401695"/>
</linearGradient>
<linearGradient id="paint79_linear_5971_25265" x1="455.257" y1="355.481" x2="464.688" y2="413.953" gradientUnits="userSpaceOnUse">
<stop offset="0.07" stop-color="#A6D9D3"/>
<stop offset="0.22" stop-color="#4CAC98"/>
<stop offset="0.37" stop-color="#478CB0"/>
<stop offset="0.65" stop-color="#3F59D9"/>
</linearGradient>
<linearGradient id="paint80_linear_5971_25265" x1="414.426" y1="290.421" x2="422.541" y2="405.295" gradientUnits="userSpaceOnUse">
<stop offset="0.07" stop-color="#A6D9D3"/>
<stop offset="0.22" stop-color="#4CAC98"/>
<stop offset="0.37" stop-color="#478CB0"/>
<stop offset="0.65" stop-color="#3F59D9"/>
</linearGradient>
<linearGradient id="paint81_linear_5971_25265" x1="425.99" y1="351.899" x2="434.773" y2="414.954" gradientUnits="userSpaceOnUse">
<stop offset="0.07" stop-color="#A6D9D3"/>
<stop offset="0.22" stop-color="#4CAC98"/>
<stop offset="0.37" stop-color="#478CB0"/>
<stop offset="0.65" stop-color="#3F59D9"/>
</linearGradient>
<linearGradient id="paint82_linear_5971_25265" x1="442.979" y1="390.319" x2="444.092" y2="472.484" gradientUnits="userSpaceOnUse">
<stop offset="0.07" stop-color="#A6D9D3"/>
<stop offset="0.22" stop-color="#4CAC98"/>
<stop offset="0.37" stop-color="#478CB0"/>
<stop offset="0.65" stop-color="#3F59D9"/>
</linearGradient>
<linearGradient id="paint83_linear_5971_25265" x1="371.544" y1="-84.5604" x2="-101.908" y2="700.17" gradientUnits="userSpaceOnUse">
<stop offset="0.07" stop-color="#A6D9D3"/>
<stop offset="0.22" stop-color="#4CAC98"/>
<stop offset="0.37" stop-color="#478CB0"/>
<stop offset="0.65" stop-color="#3F59D9"/>
</linearGradient>
<linearGradient id="paint84_linear_5971_25265" x1="485.451" y1="82.4306" x2="435.38" y2="146.428" gradientUnits="userSpaceOnUse">
<stop offset="0.07" stop-color="#A6D9D3"/>
<stop offset="0.22" stop-color="#4CAC98"/>
<stop offset="0.37" stop-color="#478CB0"/>
<stop offset="0.65" stop-color="#3F59D9"/>
</linearGradient>
<linearGradient id="paint85_linear_5971_25265" x1="499.221" y1="93.8912" x2="482.493" y2="119.672" gradientUnits="userSpaceOnUse">
<stop stop-color="#3F59D9"/>
<stop offset="1" stop-color="#401695"/>
</linearGradient>
<linearGradient id="paint86_linear_5971_25265" x1="382.359" y1="375.33" x2="389.158" y2="465.191" gradientUnits="userSpaceOnUse">
<stop offset="0.07" stop-color="#A6D9D3"/>
<stop offset="0.22" stop-color="#4CAC98"/>
<stop offset="0.37" stop-color="#478CB0"/>
<stop offset="0.65" stop-color="#3F59D9"/>
</linearGradient>
<linearGradient id="paint87_linear_5971_25265" x1="236.376" y1="160.334" x2="247.654" y2="201.904" gradientUnits="userSpaceOnUse">
<stop offset="0.07" stop-color="#A6D9D3"/>
<stop offset="1" stop-color="#4CAC98"/>
</linearGradient>
<linearGradient id="paint88_linear_5971_25265" x1="679.606" y1="273.57" x2="671.01" y2="309.104" gradientUnits="userSpaceOnUse">
<stop offset="0.07" stop-color="#A6D9D3"/>
<stop offset="1" stop-color="#4CAC98"/>
</linearGradient>
<linearGradient id="paint89_linear_5971_25265" x1="131.839" y1="227.075" x2="146.533" y2="227.075" gradientUnits="userSpaceOnUse">
<stop stop-color="#3F59D9"/>
<stop offset="1" stop-color="#401695"/>
</linearGradient>
</defs>
</svg>
