<svg width="220" height="32" viewBox="0 0 220 32" fill="none" xmlns="http://www.w3.org/2000/svg">
<path d="M33.5136 14.084L37.6492 3.22676H39.2431L43.3626 14.084H41.9236L40.7782 11.1531H36.0553L34.9099 14.084H33.5136ZM40.3724 9.92831L38.4047 4.70025L36.4531 9.92831H40.3724Z" fill="black"/>
<path d="M49.3433 6.17373H50.6141V14.084H49.5142L49.3433 13.0304C48.8787 13.6187 48.1205 14.1776 46.8203 14.1776C45.0849 14.1776 43.7073 13.2015 43.7073 10.5781V6.17373H44.9781V10.5006C44.9781 12.1452 45.7203 13.0143 47.0366 13.0143C48.4756 13.0143 49.3433 11.9126 49.3433 10.1289V6.17373Z" fill="black"/>
<path d="M51.2202 7.33593V6.17265H52.6459V3.95574H53.9167V6.17265H55.9618V7.33593H53.9167V12.0051C53.9167 12.671 54.149 12.9197 54.8298 12.9197H56.0846V14.0829H54.707C53.1905 14.0829 52.6485 13.4171 52.6485 12.0211V7.33593H51.2202Z" fill="black"/>
<path d="M63.8537 9.67694V14.0813H62.5829V9.75449C62.5829 8.10985 61.7926 7.24074 60.431 7.24074C58.9599 7.24074 58.0469 8.34251 58.0469 10.1262V14.0813H56.776V3.22676H58.0469V7.47607C58.5114 6.73264 59.3177 6.08014 60.6473 6.08014C62.412 6.08014 63.8511 7.05622 63.8511 9.67961L63.8537 9.67694Z" fill="black"/>
<path d="M64.7373 8.40603C64.7373 5.32 66.4086 3.13251 68.8568 3.13251C71.305 3.13251 72.9603 5.32 72.9603 8.40603V8.90344C72.9603 12.1446 71.289 14.177 68.8568 14.177C66.4246 14.177 64.7373 12.1446 64.7373 8.90344V8.40603ZM71.6441 8.45149C71.6441 5.87624 70.5281 4.3252 68.8568 4.3252C67.1855 4.3252 66.0535 5.87624 66.0535 8.45149V8.8553C66.0535 11.4306 67.1695 12.9816 68.8568 12.9816C70.5441 12.9816 71.6441 11.4306 71.6441 8.8553V8.45149Z" fill="black"/>
<path d="M41.9823 24.9171C41.9823 27.3372 40.3723 28.9658 38.1884 28.9658C36.8562 28.9658 35.9591 28.423 35.4786 27.6635L35.3077 28.8722H34.2077V18.015H35.4786V22.2349C36.0045 21.5048 36.8562 20.871 38.1884 20.871C40.3723 20.871 41.9823 22.3445 41.9823 24.9198V24.9171ZM40.682 24.9171C40.682 23.1949 39.6301 22.0022 38.0656 22.0022C36.5011 22.0022 35.4652 23.1976 35.4652 24.8877C35.4652 26.5778 36.5171 27.8346 38.0656 27.8346C39.6141 27.8346 40.682 26.6393 40.682 24.9198V24.9171Z" fill="black"/>
<path d="M41.9342 20.9614H43.2824L45.7146 27.2752L48.0694 20.9614H49.4177L45.7787 30.2061C45.2821 31.479 44.9884 31.9738 43.8751 31.9738H42.3587V30.8105H43.488C44.2169 30.8105 44.3397 30.6233 44.6334 29.8799L45.0205 28.9171L41.9395 20.9614H41.9342Z" fill="black"/>
<path d="M58.906 28.9619C55.8544 28.9619 53.7345 26.6353 53.7345 23.4397C53.7345 20.244 55.857 17.9174 58.906 17.9174C61.9549 17.9174 64.0774 20.244 64.0774 23.4397C64.0774 26.6353 61.9549 28.9619 58.906 28.9619ZM58.906 27.7211C61.1673 27.7211 62.6998 25.9374 62.6998 23.4397C62.6998 20.942 61.1673 19.1583 58.906 19.1583C56.6446 19.1583 55.1122 20.942 55.1122 23.4397C55.1122 25.9374 56.6446 27.7211 58.906 27.7211Z" fill="black"/>
<path d="M65.0549 18.015H66.3258V25.1658L70.2904 20.9619H71.8549L68.774 24.2352L72.0712 28.8722H70.5387L67.9223 25.1497L66.3284 26.7944V28.8722H65.0576V18.015H65.0549Z" fill="black"/>
<path d="M72.175 22.1247V20.9614H73.6006V18.7445H74.8715V20.9614H76.9166V22.1247H74.8715V26.7938C74.8715 27.4597 75.1038 27.7084 75.7846 27.7084H77.0394V28.8717H75.6617C74.1453 28.8717 73.6033 28.2058 73.6033 26.8099V22.1247H72.175Z" fill="black"/>
<path d="M85.191 27.7083V28.8716H84.4941C83.4422 28.8716 83.0845 28.4224 83.0685 27.6468C82.5719 28.3608 81.7843 28.9652 80.42 28.9652C78.6846 28.9652 77.5099 28.0961 77.5099 26.6547C77.5099 25.0716 78.6099 24.1891 80.6843 24.1891H83.0071V23.6462C83.0071 22.622 82.2782 22.0016 81.0394 22.0016C79.9234 22.0016 79.1812 22.5284 79.0264 23.336H77.7555C77.9424 21.785 79.1945 20.8704 81.1008 20.8704C83.1138 20.8704 84.2752 21.8786 84.2752 23.7238V27.1815C84.2752 27.6014 84.4301 27.7083 84.7852 27.7083H85.191ZM80.5615 25.2588C79.4322 25.2588 78.7967 25.6786 78.7967 26.5772C78.7967 27.3527 79.4615 27.8795 80.5161 27.8795C82.0966 27.8795 83.0097 26.9649 83.0097 25.6465V25.2588H80.5615Z" fill="black"/>
<path d="M1.68568 13.8914C6.92273 13.0271 11.0284 8.6915 11.8884 3.44586L12.1769 0.924634C12.2483 0.523985 11.9769 -0.034062 11.4712 0.00600287C7.51415 0.315075 3.77993 1.62291 1.70283 2.47286C0.671416 2.8964 0 3.89802 0 5.01412V13.2389C0 13.7254 0.437135 14.0974 0.917126 14.0201L1.68568 13.8942V13.8914Z" fill="black"/>
<path d="M14.4144 3.44604C15.2773 8.69168 19.3829 13.0273 24.6171 13.8915L25.3857 14.0175C25.8657 14.0976 26.3028 13.7256 26.3028 13.2362V5.01144C26.3028 3.89534 25.6314 2.89372 24.6 2.47018C22.52 1.61737 18.7886 0.312395 14.8316 0.00332316C14.323 -0.0367417 14.063 0.527028 14.123 0.921954L14.4116 3.44318L14.4144 3.44604Z" fill="black"/>
<path d="M24.6131 16.1954C17.4561 17.6091 14.1333 22.374 14.1333 31.3943C14.1333 31.8465 14.5819 32.1613 14.959 31.9094C18.2504 29.6858 25.4931 23.8821 26.2388 16.6218C26.2674 15.7089 25.1274 16.1382 24.6131 16.1954Z" fill="black"/>
<path d="M1.68832 16.1954C8.84534 17.6091 12.1681 22.374 12.1681 31.3943C12.1681 31.8465 11.7196 32.1613 11.3424 31.9094C8.05107 29.6858 0.808338 23.8821 0.0626373 16.6218C0.0340664 15.7089 1.17405 16.1382 1.68832 16.1954Z" fill="black"/>
<path fill-rule="evenodd" clip-rule="evenodd" d="M97.5244 32V2.45399e-08L98.0851 0V32H97.5244Z" fill="black"/>
<path d="M116.917 24.129H112.114V7.64683H116.917C122.144 7.64683 125.205 10.8726 125.205 15.8879C125.205 20.8796 122.144 24.129 116.917 24.129ZM113.385 8.82413V22.9517H116.917C121.415 22.9517 123.91 20.1968 123.91 15.8879C123.91 11.5555 121.415 8.82413 116.917 8.82413H113.385Z" fill="black"/>
<path d="M132.547 24.2702C129.156 24.2702 126.825 21.8215 126.825 18.0777C126.825 14.5458 129.062 12.0499 132.335 12.0499C135.537 12.0499 137.727 14.122 137.844 17.6774C137.844 17.8187 137.821 18.007 137.821 18.1719H128.073V18.3838C128.12 21.1622 129.792 23.1871 132.452 23.1871C134.407 23.1871 135.984 22.0334 136.455 20.1733H137.68C137.162 22.5749 135.16 24.2702 132.547 24.2702ZM128.167 17.1594H136.549C136.361 14.5458 134.689 13.1095 132.358 13.1095C130.168 13.1095 128.355 14.7341 128.167 17.1594Z" fill="black"/>
<path d="M142.702 24.129L138.04 12.1912H139.335L143.456 22.7398L147.553 12.1912H148.801L144.139 24.129H142.702Z" fill="black"/>
<path d="M154.737 24.2702C151.346 24.2702 149.015 21.8215 149.015 18.0777C149.015 14.5458 151.252 12.0499 154.525 12.0499C157.727 12.0499 159.917 14.122 160.035 17.6774C160.035 17.8187 160.011 18.007 160.011 18.1719H150.263V18.3838C150.31 21.1622 151.982 23.1871 154.643 23.1871C156.597 23.1871 158.174 22.0334 158.645 20.1733H159.87C159.352 22.5749 157.35 24.2702 154.737 24.2702ZM150.357 17.1594H158.74C158.551 14.5458 156.879 13.1095 154.548 13.1095C152.359 13.1095 150.546 14.7341 150.357 17.1594Z" fill="black"/>
<path d="M161.937 24.129V7.64683H163.138V24.129H161.937Z" fill="black"/>
<path d="M170.764 24.2702C167.397 24.2702 165.043 21.7744 165.043 18.1483C165.043 14.5458 167.397 12.0499 170.764 12.0499C174.132 12.0499 176.51 14.5458 176.51 18.1483C176.51 21.7744 174.132 24.2702 170.764 24.2702ZM170.764 23.1871C173.425 23.1871 175.262 21.1151 175.262 18.1483C175.262 15.2051 173.425 13.1095 170.764 13.1095C168.104 13.1095 166.267 15.2051 166.267 18.1483C166.267 21.1151 168.104 23.1871 170.764 23.1871Z" fill="black"/>
<path d="M184.194 12.0499C187.466 12.0499 189.821 14.4045 189.821 18.1483C189.821 21.7744 187.466 24.2702 184.194 24.2702C181.933 24.2702 180.308 23.1165 179.626 21.3741V28.8381H178.425V12.1912H179.461L179.649 14.9225C180.403 13.2508 181.957 12.0499 184.194 12.0499ZM184.099 23.1871C186.76 23.1871 188.597 21.1151 188.597 18.1483C188.597 15.2051 186.76 13.1095 184.099 13.1095C181.439 13.1095 179.602 15.2051 179.602 18.1248C179.602 21.1151 181.439 23.1871 184.099 23.1871Z" fill="black"/>
<path d="M197.002 24.2702C193.611 24.2702 191.28 21.8215 191.28 18.0777C191.28 14.5458 193.517 12.0499 196.79 12.0499C199.992 12.0499 202.182 14.122 202.299 17.6774C202.299 17.8187 202.276 18.007 202.276 18.1719H192.528V18.3838C192.575 21.1622 194.247 23.1871 196.907 23.1871C198.862 23.1871 200.439 22.0334 200.91 20.1733H202.135C201.617 22.5749 199.615 24.2702 197.002 24.2702ZM192.622 17.1594H201.004C200.816 14.5458 199.144 13.1095 196.813 13.1095C194.623 13.1095 192.81 14.7341 192.622 17.1594Z" fill="black"/>
<path d="M209.076 12.1912H209.712V13.3449H208.841C206.039 13.3449 205.403 15.6524 205.403 18.0777V24.129H204.202V12.1912H205.238L205.426 14.5693C205.921 13.2508 206.863 12.1912 209.076 12.1912Z" fill="black"/>
<path d="M210.18 20.4558H211.404C211.498 22.1747 212.982 23.2342 215.266 23.2342C217.22 23.2342 218.703 22.3395 218.703 20.9267C218.703 19.1608 217.079 18.9018 215.077 18.6192C212.628 18.2896 210.415 17.8422 210.415 15.4405C210.415 13.392 212.322 12.0264 214.983 12.0499C217.573 12.0499 219.48 13.2272 219.692 15.5583H218.468C218.256 14.0042 216.89 13.0859 214.983 13.0859C212.958 13.0859 211.616 13.9807 211.616 15.3463C211.616 17.0181 213.264 17.23 215.124 17.489C217.691 17.8422 219.904 18.3367 219.904 20.8561C219.904 22.9752 217.832 24.2702 215.266 24.2702C212.275 24.2702 210.274 22.9281 210.18 20.4558Z" fill="black"/>
</svg>
