<svg width="581" height="315" viewBox="0 0 581 315" fill="none" xmlns="http://www.w3.org/2000/svg">
<g opacity="0.3" clip-path="url(#clip0_5860_27514)">
<path d="M0.419922 -31.1777C128.642 -25.5344 253.21 24.9336 380.436 -1.67093C478.596 -22.3096 580.575 -13.7639 679.898 -30.694" stroke="url(#paint0_linear_5860_27514)" stroke-width="1.204" stroke-miterlimit="10"/>
<path d="M0.419922 -17.3105C130.137 -13.7633 260.684 38.4784 388.907 13.1638C485.073 -5.8625 583.731 4.61801 679.898 -16.8268" stroke="url(#paint1_linear_5860_27514)" stroke-width="1.204" stroke-miterlimit="10"/>
<path d="M0.419922 -3.44336C87.4516 -2.7984 169.501 9.77822 254.539 24.6123C305.031 33.4804 344.56 34.7703 394.72 25.4185C489.724 7.52087 585.724 21.3875 679.898 -2.95966" stroke="url(#paint2_linear_5860_27514)" stroke-width="1.204" stroke-miterlimit="10"/>
<path d="M0.419922 10.2607C88.7803 8.80959 172.49 18.6452 259.023 33.6405C309.183 42.3474 348.214 44.7659 398.208 35.5753C492.88 18.3226 586.721 37.0265 680.064 10.7444" stroke="url(#paint3_linear_5860_27514)" stroke-width="1.204" stroke-miterlimit="10"/>
<path d="M0.419922 24.1271C89.4447 20.5798 174.151 27.0294 261.515 41.8634C311.342 50.2479 349.875 53.4727 399.537 44.6045C494.707 27.6744 586.223 52.1827 679.898 24.6108" stroke="url(#paint4_linear_5860_27514)" stroke-width="1.204" stroke-miterlimit="10"/>
<path d="M0.419922 37.995C89.4447 32.3517 174.649 35.0927 262.512 49.6043C311.841 57.6663 349.875 61.5361 399.204 52.9904C495.869 36.0602 584.728 67.5019 680.064 38.64" stroke="url(#paint5_linear_5860_27514)" stroke-width="1.204" stroke-miterlimit="10"/>
<path d="M0.419922 51.8604C88.7803 44.1209 174.649 43.1534 262.179 57.1813C310.844 64.9208 348.547 70.8867 397.045 61.0511C500.354 40.0899 581.572 82.4959 679.732 52.3441" stroke="url(#paint6_linear_5860_27514)" stroke-width="1.204" stroke-miterlimit="10"/>
<path d="M0.419922 65.5666C85.4585 56.2147 169.334 51.3774 254.373 63.7929C300.712 70.5649 337.917 78.627 384.921 71.21C422.291 65.2441 454.513 56.8596 492.548 64.1154C565.129 77.8207 604.991 89.9137 679.898 66.2115" stroke="url(#paint7_linear_5860_27514)" stroke-width="1.204" stroke-miterlimit="10"/>
<path d="M0.419922 79.4336C84.462 68.6305 168.836 60.2461 253.21 72.3391C298.553 78.7887 334.429 87.6567 380.602 80.7234C417.64 75.0801 449.032 66.5344 486.568 74.7577C562.472 91.5266 600.008 105.554 679.732 80.0785" stroke="url(#paint8_linear_5860_27514)" stroke-width="1.204" stroke-miterlimit="10"/>
<path d="M0.419922 93.3001C83.2993 81.2071 167.175 70.7265 251.051 81.852C295.397 87.8179 330.443 97.0085 375.619 90.3977C412.658 85.0768 443.883 77.0148 481.419 85.883C502.347 90.8814 521.115 101.04 542.209 106.038C592.534 117.808 631.731 108.618 679.898 93.7838" stroke="url(#paint9_linear_5860_27514)" stroke-width="1.204" stroke-miterlimit="10"/>
<path d="M0.419922 107.167C82.1367 93.6225 165.348 81.6907 248.56 91.5263C292.574 96.686 327.121 105.554 371.965 99.1046C409.668 93.6225 441.557 86.0442 479.426 95.5573C500.354 100.878 519.122 111.52 540.049 117.002C590.707 130.224 630.569 121.517 679.898 107.65" stroke="url(#paint10_linear_5860_27514)" stroke-width="1.204" stroke-miterlimit="10"/>
<path d="M0.419922 120.87C81.1401 105.875 163.521 92.1699 246.4 100.554C290.581 105.069 324.962 113.292 369.64 106.681C408.173 101.038 441.225 93.1373 479.924 103.779C500.686 109.423 518.79 120.87 539.385 126.998C589.711 141.993 629.739 134.092 679.732 121.193" stroke="url(#paint11_linear_5860_27514)" stroke-width="1.204" stroke-miterlimit="10"/>
<path d="M0.419922 134.737C80.1436 118.13 161.86 102.973 244.407 109.745C288.92 113.454 323.633 121.032 368.644 114.099C408.173 107.972 443.052 99.4259 482.582 111.358C503.011 117.485 520.119 129.9 540.216 136.834C589.711 154.086 629.406 146.83 680.064 135.221" stroke="url(#paint12_linear_5860_27514)" stroke-width="1.204" stroke-miterlimit="10"/>
<path d="M0.419922 148.604C79.3131 130.384 160.033 113.615 242.248 118.936C287.425 121.839 322.636 128.449 367.979 121.194C408.506 114.583 445.876 104.908 486.236 118.453C506.167 125.225 522.112 138.446 541.378 146.347C589.711 166.018 628.908 159.73 679.898 149.249" stroke="url(#paint13_linear_5860_27514)" stroke-width="1.204" stroke-miterlimit="10"/>
<path d="M0.419922 162.471C78.1505 142.638 158.206 124.418 240.089 128.127C285.93 130.223 321.806 135.705 367.647 127.965C409.003 120.871 449.696 109.423 490.72 124.902C510.153 132.158 524.769 146.508 543.205 155.376C590.209 177.627 628.742 172.145 679.898 163.116" stroke="url(#paint14_linear_5860_27514)" stroke-width="1.204" stroke-miterlimit="10"/>
<path d="M0.419922 176.176C77.1539 154.732 156.047 135.06 237.432 137.479C284.103 138.769 320.477 143.284 366.983 134.899C409.17 127.321 453.35 114.099 495.039 131.191C514.139 139.091 527.261 154.409 544.866 164.245C590.209 189.237 628.244 184.561 679.898 176.821" stroke="url(#paint15_linear_5860_27514)" stroke-width="1.204" stroke-miterlimit="10"/>
<path d="M0.419922 190.043C75.8252 167.147 153.556 146.186 234.276 147.315C281.612 147.96 318.65 151.185 365.654 142.316C408.505 134.093 456.506 119.098 498.693 137.963C517.461 146.509 529.253 162.794 546.195 173.436C590.209 201.169 627.745 197.138 679.898 190.527" stroke="url(#paint16_linear_5860_27514)" stroke-width="1.204" stroke-miterlimit="10"/>
<path d="M0.419922 203.91C73.8321 179.724 151.064 156.989 230.622 157.634C278.456 157.957 315.827 159.73 363.329 150.217C406.845 141.51 458.499 124.741 501.184 145.219C519.952 154.248 530.582 171.501 546.859 182.949C589.711 213.101 626.915 209.876 679.898 204.394" stroke="url(#paint17_linear_5860_27514)" stroke-width="1.204" stroke-miterlimit="10"/>
<path d="M0.419922 217.776C72.0051 192.3 147.577 168.436 225.972 168.436C274.138 168.436 311.508 169.081 359.176 159.085C403.357 149.894 458.166 131.674 501.35 153.441C520.284 162.954 529.918 180.852 545.863 193.106C588.05 225.354 625.42 222.935 679.732 218.421" stroke="url(#paint18_linear_5860_27514)" stroke-width="1.204" stroke-miterlimit="10"/>
<path d="M0.419922 231.481C69.8459 205.844 143.258 181.335 219.66 180.207C267.826 179.562 306.027 179.078 353.529 169.081C398.706 159.568 455.177 140.864 499.191 162.793C518.624 172.467 528.589 190.848 544.866 203.586C587.219 236.802 624.423 235.512 679.898 232.126" stroke="url(#paint19_linear_5860_27514)" stroke-width="1.204" stroke-miterlimit="10"/>
<path d="M0.419922 245.347C66.358 221.484 135.95 196.169 208.199 192.138C255.702 189.559 297.557 188.914 344.727 180.207C391.564 171.661 448.533 154.247 494.042 174.886C514.638 184.238 526.928 202.619 544.368 215.034C588.05 246.315 624.092 247.766 679.732 245.67" stroke="url(#paint20_linear_5860_27514)" stroke-width="1.204" stroke-miterlimit="10"/>
<path d="M0.419922 259.215C63.3684 236.319 130.137 208.747 198.899 202.943C248.726 198.751 296.56 197.461 346.388 190.205C399.703 182.304 452.686 171.824 501.184 197.783C523.274 209.554 539.219 228.741 561.475 240.673C600.175 261.473 635.552 260.344 679.732 259.86" stroke="url(#paint21_linear_5860_27514)" stroke-width="1.204" stroke-miterlimit="10"/>
<path d="M0.419922 273.08C58.0535 251.797 119.009 222.129 181.625 213.744C230.954 207.133 282.774 208.584 332.768 203.747C388.242 198.426 443.218 190.526 494.374 214.228C518.125 225.192 537.392 242.928 560.977 254.376C600.174 273.403 636.05 273.564 679.898 273.564" stroke="url(#paint22_linear_5860_27514)" stroke-width="1.204" stroke-miterlimit="10"/>
<path d="M0.419922 286.786C52.9047 266.954 107.05 235.351 163.189 224.548C212.186 215.035 268.159 220.356 318.484 218.26C376.118 215.841 433.585 211.004 487.565 231.965C558.486 259.698 597.351 286.141 679.898 287.27" stroke="url(#paint23_linear_5860_27514)" stroke-width="1.204" stroke-miterlimit="10"/>
<path d="M0.419922 300.654C48.4202 282.273 94.9256 249.219 145.251 236.481C194.082 224.065 254.705 233.901 305.197 234.223C364.657 234.707 425.28 232.933 481.917 251.315C553.17 274.533 600.506 299.848 680.064 301.138" stroke="url(#paint24_linear_5860_27514)" stroke-width="1.204" stroke-miterlimit="10"/>
<path d="M0.419922 314.519C45.4306 297.428 83.2992 263.89 128.642 249.54C176.975 234.222 243.577 248.895 293.903 251.475C354.858 254.538 419.467 254.699 478.097 271.307C548.686 291.301 603.662 313.552 679.898 315.003" stroke="url(#paint25_linear_5860_27514)" stroke-width="1.204" stroke-miterlimit="10"/>
<path d="M0.419922 328.385C44.1018 312.745 73.0015 279.852 114.856 264.373C163.023 246.476 235.937 265.663 286.262 270.017C349.377 275.499 415.647 277.917 477.433 291.784C547.191 307.424 606.652 327.418 680.064 328.869" stroke="url(#paint26_linear_5860_27514)" stroke-width="1.204" stroke-miterlimit="10"/>
<path d="M0.419922 342.092C44.434 328.709 65.3615 297.429 105.057 281.466C153.888 261.795 232.781 284.368 283.439 290.012C348.713 297.267 415.979 301.137 480.589 312.263C548.52 323.872 609.974 341.124 679.898 342.737" stroke="url(#paint27_linear_5860_27514)" stroke-width="1.204" stroke-miterlimit="10"/>
<path d="M0.419922 355.959C45.7628 345.801 61.2091 317.1 100.407 301.46C151.23 281.144 234.608 305.168 286.927 311.618C354.028 319.841 421.626 324.034 488.561 332.418C553.171 340.48 614.126 354.83 679.732 356.443" stroke="url(#paint28_linear_5860_27514)" stroke-width="1.204" stroke-miterlimit="10"/>
<path d="M0.419922 369.824C47.7558 364.664 61.8734 338.705 102.4 324.677C157.708 305.49 242.248 328.063 298.387 334.835C366.65 343.058 434.416 346.444 502.845 352.088C562.306 356.925 620.105 368.373 680.064 370.469" stroke="url(#paint29_linear_5860_27514)" stroke-width="1.204" stroke-miterlimit="10"/>
</g>
<defs>
<linearGradient id="paint0_linear_5860_27514" x1="340.159" y1="-31.1777" x2="340.159" y2="6.02433" gradientUnits="userSpaceOnUse">
<stop offset="0.546875" stop-color="white"/>
<stop offset="1" stop-color="white" stop-opacity="0.3"/>
</linearGradient>
<linearGradient id="paint1_linear_5860_27514" x1="340.159" y1="-17.3105" x2="340.159" y2="20.062" gradientUnits="userSpaceOnUse">
<stop offset="0.546875" stop-color="white"/>
<stop offset="1" stop-color="white" stop-opacity="0.3"/>
</linearGradient>
<linearGradient id="paint2_linear_5860_27514" x1="340.159" y1="-3.44336" x2="340.159" y2="31.8704" gradientUnits="userSpaceOnUse">
<stop offset="0.546875" stop-color="white"/>
<stop offset="1" stop-color="white" stop-opacity="0.3"/>
</linearGradient>
<linearGradient id="paint3_linear_5860_27514" x1="340.242" y1="10.1191" x2="340.242" y2="41.4176" gradientUnits="userSpaceOnUse">
<stop offset="0.546875" stop-color="white"/>
<stop offset="1" stop-color="white" stop-opacity="0.3"/>
</linearGradient>
<linearGradient id="paint4_linear_5860_27514" x1="340.159" y1="23.1738" x2="340.159" y2="49.8928" gradientUnits="userSpaceOnUse">
<stop offset="0.546875" stop-color="white"/>
<stop offset="1" stop-color="white" stop-opacity="0.3"/>
</linearGradient>
<linearGradient id="paint5_linear_5860_27514" x1="340.242" y1="35.2637" x2="340.242" y2="57.8125" gradientUnits="userSpaceOnUse">
<stop offset="0.546875" stop-color="white"/>
<stop offset="1" stop-color="white" stop-opacity="0.3"/>
</linearGradient>
<linearGradient id="paint6_linear_5860_27514" x1="340.076" y1="46.2754" x2="340.076" y2="66.1897" gradientUnits="userSpaceOnUse">
<stop offset="0.546875" stop-color="white"/>
<stop offset="1" stop-color="white" stop-opacity="0.3"/>
</linearGradient>
<linearGradient id="paint7_linear_5860_27514" x1="340.159" y1="56.334" x2="340.159" y2="79.6699" gradientUnits="userSpaceOnUse">
<stop offset="0.546875" stop-color="white"/>
<stop offset="1" stop-color="white" stop-opacity="0.3"/>
</linearGradient>
<linearGradient id="paint8_linear_5860_27514" x1="340.076" y1="66.3926" x2="340.076" y2="94.0424" gradientUnits="userSpaceOnUse">
<stop offset="0.546875" stop-color="white"/>
<stop offset="1" stop-color="white" stop-opacity="0.3"/>
</linearGradient>
<linearGradient id="paint9_linear_5860_27514" x1="340.159" y1="77.1328" x2="340.159" y2="111.401" gradientUnits="userSpaceOnUse">
<stop offset="0.546875" stop-color="white"/>
<stop offset="1" stop-color="white" stop-opacity="0.3"/>
</linearGradient>
<linearGradient id="paint10_linear_5860_27514" x1="340.159" y1="87.9141" x2="340.159" y2="123.545" gradientUnits="userSpaceOnUse">
<stop offset="0.546875" stop-color="white"/>
<stop offset="1" stop-color="white" stop-opacity="0.3"/>
</linearGradient>
<linearGradient id="paint11_linear_5860_27514" x1="340.076" y1="98.002" x2="340.076" y2="135.157" gradientUnits="userSpaceOnUse">
<stop offset="0.546875" stop-color="white"/>
<stop offset="1" stop-color="white" stop-opacity="0.3"/>
</linearGradient>
<linearGradient id="paint12_linear_5860_27514" x1="340.242" y1="105.363" x2="340.242" y2="147.098" gradientUnits="userSpaceOnUse">
<stop offset="0.546875" stop-color="white"/>
<stop offset="1" stop-color="white" stop-opacity="0.3"/>
</linearGradient>
<linearGradient id="paint13_linear_5860_27514" x1="340.159" y1="111.623" x2="340.159" y2="159.14" gradientUnits="userSpaceOnUse">
<stop offset="0.546875" stop-color="white"/>
<stop offset="1" stop-color="white" stop-opacity="0.3"/>
</linearGradient>
<linearGradient id="paint14_linear_5860_27514" x1="340.159" y1="117.193" x2="340.159" y2="170.992" gradientUnits="userSpaceOnUse">
<stop offset="0.546875" stop-color="white"/>
<stop offset="1" stop-color="white" stop-opacity="0.3"/>
</linearGradient>
<linearGradient id="paint15_linear_5860_27514" x1="340.159" y1="122.84" x2="340.159" y2="182.993" gradientUnits="userSpaceOnUse">
<stop offset="0.546875" stop-color="white"/>
<stop offset="1" stop-color="white" stop-opacity="0.3"/>
</linearGradient>
<linearGradient id="paint16_linear_5860_27514" x1="340.159" y1="128.855" x2="340.159" y2="195.355" gradientUnits="userSpaceOnUse">
<stop offset="0.546875" stop-color="white"/>
<stop offset="1" stop-color="white" stop-opacity="0.3"/>
</linearGradient>
<linearGradient id="paint17_linear_5860_27514" x1="340.159" y1="135.463" x2="340.159" y2="207.987" gradientUnits="userSpaceOnUse">
<stop offset="0.546875" stop-color="white"/>
<stop offset="1" stop-color="white" stop-opacity="0.3"/>
</linearGradient>
<linearGradient id="paint18_linear_5860_27514" x1="340.076" y1="143.178" x2="340.076" y2="221.045" gradientUnits="userSpaceOnUse">
<stop offset="0.546875" stop-color="white"/>
<stop offset="1" stop-color="white" stop-opacity="0.3"/>
</linearGradient>
<linearGradient id="paint19_linear_5860_27514" x1="340.159" y1="152.559" x2="340.159" y2="233.773" gradientUnits="userSpaceOnUse">
<stop offset="0.546875" stop-color="white"/>
<stop offset="1" stop-color="white" stop-opacity="0.3"/>
</linearGradient>
<linearGradient id="paint20_linear_5860_27514" x1="340.076" y1="165.186" x2="340.076" y2="246.304" gradientUnits="userSpaceOnUse">
<stop offset="0.546875" stop-color="white"/>
<stop offset="1" stop-color="white" stop-opacity="0.3"/>
</linearGradient>
<linearGradient id="paint21_linear_5860_27514" x1="340.076" y1="181.273" x2="340.076" y2="260.053" gradientUnits="userSpaceOnUse">
<stop offset="0.546875" stop-color="white"/>
<stop offset="1" stop-color="white" stop-opacity="0.3"/>
</linearGradient>
<linearGradient id="paint22_linear_5860_27514" x1="340.159" y1="198.082" x2="340.159" y2="273.564" gradientUnits="userSpaceOnUse">
<stop offset="0.546875" stop-color="white"/>
<stop offset="1" stop-color="white" stop-opacity="0.3"/>
</linearGradient>
<linearGradient id="paint23_linear_5860_27514" x1="340.159" y1="216" x2="340.159" y2="287.27" gradientUnits="userSpaceOnUse">
<stop offset="0.546875" stop-color="white"/>
<stop offset="1" stop-color="white" stop-opacity="0.3"/>
</linearGradient>
<linearGradient id="paint24_linear_5860_27514" x1="340.242" y1="230.223" x2="340.242" y2="301.138" gradientUnits="userSpaceOnUse">
<stop offset="0.546875" stop-color="white"/>
<stop offset="1" stop-color="white" stop-opacity="0.3"/>
</linearGradient>
<linearGradient id="paint25_linear_5860_27514" x1="340.159" y1="242.66" x2="340.159" y2="315.003" gradientUnits="userSpaceOnUse">
<stop offset="0.546875" stop-color="white"/>
<stop offset="1" stop-color="white" stop-opacity="0.3"/>
</linearGradient>
<linearGradient id="paint26_linear_5860_27514" x1="340.242" y1="256.873" x2="340.242" y2="328.869" gradientUnits="userSpaceOnUse">
<stop offset="0.546875" stop-color="white"/>
<stop offset="1" stop-color="white" stop-opacity="0.3"/>
</linearGradient>
<linearGradient id="paint27_linear_5860_27514" x1="340.159" y1="273.566" x2="340.159" y2="342.737" gradientUnits="userSpaceOnUse">
<stop offset="0.546875" stop-color="white"/>
<stop offset="1" stop-color="white" stop-opacity="0.3"/>
</linearGradient>
<linearGradient id="paint28_linear_5860_27514" x1="340.076" y1="293.461" x2="340.076" y2="356.443" gradientUnits="userSpaceOnUse">
<stop offset="0.546875" stop-color="white"/>
<stop offset="1" stop-color="white" stop-opacity="0.3"/>
</linearGradient>
<linearGradient id="paint29_linear_5860_27514" x1="340.242" y1="317.115" x2="340.242" y2="370.469" gradientUnits="userSpaceOnUse">
<stop offset="0.546875" stop-color="white"/>
<stop offset="1" stop-color="white" stop-opacity="0.3"/>
</linearGradient>
<clipPath id="clip0_5860_27514">
<rect width="620.113" height="602" fill="white" transform="translate(-2.06055 -145)"/>
</clipPath>
</defs>
</svg>
