<svg width="135px" height="42px" viewBox="180 0 135 42" version="1.1" xmlns="http://www.w3.org/2000/svg" xmlns:xlink="http://www.w3.org/1999/xlink">
    <defs></defs>
    <g id="openid-wordmark" stroke="none" stroke-width="1" fill="none" fill-rule="evenodd" transform="translate(180.000000, 0.000000)">
        <polygon id="Shape" fill="#F48018" points="20.2816901 3.43248731 20.2816901 37.5228426 20.2816901 41.8081218 27.0422535 38.5888325 27.0422535 0.106598985"></polygon>
        <polyline id="Shape" fill="#AEB0B3" points="43.6901408 14.6893401 44.6408451 24.4751269 31.5633803 21.5969543"></polyline>
        <path d="M28.2253521,12.7279188 L28.2253521,17.0558376 C31.056338,17.5461929 33.5915493,18.484264 35.6197183,19.742132 L40.3943662,16.7573604 C37.1408451,14.7319797 32.9366197,13.3035533 28.2253521,12.7279188 M6.76056338,27.2040609 C6.76056338,22.364467 11.9788732,18.2923858 19.0985915,17.0558376 L19.0985915,12.7279188 C8.21830986,14.0497462 0,20.0406091 0,27.2040609 C0,34.6446701 8.80985915,40.7847716 20.2816901,41.8081218 L20.2816901,37.5228426 C12.5704225,36.5634518 6.76056338,32.2994924 6.76056338,27.2040609" id="Shape" fill="#AEB0B3"></path>
        <path d="M52.2253521,21.4903553 C52.6056338,20.2964467 53.1549296,19.2517766 53.915493,18.3350254 C54.6760563,17.4182741 55.6056338,16.693401 56.7253521,16.1390863 C57.8450704,15.5847716 59.1338028,15.328934 60.6338028,15.328934 C62.1126761,15.328934 63.4225352,15.6060914 64.5422535,16.1390863 C65.6619718,16.693401 66.5915493,17.4182741 67.3521127,18.3350254 C68.0915493,19.2517766 68.6619718,20.2964467 69.0422535,21.4903553 C69.4225352,22.684264 69.6126761,23.9208122 69.6126761,25.2 C69.6126761,26.4791878 69.4225352,27.715736 69.0422535,28.9096447 C68.6619718,30.1035533 68.1126761,31.1482234 67.3521127,32.0649746 C66.5915493,32.9817259 65.6619718,33.706599 64.5422535,34.2395939 C63.4225352,34.7725888 62.1338028,35.0497462 60.6338028,35.0497462 C59.1549296,35.0497462 57.8450704,34.7725888 56.7253521,34.2395939 C55.6056338,33.706599 54.6760563,32.9817259 53.915493,32.0649746 C53.1549296,31.1482234 52.6056338,30.1035533 52.2253521,28.9096447 C51.8450704,27.715736 51.6549296,26.4791878 51.6549296,25.2 C51.6760563,23.9208122 51.8661972,22.684264 52.2253521,21.4903553 M54.528169,28.0142132 C54.7816901,28.9309645 55.1619718,29.7624365 55.6901408,30.5086294 C56.2183099,31.2548223 56.8943662,31.8517766 57.6971831,32.2994924 C58.5211268,32.7472081 59.4929577,32.9817259 60.6338028,32.9817259 C61.7746479,32.9817259 62.7464789,32.7472081 63.5704225,32.2994924 C64.3943662,31.8517766 65.0704225,31.2548223 65.5774648,30.5086294 C66.1056338,29.7624365 66.4859155,28.9309645 66.7394366,28.0142132 C66.9929577,27.0974619 67.0985915,26.1593909 67.0985915,25.2 C67.0985915,24.2406091 66.971831,23.3025381 66.7394366,22.3857868 C66.4859155,21.4690355 66.1056338,20.6375635 65.5774648,19.8913706 C65.0492958,19.1451777 64.3732394,18.5482234 63.5704225,18.1005076 C62.7464789,17.6527919 61.7746479,17.4182741 60.6338028,17.4182741 C59.4929577,17.4182741 58.5211268,17.6527919 57.6971831,18.1005076 C56.8732394,18.5482234 56.1971831,19.1451777 55.6901408,19.8913706 C55.1619718,20.6375635 54.7816901,21.4690355 54.528169,22.3857868 C54.2746479,23.3025381 54.1690141,24.2406091 54.1690141,25.2 C54.1478873,26.1593909 54.2746479,27.0974619 54.528169,28.0142132" id="Shape" fill="#1A1818"></path>
        <path d="M73.7535211,20.9786802 L73.7535211,22.8335025 L73.7957746,22.8335025 C74.1549296,22.0873096 74.7464789,21.5329949 75.528169,21.1918782 C76.3098592,20.8507614 77.1760563,20.680203 78.1267606,20.680203 C79.1830986,20.680203 80.0915493,20.8720812 80.8521127,21.2558376 C81.6338028,21.6395939 82.2676056,22.1725888 82.7957746,22.8335025 C83.3028169,23.4944162 83.7042254,24.2619289 83.9577465,25.1147208 C84.2112676,25.9675127 84.3591549,26.884264 84.3591549,27.8649746 C84.3591549,28.8243655 84.2323944,29.7411168 83.9788732,30.6152284 C83.7253521,31.4680203 83.3450704,32.235533 82.8169014,32.8751269 C82.3098592,33.5147208 81.6549296,34.0263959 80.8732394,34.3888325 C80.0915493,34.751269 79.1830986,34.9431472 78.1690141,34.9431472 C77.8309859,34.9431472 77.471831,34.9005076 77.0492958,34.8365482 C76.6478873,34.7725888 76.2253521,34.6446701 75.8239437,34.4954315 C75.4225352,34.3461929 75.0422535,34.1116751 74.6830986,33.8558376 C74.3239437,33.5786802 74.028169,33.2375635 73.7746479,32.8324873 L73.7323944,32.8324873 L73.7323944,39.8680203 L71.5140845,39.8680203 L71.5140845,21.0213198 L73.7535211,21.0213198 L73.7535211,20.9786802 Z M81.7605634,25.8182741 C81.5915493,25.2213198 81.3380282,24.6670051 81,24.1979695 C80.6619718,23.728934 80.2183099,23.3451777 79.6901408,23.0680203 C79.1619718,22.7908629 78.528169,22.6416244 77.8098592,22.6416244 C77.0492958,22.6416244 76.415493,22.7908629 75.9084507,23.0893401 C75.3802817,23.3878173 74.9577465,23.7715736 74.6197183,24.2619289 C74.2816901,24.7522843 74.0492958,25.306599 73.9014085,25.9035533 C73.7535211,26.5218274 73.6690141,27.1401015 73.6690141,27.7796954 C73.6690141,28.4406091 73.7535211,29.1015228 73.9014085,29.719797 C74.0492958,30.3380711 74.3028169,30.8923858 74.6408451,31.3614213 C74.9788732,31.8304569 75.4225352,32.2142132 75.971831,32.5126904 C76.5211268,32.8111675 77.1760563,32.9390863 77.9366197,32.9390863 C78.6971831,32.9390863 79.3521127,32.7898477 79.8591549,32.4913706 C80.3661972,32.1928934 80.7887324,31.7878173 81.1056338,31.2974619 C81.4225352,30.8071066 81.6549296,30.2314721 81.7816901,29.613198 C81.9295775,28.9736041 81.9929577,28.3340102 81.9929577,27.6517766 C81.9929577,27.0548223 81.9295775,26.4365482 81.7605634,25.8182741 L81.7605634,25.8182741 Z" id="Shape" fill="#1A1818"></path>
        <path d="M96.0211268,33.7492386 C95.0070423,34.5167513 93.7394366,34.9218274 92.1971831,34.9218274 C91.1197183,34.9218274 90.1690141,34.751269 89.3873239,34.3888325 C88.584507,34.0263959 87.9295775,33.5360406 87.3802817,32.9177665 C86.8309859,32.2781726 86.4295775,31.5319797 86.1549296,30.6365482 C85.8802817,29.7624365 85.7323944,28.8030457 85.6901408,27.7583756 C85.6901408,26.7137056 85.8380282,25.7756345 86.1549296,24.9015228 C86.471831,24.048731 86.915493,23.2812183 87.4859155,22.6629442 C88.056338,22.0233503 88.7323944,21.5329949 89.4929577,21.1918782 C90.2746479,20.8294416 91.1197183,20.6588832 92.0492958,20.6588832 C93.2535211,20.6588832 94.2464789,20.9147208 95.0492958,21.4050761 C95.8521127,21.9167513 96.4859155,22.5350254 96.9507042,23.3238579 C97.4366197,24.0913706 97.7535211,24.9441624 97.943662,25.8609137 C98.1338028,26.777665 98.1971831,27.6517766 98.1760563,28.4832487 L88.056338,28.4832487 C88.0352113,29.080203 88.0985915,29.6558376 88.2676056,30.1888325 C88.415493,30.7218274 88.6690141,31.2121827 89.028169,31.6172589 C89.3873239,32.022335 89.8309859,32.3634518 90.3591549,32.5979695 C90.9084507,32.8538071 91.5422535,32.9604061 92.2605634,32.9604061 C93.2112676,32.9604061 93.971831,32.7472081 94.584507,32.2994924 C95.1760563,31.8517766 95.5774648,31.1908629 95.7676056,30.2954315 L97.9647887,30.2954315 C97.6901408,31.8304569 97.0352113,32.9817259 96.0211268,33.7492386 M95.4929577,24.986802 C95.3028169,24.5177665 95.028169,24.0913706 94.6901408,23.7502538 C94.3521127,23.4091371 93.9507042,23.1319797 93.4859155,22.9401015 C93.0211268,22.7482234 92.5140845,22.6416244 91.9647887,22.6416244 C91.3943662,22.6416244 90.8661972,22.7482234 90.4014085,22.9401015 C89.9366197,23.1532995 89.5352113,23.4304569 89.2183099,23.7715736 C88.8802817,24.1340102 88.6267606,24.5390863 88.4366197,25.0081218 C88.2464789,25.4771574 88.1408451,25.9675127 88.0985915,26.5005076 L95.8732394,26.5005076 C95.8098592,25.9675127 95.7042254,25.4558376 95.4929577,24.986802" id="Shape" fill="#1A1818"></path>
        <path d="M101.809859,20.9786802 L101.809859,23.1532995 L101.852113,23.1532995 C102.78169,21.4903553 104.239437,20.680203 106.246479,20.680203 C107.133803,20.680203 107.873239,20.8081218 108.464789,21.0426396 C109.056338,21.2984772 109.542254,21.6395939 109.901408,22.0659898 C110.260563,22.5137056 110.535211,23.0253807 110.683099,23.6436548 C110.830986,24.2406091 110.915493,24.9228426 110.915493,25.6690355 L110.915493,34.6446701 L108.697183,34.6446701 L108.697183,25.3918782 C108.697183,24.5390863 108.443662,23.8781726 107.957746,23.3878173 C107.471831,22.8974619 106.795775,22.6416244 105.950704,22.6416244 C105.274648,22.6416244 104.683099,22.7482234 104.176056,22.9614213 C103.669014,23.1746193 103.267606,23.4730964 102.929577,23.8568528 C102.591549,24.2406091 102.359155,24.6883249 102.190141,25.2213198 C102.021127,25.7329949 101.93662,26.3086294 101.93662,26.9269036 L101.93662,34.6446701 L99.7183099,34.6446701 L99.7183099,21 L101.809859,21 L101.809859,20.9786802 Z" id="Shape" fill="#1A1818"></path>
        <rect id="Rectangle-path" fill="#1A1818" x="113.957746" y="15.7766497" width="2.74647887" height="18.8467005"></rect>
        <path d="M126,15.7766497 C128.873239,15.7766497 131.091549,16.5228426 132.65493,17.9939086 C134.197183,19.4649746 134.978873,21.7248731 134.978873,24.7522843 C134.978873,26.3299492 134.809859,27.7370558 134.450704,28.9736041 C134.091549,30.1888325 133.56338,31.2335025 132.823944,32.0649746 C132.084507,32.8964467 131.15493,33.5360406 130.014085,33.9837563 C128.873239,34.4314721 127.542254,34.6446701 125.978873,34.6446701 L119.577465,34.6446701 L119.577465,15.7766497 L126,15.7766497 L126,15.7766497 Z M126.211268,32.5126904 C126.485915,32.5126904 126.84507,32.4913706 127.267606,32.448731 C127.690141,32.4060914 128.133803,32.2994924 128.598592,32.128934 C129.06338,31.9583756 129.528169,31.7238579 129.992958,31.4040609 C130.457746,31.084264 130.880282,30.657868 131.239437,30.1035533 C131.598592,29.5492386 131.915493,28.8670051 132.147887,28.0568528 C132.380282,27.2467005 132.507042,26.2446701 132.507042,25.093401 C132.507042,23.9634518 132.401408,22.9614213 132.190141,22.0659898 C131.978873,21.1705584 131.619718,20.4243655 131.112676,19.7847716 C130.605634,19.1664975 129.971831,18.6761421 129.190141,18.3563452 C128.408451,18.0365482 127.43662,17.8659898 126.274648,17.8659898 L122.091549,17.8659898 L122.091549,32.4913706 L126.211268,32.4913706 L126.211268,32.5126904 Z" id="Shape" fill="#1A1818"></path>
        <polygon id="Shape" fill="#F48018" points="20.2816901 3.43248731 20.2816901 37.5228426 20.2816901 41.8081218 27.0422535 38.5888325 27.0422535 0.106598985"></polygon>
        <polyline id="Shape" fill="#AEB0B3" points="43.6901408 14.6893401 44.6408451 24.4751269 31.5633803 21.5969543"></polyline>
        <path d="M28.2253521,12.7279188 L28.2253521,17.0558376 C31.056338,17.5461929 33.5915493,18.484264 35.6197183,19.742132 L40.3943662,16.7573604 C37.1408451,14.7319797 32.9366197,13.3035533 28.2253521,12.7279188 M6.76056338,27.2040609 C6.76056338,22.364467 11.9788732,18.2923858 19.0985915,17.0558376 L19.0985915,12.7279188 C8.21830986,14.0497462 0,20.0406091 0,27.2040609 C0,34.6446701 8.80985915,40.7847716 20.2816901,41.8081218 L20.2816901,37.5228426 C12.5704225,36.5634518 6.76056338,32.2994924 6.76056338,27.2040609" id="Shape" fill="#AEB0B3"></path>
        <path d="M52.2253521,21.4903553 C52.6056338,20.2964467 53.1549296,19.2517766 53.915493,18.3350254 C54.6760563,17.4182741 55.6056338,16.693401 56.7253521,16.1390863 C57.8450704,15.5847716 59.1338028,15.328934 60.6338028,15.328934 C62.1126761,15.328934 63.4225352,15.6060914 64.5422535,16.1390863 C65.6619718,16.693401 66.5915493,17.4182741 67.3521127,18.3350254 C68.0915493,19.2517766 68.6619718,20.2964467 69.0422535,21.4903553 C69.4225352,22.684264 69.6126761,23.9208122 69.6126761,25.2 C69.6126761,26.4791878 69.4225352,27.715736 69.0422535,28.9096447 C68.6619718,30.1035533 68.1126761,31.1482234 67.3521127,32.0649746 C66.5915493,32.9817259 65.6619718,33.706599 64.5422535,34.2395939 C63.4225352,34.7725888 62.1338028,35.0497462 60.6338028,35.0497462 C59.1549296,35.0497462 57.8450704,34.7725888 56.7253521,34.2395939 C55.6056338,33.706599 54.6760563,32.9817259 53.915493,32.0649746 C53.1549296,31.1482234 52.6056338,30.1035533 52.2253521,28.9096447 C51.8450704,27.715736 51.6549296,26.4791878 51.6549296,25.2 C51.6760563,23.9208122 51.8661972,22.684264 52.2253521,21.4903553 M54.528169,28.0142132 C54.7816901,28.9309645 55.1619718,29.7624365 55.6901408,30.5086294 C56.2183099,31.2548223 56.8943662,31.8517766 57.6971831,32.2994924 C58.5211268,32.7472081 59.4929577,32.9817259 60.6338028,32.9817259 C61.7746479,32.9817259 62.7464789,32.7472081 63.5704225,32.2994924 C64.3943662,31.8517766 65.0704225,31.2548223 65.5774648,30.5086294 C66.1056338,29.7624365 66.4859155,28.9309645 66.7394366,28.0142132 C66.9929577,27.0974619 67.0985915,26.1593909 67.0985915,25.2 C67.0985915,24.2406091 66.971831,23.3025381 66.7394366,22.3857868 C66.4859155,21.4690355 66.1056338,20.6375635 65.5774648,19.8913706 C65.0492958,19.1451777 64.3732394,18.5482234 63.5704225,18.1005076 C62.7464789,17.6527919 61.7746479,17.4182741 60.6338028,17.4182741 C59.4929577,17.4182741 58.5211268,17.6527919 57.6971831,18.1005076 C56.8732394,18.5482234 56.1971831,19.1451777 55.6901408,19.8913706 C55.1619718,20.6375635 54.7816901,21.4690355 54.528169,22.3857868 C54.2746479,23.3025381 54.1690141,24.2406091 54.1690141,25.2 C54.1478873,26.1593909 54.2746479,27.0974619 54.528169,28.0142132" id="Shape" fill="#1A1818"></path>
        <path d="M73.7535211,20.9786802 L73.7535211,22.8335025 L73.7957746,22.8335025 C74.1549296,22.0873096 74.7464789,21.5329949 75.528169,21.1918782 C76.3098592,20.8507614 77.1760563,20.680203 78.1267606,20.680203 C79.1830986,20.680203 80.0915493,20.8720812 80.8521127,21.2558376 C81.6338028,21.6395939 82.2676056,22.1725888 82.7957746,22.8335025 C83.3028169,23.4944162 83.7042254,24.2619289 83.9577465,25.1147208 C84.2112676,25.9675127 84.3591549,26.884264 84.3591549,27.8649746 C84.3591549,28.8243655 84.2323944,29.7411168 83.9788732,30.6152284 C83.7253521,31.4680203 83.3450704,32.235533 82.8169014,32.8751269 C82.3098592,33.5147208 81.6549296,34.0263959 80.8732394,34.3888325 C80.0915493,34.751269 79.1830986,34.9431472 78.1690141,34.9431472 C77.8309859,34.9431472 77.471831,34.9005076 77.0492958,34.8365482 C76.6478873,34.7725888 76.2253521,34.6446701 75.8239437,34.4954315 C75.4225352,34.3461929 75.0422535,34.1116751 74.6830986,33.8558376 C74.3239437,33.5786802 74.028169,33.2375635 73.7746479,32.8324873 L73.7323944,32.8324873 L73.7323944,39.8680203 L71.5140845,39.8680203 L71.5140845,21.0213198 L73.7535211,21.0213198 L73.7535211,20.9786802 Z M81.7605634,25.8182741 C81.5915493,25.2213198 81.3380282,24.6670051 81,24.1979695 C80.6619718,23.728934 80.2183099,23.3451777 79.6901408,23.0680203 C79.1619718,22.7908629 78.528169,22.6416244 77.8098592,22.6416244 C77.0492958,22.6416244 76.415493,22.7908629 75.9084507,23.0893401 C75.3802817,23.3878173 74.9577465,23.7715736 74.6197183,24.2619289 C74.2816901,24.7522843 74.0492958,25.306599 73.9014085,25.9035533 C73.7535211,26.5218274 73.6690141,27.1401015 73.6690141,27.7796954 C73.6690141,28.4406091 73.7535211,29.1015228 73.9014085,29.719797 C74.0492958,30.3380711 74.3028169,30.8923858 74.6408451,31.3614213 C74.9788732,31.8304569 75.4225352,32.2142132 75.971831,32.5126904 C76.5211268,32.8111675 77.1760563,32.9390863 77.9366197,32.9390863 C78.6971831,32.9390863 79.3521127,32.7898477 79.8591549,32.4913706 C80.3661972,32.1928934 80.7887324,31.7878173 81.1056338,31.2974619 C81.4225352,30.8071066 81.6549296,30.2314721 81.7816901,29.613198 C81.9295775,28.9736041 81.9929577,28.3340102 81.9929577,27.6517766 C81.9929577,27.0548223 81.9295775,26.4365482 81.7605634,25.8182741 L81.7605634,25.8182741 Z" id="Shape" fill="#1A1818"></path>
        <path d="M96.0211268,33.7492386 C95.0070423,34.5167513 93.7394366,34.9218274 92.1971831,34.9218274 C91.1197183,34.9218274 90.1690141,34.751269 89.3873239,34.3888325 C88.584507,34.0263959 87.9295775,33.5360406 87.3802817,32.9177665 C86.8309859,32.2781726 86.4295775,31.5319797 86.1549296,30.6365482 C85.8802817,29.7624365 85.7323944,28.8030457 85.6901408,27.7583756 C85.6901408,26.7137056 85.8380282,25.7756345 86.1549296,24.9015228 C86.471831,24.048731 86.915493,23.2812183 87.4859155,22.6629442 C88.056338,22.0233503 88.7323944,21.5329949 89.4929577,21.1918782 C90.2746479,20.8294416 91.1197183,20.6588832 92.0492958,20.6588832 C93.2535211,20.6588832 94.2464789,20.9147208 95.0492958,21.4050761 C95.8521127,21.9167513 96.4859155,22.5350254 96.9507042,23.3238579 C97.4366197,24.0913706 97.7535211,24.9441624 97.943662,25.8609137 C98.1338028,26.777665 98.1971831,27.6517766 98.1760563,28.4832487 L88.056338,28.4832487 C88.0352113,29.080203 88.0985915,29.6558376 88.2676056,30.1888325 C88.415493,30.7218274 88.6690141,31.2121827 89.028169,31.6172589 C89.3873239,32.022335 89.8309859,32.3634518 90.3591549,32.5979695 C90.9084507,32.8538071 91.5422535,32.9604061 92.2605634,32.9604061 C93.2112676,32.9604061 93.971831,32.7472081 94.584507,32.2994924 C95.1760563,31.8517766 95.5774648,31.1908629 95.7676056,30.2954315 L97.9647887,30.2954315 C97.6901408,31.8304569 97.0352113,32.9817259 96.0211268,33.7492386 M95.4929577,24.986802 C95.3028169,24.5177665 95.028169,24.0913706 94.6901408,23.7502538 C94.3521127,23.4091371 93.9507042,23.1319797 93.4859155,22.9401015 C93.0211268,22.7482234 92.5140845,22.6416244 91.9647887,22.6416244 C91.3943662,22.6416244 90.8661972,22.7482234 90.4014085,22.9401015 C89.9366197,23.1532995 89.5352113,23.4304569 89.2183099,23.7715736 C88.8802817,24.1340102 88.6267606,24.5390863 88.4366197,25.0081218 C88.2464789,25.4771574 88.1408451,25.9675127 88.0985915,26.5005076 L95.8732394,26.5005076 C95.8098592,25.9675127 95.7042254,25.4558376 95.4929577,24.986802" id="Shape" fill="#1A1818"></path>
        <path d="M101.809859,20.9786802 L101.809859,23.1532995 L101.852113,23.1532995 C102.78169,21.4903553 104.239437,20.680203 106.246479,20.680203 C107.133803,20.680203 107.873239,20.8081218 108.464789,21.0426396 C109.056338,21.2984772 109.542254,21.6395939 109.901408,22.0659898 C110.260563,22.5137056 110.535211,23.0253807 110.683099,23.6436548 C110.830986,24.2406091 110.915493,24.9228426 110.915493,25.6690355 L110.915493,34.6446701 L108.697183,34.6446701 L108.697183,25.3918782 C108.697183,24.5390863 108.443662,23.8781726 107.957746,23.3878173 C107.471831,22.8974619 106.795775,22.6416244 105.950704,22.6416244 C105.274648,22.6416244 104.683099,22.7482234 104.176056,22.9614213 C103.669014,23.1746193 103.267606,23.4730964 102.929577,23.8568528 C102.591549,24.2406091 102.359155,24.6883249 102.190141,25.2213198 C102.021127,25.7329949 101.93662,26.3086294 101.93662,26.9269036 L101.93662,34.6446701 L99.7183099,34.6446701 L99.7183099,21 L101.809859,21 L101.809859,20.9786802 Z" id="Shape" fill="#1A1818"></path>
        <rect id="Rectangle-path" fill="#1A1818" x="113.957746" y="15.7766497" width="2.74647887" height="18.8467005"></rect>
        <path d="M126,15.7766497 C128.873239,15.7766497 131.091549,16.5228426 132.65493,17.9939086 C134.197183,19.4649746 134.978873,21.7248731 134.978873,24.7522843 C134.978873,26.3299492 134.809859,27.7370558 134.450704,28.9736041 C134.091549,30.1888325 133.56338,31.2335025 132.823944,32.0649746 C132.084507,32.8964467 131.15493,33.5360406 130.014085,33.9837563 C128.873239,34.4314721 127.542254,34.6446701 125.978873,34.6446701 L119.577465,34.6446701 L119.577465,15.7766497 L126,15.7766497 L126,15.7766497 Z M126.211268,32.5126904 C126.485915,32.5126904 126.84507,32.4913706 127.267606,32.448731 C127.690141,32.4060914 128.133803,32.2994924 128.598592,32.128934 C129.06338,31.9583756 129.528169,31.7238579 129.992958,31.4040609 C130.457746,31.084264 130.880282,30.657868 131.239437,30.1035533 C131.598592,29.5492386 131.915493,28.8670051 132.147887,28.0568528 C132.380282,27.2467005 132.507042,26.2446701 132.507042,25.093401 C132.507042,23.9634518 132.401408,22.9614213 132.190141,22.0659898 C131.978873,21.1705584 131.619718,20.4243655 131.112676,19.7847716 C130.605634,19.1664975 129.971831,18.6761421 129.190141,18.3563452 C128.408451,18.0365482 127.43662,17.8659898 126.274648,17.8659898 L122.091549,17.8659898 L122.091549,32.4913706 L126.211268,32.4913706 L126.211268,32.5126904 Z" id="Shape" fill="#1A1818"></path>
    </g>
</svg>
